<svg width="146" height="120" viewBox="0 0 146 120" fill="none" xmlns="http://www.w3.org/2000/svg">
<g clip-path="url(#clip0_1_51253)">
<path d="M26.714 56.3368V55.9847C26.7207 55.9305 26.7954 50.676 24.5212 47.7847C21.0453 43.3698 16.8227 43.275 16.7751 43.275V42.625C16.9652 42.625 21.3576 42.7266 25.0303 47.3852C27.1281 50.0463 27.3453 54.3799 27.3657 55.6461L28.8592 55.5581L28.9 56.2013L26.714 56.33V56.3368Z" fill="#C1682B"/>
<path d="M131.465 110.087L132.87 108.611C133.291 108.171 133.828 107.615 133.78 106.004V99.4425H134.018V106.275C134.018 107.819 133.644 108.34 132.993 109.003C132.049 109.979 131.805 110.358 131.391 110.784V110.256L131.465 110.08V110.087Z" fill="#C4B08D"/>
<path d="M146 97.9325C146 96.0163 144.663 94.425 142.904 94.0932C142.762 90.5993 139.978 87.8095 136.564 87.8095C136.082 87.8095 135.613 87.8704 135.165 87.972C134.656 86.0422 132.959 84.627 130.929 84.627C129.917 84.627 128.987 84.9859 128.247 85.575C127.236 84.3833 125.756 83.6249 124.099 83.6249C121.099 83.6249 118.662 86.0964 118.58 89.1773C118.499 89.1773 118.417 89.1638 118.342 89.1638C115.559 89.1638 113.312 91.4998 113.312 94.3708C113.312 94.4927 113.319 94.6146 113.332 94.7365C111.934 95.4542 110.963 96.9439 110.963 98.6638C110.963 100.614 112.199 102.273 113.909 102.842C113.909 102.936 113.896 103.031 113.896 103.133C113.896 107.588 117.385 111.204 121.696 111.204C122.599 111.204 123.468 111.035 124.276 110.744C125.416 112.22 127.154 113.168 129.103 113.168C131.587 113.168 133.719 111.631 134.71 109.423C135.376 109.667 136.082 109.803 136.828 109.803C140.338 109.803 143.183 106.857 143.183 103.228C143.183 102.727 143.122 102.232 143.02 101.758C144.731 101.386 146.02 99.8149 146.02 97.9393L146 97.9325Z" fill="#1B6D07"/>
<path d="M121.18 94.425C121.18 94.3438 121.173 94.2693 121.173 94.1948C121.173 91.9806 122.911 90.1795 125.057 90.1795C126.645 90.1795 128.016 91.1681 128.614 92.59C129.116 92.1567 130.033 91.4998 130.623 91.378C135.905 90.2472 135.919 96.5106 136.082 96.3616C136.326 96.1449 137.052 92.6916 134.731 90.7686C131.377 87.9923 128.98 89.8815 128.444 90.0711C127.847 88.6559 126.177 87.3829 124.588 87.3829C122.443 87.3829 120.793 88.8184 120.793 91.0394C120.793 91.1207 120.644 92.3395 120.651 92.414C119.476 92.6713 117.283 94.012 117.283 96.3751C117.283 97.1674 117.453 97.919 117.745 98.5893C118.078 96.646 119.408 95.0615 121.173 94.4318L121.18 94.425Z" fill="#2D8717"/>
<path d="M130.216 96.7746C131.689 97.3096 132.653 98.6841 132.769 100.208C133.475 99.8691 134.846 100.357 135.403 100.56C137.813 101.426 138.587 103.857 137.86 106.424C138.302 105.963 138.648 105.401 138.872 104.758C139.659 102.415 138.464 99.842 136.197 99.0227C135.729 98.8534 135.253 98.7722 134.785 98.7722C134.69 97.4992 133.882 96.3413 132.646 95.8944C131.492 95.4746 130.257 95.786 129.422 96.5918C129.687 96.6257 129.958 96.6866 130.223 96.7814L130.216 96.7746Z" fill="#2D8717"/>
<path d="M30.6786 42.801C30.6786 43.0922 30.5225 43.3292 30.3392 43.3292H5.64828C5.45819 43.3292 5.30884 43.0922 5.30884 42.801C5.30884 42.5099 5.46498 42.2729 5.64828 42.2729H30.3392C30.5292 42.2729 30.6786 42.5099 30.6786 42.801Z" fill="#C1682B"/>
<path d="M6.4222 42.8552C6.4222 43.6678 5.76369 44.3178 4.95582 44.3178C4.14796 44.3178 3.48944 43.661 3.48944 42.8552C3.48944 42.0494 4.14796 41.3926 4.95582 41.3926C5.76369 41.3926 6.4222 42.0494 6.4222 42.8552Z" fill="#C1682B"/>
<path d="M11.8669 42.9094H11.0454V47.9539H11.8669V42.9094Z" fill="#C1682B"/>
<path d="M11.2694 64.2726C8.83902 64.2726 6.56477 63.3179 4.85399 61.5912C4.66391 61.4016 4.43988 61.2865 4.23621 61.2865H2.91919C1.31024 61.2865 0 59.9797 0 58.3749V52.2063C0 50.6015 1.31024 49.2947 2.91919 49.2947H4.23621C4.43988 49.2947 4.66391 49.1863 4.85399 48.9967C6.55798 47.2701 8.83902 46.3153 11.2694 46.3153C13.6998 46.3153 15.9741 47.2701 17.6848 48.9967C17.8749 49.1863 18.0989 49.2947 18.3026 49.2947H19.6196C21.2286 49.2947 22.5456 50.6015 22.5456 52.2063V58.3749C22.5456 59.9797 21.2354 61.2865 19.6196 61.2865H18.3026C18.0989 61.2865 17.8749 61.3949 17.6848 61.5912C15.9808 63.3179 13.6998 64.2726 11.2694 64.2726Z" fill="#318415"/>
<path d="M21.3779 52.2131C21.3779 51.2448 20.5904 50.4661 19.6264 50.4661H18.3094C17.7595 50.4661 17.2435 50.2088 16.8566 49.8161C15.4377 48.3738 13.4622 47.48 11.2762 47.48C9.09018 47.48 7.11464 48.3738 5.69578 49.8161C5.30882 50.2088 4.79287 50.4661 4.24298 50.4661H2.92595C1.95515 50.4661 1.17444 51.2516 1.17444 52.2131V58.3817C1.17444 59.35 1.96194 60.1287 2.92595 60.1287H4.24298C4.79287 60.1287 5.30882 60.386 5.69578 60.7787C7.11464 62.221 9.09018 63.108 11.2762 63.108C13.4622 63.108 15.4377 62.2142 16.8566 60.7787C17.2435 60.386 17.7595 60.1287 18.3094 60.1287H19.6264C20.5972 60.1287 21.3779 59.3432 21.3779 58.3817V52.2131Z" fill="#EDBA70"/>
<path d="M143.23 116.614C143.23 118.483 141.709 120 139.836 120H12.6407C10.767 120 9.24634 118.483 9.24634 116.614V114.664C9.24634 112.795 10.767 111.279 12.6407 111.279H143.23V116.621V116.614Z" fill="#C6BEB9"/>
<path d="M127.731 29.7054H27.2639L38.0648 18.0657H116.93L127.731 29.7054Z" fill="#BF0808"/>
<path d="M128.288 29.5294H27.0262V112.24H128.288V29.5294Z" fill="#DDB16B"/>
<path d="M59.6736 30.4368H30.1287V112.206H59.6736V30.4368Z" fill="#C47227"/>
<path d="M124.805 29.8748H62.7828V90.8566H124.805V29.8748Z" fill="#C47227"/>
<path d="M122.843 33.9036H64.9485V88.9742H122.843V33.9036Z" fill="#020000"/>
<path d="M54.7653 44.2568H34.3106V89.2924H54.7653V44.2568Z" fill="#23140F"/>
<path d="M54.7653 30.3284H34.3106V39.2732H54.7653V30.3284Z" fill="#23140F"/>
<path opacity="0.15" d="M34.3106 44.2568V59.6072L51.5745 44.2568H34.3106Z" fill="#F5F5F5"/>
<path opacity="0.15" d="M44.3377 30.3284H34.3106V39.2462L44.3377 30.3284Z" fill="#F5F5F5"/>
<path d="M128.288 30.8227H27.0262V32.4004H128.288V30.8227Z" fill="#FFCE78"/>
<path opacity="0.12" d="M34.813 95.6438V106.62H55.5324V95.6438H34.813ZM54.2222 105.266H36.1232V96.998H54.2222V105.266Z" fill="#331305"/>
<path opacity="0.12" d="M62.7828 95.6438V106.62H124.69V95.6438H62.7828ZM123.251 105.266H63.9709V96.998H123.251V105.266Z" fill="#331305"/>
<path d="M49.3003 41.9885H48.5807V91.8316H49.3003V41.9885Z" fill="#C47227"/>
<path d="M41.948 41.9885H41.2284V91.8316H41.948V41.9885Z" fill="#C47227"/>
<path d="M56.6118 57.278H32.7967V58.0092H56.6118V57.278Z" fill="#C47227"/>
<path d="M56.6118 72.9331H32.7967V73.6644H56.6118V72.9331Z" fill="#C47227"/>
<path d="M58.954 70.1569C58.954 70.6512 58.5534 71.0507 58.0579 71.0507C57.5623 71.0507 57.1617 70.6512 57.1617 70.1569C57.1617 69.6626 57.5623 69.2631 58.0579 69.2631C58.5534 69.2631 58.954 69.6626 58.954 70.1569Z" fill="#FFDF57"/>
<path d="M59.0966 84.2614C59.0966 84.837 58.6281 85.3042 58.0579 85.3042C57.4876 85.3042 57.0124 84.837 57.0124 84.2614C57.0124 83.6858 57.4808 83.2186 58.0579 83.2186C58.6349 83.2186 59.0966 83.6858 59.0966 84.2614Z" fill="#FFDF57"/>
<path d="M58.6621 71.2267C58.6621 71.5382 58.3905 71.782 58.0579 71.782C57.7252 71.782 57.4537 71.5315 57.4537 71.2267V70.421C57.4537 70.1095 57.7252 69.8657 58.0579 69.8657C58.3905 69.8657 58.6621 70.1163 58.6621 70.421V71.2267Z" fill="#FFDF57"/>
<path d="M58.6621 84.2411C58.6621 84.5526 58.3905 84.7963 58.0579 84.7963C57.7252 84.7963 57.4537 84.5458 57.4537 84.2411V83.4353C57.4537 83.1238 57.7252 82.8801 58.0579 82.8801C58.3905 82.8801 58.6621 83.1306 58.6621 83.4353V84.2411Z" fill="#FFDF57"/>
<path d="M58.7571 77.375C58.7503 80.3612 58.4448 83.977 58.0511 83.977C57.6573 83.977 57.3111 80.3544 57.345 77.375C57.4129 72.4117 57.6573 70.8882 58.0511 70.8882C58.4448 70.8882 58.7707 71.7955 58.7571 77.375Z" fill="#FFDF57"/>
<path d="M84.1472 67.7531C84.283 67.7531 84.4052 67.8141 84.4866 67.9224C84.5613 68.0172 84.5477 68.1526 84.4595 68.2339L84.283 68.3964C84.1879 68.4844 84.1743 68.6266 84.2422 68.7349C84.5274 69.2089 85.1723 70.5158 84.7175 72.1883C84.6564 72.4253 84.7039 72.6826 84.8804 72.8519L86.9646 74.8765C87.1886 75.0999 87.3176 75.4046 87.3176 75.7161V83.415C87.3176 83.5369 87.3583 83.652 87.433 83.7468L87.4941 83.8145C87.6027 83.9432 87.6027 84.126 87.4941 84.2546C87.3787 84.3968 87.2022 84.4713 87.0189 84.4713H79.558C79.3747 84.4713 79.1982 84.3901 79.0827 84.2546C78.9741 84.126 78.9741 83.9432 79.0827 83.8145L79.1438 83.7468C79.2253 83.6588 79.266 83.5369 79.266 83.415V75.7161C79.266 75.3978 79.3882 75.0931 79.6191 74.8765L81.7032 72.8519C81.8797 72.6826 81.9273 72.4253 81.8662 72.1883C81.4113 70.5226 82.0562 69.2089 82.3414 68.7349C82.4093 68.6266 82.3957 68.4776 82.3006 68.3964L82.1241 68.2339C82.0359 68.1526 82.0223 68.0172 82.097 67.9224C82.1784 67.8208 82.3006 67.7531 82.4364 67.7531H84.154H84.1472Z" fill="#891603"/>
<path d="M85.7697 77.2057H79.2661V82.1352H85.7697V77.2057Z" fill="#CC8A05"/>
<path d="M82.2259 67.4958L82.3821 67.7531C82.3821 67.7531 82.416 67.7531 82.4296 67.7531H84.1472C84.1472 67.7531 84.1947 67.7531 84.2151 67.7599L84.3712 67.5026C84.473 67.3333 84.5409 67.1437 84.5749 66.9541L84.6971 66.2363C84.7039 66.1889 84.6699 66.1415 84.6156 66.1415H81.9883C81.934 66.1415 81.8933 66.1889 81.9069 66.2363L82.0223 66.9541C82.0562 67.1505 82.1241 67.3333 82.2259 67.5026V67.4958Z" fill="#806854"/>
<path d="M81.968 66.6088H84.636L84.6767 66.3718H81.9272L81.968 66.6088Z" fill="#FFF5CF"/>
<path d="M84.6156 66.1348H81.9883C81.934 66.1348 81.8933 66.1822 81.9069 66.2296L82.0223 66.9473C82.0562 67.1437 82.1241 67.3265 82.2259 67.4958L82.3821 67.7531C82.3821 67.7531 82.416 67.7531 82.4296 67.7531H84.1472C84.1472 67.7531 84.1947 67.7531 84.2151 67.7599L84.3712 67.5026C84.473 67.3333 84.5409 67.1437 84.5749 66.9541L84.6971 66.2363C84.7039 66.1889 84.6699 66.1415 84.6156 66.1415V66.1348Z" fill="#DDB16B"/>
<path d="M82.2599 68.3557L82.3006 68.3963C82.3753 68.4641 82.4025 68.5724 82.3753 68.6672H84.2083C84.1811 68.5724 84.2083 68.4708 84.283 68.3963L84.3237 68.3557H82.2667H82.2599Z" fill="#B4CED9"/>
<path d="M84.3237 78.384H79.2661V80.2596H84.3237V78.384Z" fill="#60402F"/>
<g opacity="0.3">
<path d="M82.4025 67.8005C82.4025 67.8005 82.1038 67.8682 82.1581 68.112C82.1581 68.112 82.1852 68.2812 82.3482 68.2812C82.5111 68.2812 82.1649 68.1526 82.4025 67.8005Z" fill="white"/>
</g>
<g opacity="0.3">
<path d="M82.8709 68.7891C82.8709 68.7891 82.8709 68.7214 82.837 68.7214H82.5994C82.5383 68.7214 82.4772 68.7552 82.45 68.8094C82.2531 69.1751 81.5335 70.6647 82.0359 72.2289C82.0359 72.2289 82.097 69.6626 82.8641 68.7891H82.8709Z" fill="white"/>
</g>
<g opacity="0.3">
<path d="M80.0467 84.3291C80.0467 84.3291 80.0467 84.3223 80.04 84.3223C79.8499 84.302 79.6326 84.2478 79.5512 84.1598C79.4425 84.0312 79.4968 83.9093 79.6055 83.7874L79.6666 83.7197C79.748 83.6317 79.7888 83.5572 79.7888 83.3879L79.9856 75.8041C79.9856 75.4858 80.1146 75.1811 80.3454 74.9645L82.0562 73.0821C82.0562 73.0821 82.0562 73.0076 82.0291 73.0076H81.9612C81.9001 73.0076 81.839 73.0347 81.7915 73.0753L79.877 74.9577C79.653 75.1811 79.5172 75.4858 79.524 75.7973V83.3811C79.524 83.5572 79.4833 83.6181 79.4018 83.7129L79.3407 83.7806C79.2321 83.9025 79.1506 84.0515 79.2592 84.1801C79.3746 84.3223 79.6326 84.3359 79.8159 84.3359H80.0467H80.0535L80.0467 84.3291Z" fill="white"/>
</g>
<path d="M96.1974 62.6746H94.7513C94.6876 62.6746 94.6359 62.7262 94.6359 62.7897V63.1554C94.6359 63.219 94.6876 63.2705 94.7513 63.2705H96.1974C96.2611 63.2705 96.3128 63.219 96.3128 63.1554V62.7897C96.3128 62.7262 96.2611 62.6746 96.1974 62.6746Z" fill="#DDB16B"/>
<path d="M96.1905 63.2773C96.2516 63.2773 96.306 63.3315 96.306 63.3924V63.6091C96.306 63.758 96.3399 63.9138 96.3874 64.056C96.5775 64.6112 96.9916 66.2092 96.5503 68.4979C96.4485 69.0464 96.6386 69.6084 97.0731 69.9402C97.6433 70.3668 98.0846 70.983 98.0846 71.6939V83.2525C98.0846 83.5098 97.8742 83.7197 97.6162 83.7197H93.3257C93.0677 83.7197 92.8572 83.5098 92.8572 83.2525V71.6939C92.8572 70.983 93.2985 70.3668 93.8688 69.9402C94.3033 69.6084 94.5001 69.0396 94.3915 68.4979C93.9502 66.2092 94.3644 64.6112 94.5544 64.056C94.602 63.9138 94.6359 63.758 94.6359 63.6091V63.3924C94.6359 63.3247 94.6902 63.2773 94.7513 63.2773H96.1837H96.1905Z" fill="#284F07"/>
<path opacity="0.3" d="M94.1267 70.4006C94.1267 70.4006 94.1471 70.3193 94.1063 70.3193H94.0181C93.9366 70.3193 93.8619 70.3464 93.8076 70.4006C93.346 70.8204 93.1423 71.3757 93.1423 72.0121V82.8665C93.1423 83.1238 93.3528 83.3337 93.6108 83.3337H94.1946C93.9366 83.3337 93.7262 83.1238 93.7262 82.8665V72.0121C93.7262 71.3757 93.699 70.8204 94.1267 70.4006Z" fill="white"/>
<g opacity="0.3">
<path d="M94.8328 68.4911C94.7785 68.5115 94.7106 68.4911 94.697 68.437C94.2422 66.7848 94.5816 64.9092 94.697 64.4013C94.7106 64.3336 94.7717 64.2862 94.8396 64.2997C94.9007 64.3133 94.9414 64.3742 94.9278 64.4352C94.8328 64.8956 94.4865 66.7509 94.921 68.3422C94.9346 68.4031 94.9074 68.4708 94.8396 68.4911H94.8328Z" fill="white"/>
</g>
<path d="M122.843 84.2681H64.9485V88.9471H122.843V84.2681Z" fill="#60402F"/>
<path d="M105.865 62.6881C107.562 65.0107 105.81 66.1212 104.249 63.6971C103.169 62.0178 102.62 61.0427 101.418 58.2259C103.821 60.1896 104.514 60.8464 105.858 62.6881H105.865Z" fill="#53861C"/>
<path d="M108.947 62.7085C107.256 65.0378 109.008 66.1415 110.562 63.7174C111.642 62.0313 112.185 61.0631 113.387 58.2394C110.983 60.2031 110.291 60.8599 108.953 62.7085H108.947Z" fill="#53861C"/>
<path d="M106.971 63.2366C107.718 66.0128 105.878 66.5071 105.131 63.7309C104.385 60.9547 103.753 58.6389 103.746 54.9486C105.22 57.867 106.218 60.4604 106.971 63.2366Z" fill="#53861C"/>
<path d="M108.451 63.0335C108.478 65.9113 106.571 65.9248 106.543 63.0538C106.516 60.176 106.496 57.779 107.419 54.2038C108.105 57.3931 108.424 60.1557 108.451 63.0335Z" fill="#53861C"/>
<path d="M107.752 63.108C107.059 65.8977 108.906 66.3582 109.598 63.5684C110.291 60.7787 110.868 58.4494 110.807 54.759C109.395 57.7045 108.444 60.3182 107.752 63.108Z" fill="#53861C"/>
<path d="M108.451 63.0335C108.424 60.1557 108.105 57.3931 107.419 54.2038V65.1868C107.928 65.2883 108.465 64.5706 108.451 63.0335Z" fill="#3E630F"/>
<path d="M109.598 63.5616C110.291 60.7719 110.868 58.4426 110.807 54.7523L107.962 65.3289C108.424 65.6946 109.198 65.1597 109.598 63.5616Z" fill="#3E630F"/>
<path d="M108.322 64.7195C108.58 65.356 109.612 65.2003 110.562 63.7106C111.642 62.0246 112.185 61.0563 113.387 58.2327L108.322 64.7127V64.7195Z" fill="#3E630F"/>
<path d="M106.971 63.2366C106.224 60.4604 105.22 57.867 103.746 54.9486L106.537 65.5795C107.039 65.5321 107.365 64.6992 106.971 63.2366Z" fill="#3E630F"/>
<path d="M106.503 63.9544L105.654 62.4105C104.439 60.7719 103.699 60.088 101.418 58.2259L106.279 64.9701C106.523 64.8143 106.625 64.4554 106.503 63.9544Z" fill="#3E630F"/>
<path d="M106.041 66.0128C107.555 68.4573 105.722 69.4256 104.357 66.8931C103.407 65.1326 102.939 64.1237 101.961 61.2188C104.208 63.3585 104.846 64.0695 106.048 66.0061L106.041 66.0128Z" fill="#6EA029"/>
<path d="M108.797 66.0128C107.283 68.4573 109.116 69.4256 110.481 66.8931C111.431 65.1326 111.9 64.1237 112.877 61.2188C110.63 63.3585 109.992 64.0695 108.791 66.0061L108.797 66.0128Z" fill="#6EA029"/>
<path d="M107.093 66.6155C107.691 69.4256 105.831 69.8251 105.226 67.0082C104.629 64.1982 104.127 61.8485 104.317 58.165C105.627 61.1579 106.489 63.7987 107.087 66.6155H107.093Z" fill="#6EA029"/>
<path d="M108.451 66.3785C108.478 69.2562 106.571 69.2698 106.543 66.3988C106.516 63.5278 106.496 61.124 107.419 57.5488C108.105 60.738 108.424 63.5007 108.451 66.3785Z" fill="#6EA029"/>
<path d="M107.67 66.4665C107.073 69.2766 108.933 69.6761 109.537 66.8592C110.135 64.0492 110.637 61.6995 110.447 58.016C109.137 61.0089 108.275 63.6564 107.67 66.4665Z" fill="#6EA029"/>
<path d="M108.451 66.3785C108.424 63.5075 108.105 60.738 107.419 57.5488V68.5317C107.928 68.6333 108.465 67.9155 108.451 66.3785Z" fill="#567F16"/>
<path d="M109.537 66.8592C110.135 64.0492 110.637 61.6995 110.447 58.016L107.962 68.6807C108.438 69.0328 109.198 68.4776 109.537 66.8592Z" fill="#567F16"/>
<path d="M108.322 68.0713C108.628 68.6874 109.646 68.4504 110.481 66.8998C111.431 65.1393 111.9 64.1304 112.877 61.2255L108.322 68.0713Z" fill="#567F16"/>
<path d="M107.093 66.6155C106.496 63.8054 105.634 61.1579 104.324 58.165L106.537 68.9313C107.046 68.9042 107.412 68.0984 107.093 66.6155Z" fill="#567F16"/>
<path d="M106.584 67.3196L105.858 65.7216C104.772 63.995 104.086 63.2569 101.954 61.2255L106.279 68.3218C106.53 68.1796 106.666 67.8343 106.577 67.3264L106.584 67.3196Z" fill="#567F16"/>
<path d="M112.871 75.3368C112.871 80.334 112.66 84.3832 107.419 84.3832C102.178 84.3832 101.968 80.334 101.968 75.3368C101.968 68.7349 104.412 67.2587 107.419 67.2587C110.427 67.2587 112.871 68.8906 112.871 75.3368Z" fill="#ED992B"/>
<mask id="mask0_1_51253" style="mask-type:luminance" maskUnits="userSpaceOnUse" x="101" y="67" width="12" height="18">
<path d="M112.871 75.3368C112.871 80.334 112.66 84.3832 107.419 84.3832C102.178 84.3832 101.968 80.334 101.968 75.3368C101.968 68.7349 104.412 67.2587 107.419 67.2587C110.427 67.2587 112.871 68.8906 112.871 75.3368Z" fill="white"/>
</mask>
<g mask="url(#mask0_1_51253)">
<path d="M102.389 83.117L103.122 81.5393L103.855 83.117H102.389Z" fill="#EAC52D"/>
<path d="M105.342 83.117L106.075 81.5393L106.808 83.117H105.342Z" fill="#EAC52D"/>
<path d="M108.295 83.117L109.028 81.5393L109.761 83.117H108.295Z" fill="#EAC52D"/>
<path d="M111.248 83.117L111.988 81.5393L112.714 83.117H111.248Z" fill="#EAC52D"/>
<path d="M103.869 81.0383L104.602 79.4606L105.335 81.0383H103.869Z" fill="#EAC52D"/>
<path d="M106.822 81.0383L107.555 79.4606L108.288 81.0383H106.822Z" fill="#EAC52D"/>
<path d="M109.775 81.0383L110.508 79.4606L111.241 81.0383H109.775Z" fill="#EAC52D"/>
<path d="M102.389 79.0814L103.122 77.5037L103.855 79.0814H102.389Z" fill="#EAC52D"/>
<path d="M105.342 79.0814L106.075 77.5037L106.808 79.0814H105.342Z" fill="#EAC52D"/>
<path d="M108.295 79.0814L109.028 77.5037L109.761 79.0814H108.295Z" fill="#EAC52D"/>
<path d="M111.248 79.0814L111.988 77.5037L112.714 79.0814H111.248Z" fill="#EAC52D"/>
<path d="M102.389 76.8333L103.122 75.2556L103.855 76.8333H102.389Z" fill="#EAC52D"/>
<path d="M105.342 76.8333L106.075 75.2556L106.808 76.8333H105.342Z" fill="#EAC52D"/>
<path d="M108.295 76.8333L109.028 75.2556L109.761 76.8333H108.295Z" fill="#EAC52D"/>
<path d="M111.248 76.8333L111.988 75.2556L112.714 76.8333H111.248Z" fill="#EAC52D"/>
<path d="M103.869 74.7545L104.602 73.1768L105.335 74.7545H103.869Z" fill="#EAC52D"/>
<path d="M106.822 74.7545L107.555 73.1768L108.288 74.7545H106.822Z" fill="#EAC52D"/>
<path d="M109.775 74.7545L110.508 73.1768L111.241 74.7545H109.775Z" fill="#EAC52D"/>
<path d="M102.389 72.7908L103.122 71.2199L103.855 72.7908H102.389Z" fill="#EAC52D"/>
<path d="M105.342 72.7908L106.075 71.2199L106.808 72.7908H105.342Z" fill="#EAC52D"/>
<path d="M108.295 72.7908L109.028 71.2199L109.761 72.7908H108.295Z" fill="#EAC52D"/>
<path d="M111.248 72.7908L111.988 71.2199L112.714 72.7908H111.248Z" fill="#EAC52D"/>
<path d="M102.389 70.5496L103.122 68.9719L103.855 70.5496H102.389Z" fill="#EAC52D"/>
<path d="M105.342 70.5496L106.075 68.9719L106.808 70.5496H105.342Z" fill="#EAC52D"/>
<path d="M108.295 70.5496L109.028 68.9719L109.761 70.5496H108.295Z" fill="#EAC52D"/>
<path d="M111.248 70.5496L111.988 68.9719L112.714 70.5496H111.248Z" fill="#EAC52D"/>
<path d="M103.869 68.4708L104.602 66.8931L105.335 68.4708H103.869Z" fill="#EAC52D"/>
<path d="M106.822 68.4708L107.555 66.8931L108.288 68.4708H106.822Z" fill="#EAC52D"/>
<path d="M109.775 68.4708L110.508 66.8931L111.241 68.4708H109.775Z" fill="#EAC52D"/>
</g>
<g style="mix-blend-mode:multiply" opacity="0.5">
<path d="M109.021 68.0239C110.162 69.5881 110.155 70.9897 110.155 75.5332C110.155 79.0137 110.413 81.8237 108.614 83.5301C112.212 82.5008 112.205 79.5486 112.205 75.3843C112.205 71.22 111.16 69.2901 109.021 68.0172V68.0239Z" fill="#BA6B0D"/>
</g>
<g style="mix-blend-mode:overlay" opacity="0.6">
<path d="M106.367 73.1226C106.367 75.1608 105.736 76.8062 104.962 76.8062C104.188 76.8062 103.556 75.154 103.556 73.1226C103.556 71.0913 104.188 69.4323 104.962 69.4323C105.736 69.4323 106.367 71.0845 106.367 73.1226Z" fill="#FFB25F"/>
</g>
<path d="M91.323 84.9994C91.6285 84.9994 91.934 84.8843 92.1376 84.6473C93.8077 82.7649 93.6108 80.6862 93.6108 80.6862C93.5293 79.5351 92.769 78.6616 92.1105 78.1199C91.513 77.6256 90.8953 77.138 90.4336 76.5219C89.9788 75.9124 89.7276 75.1676 89.7276 74.4092V71.8971C89.7276 71.8294 89.6733 71.7752 89.6054 71.7752H88.5939C88.526 71.7752 88.4717 71.8294 88.4717 71.8971V74.4092C88.4717 75.1676 88.2205 75.9124 87.7656 76.5219C87.304 77.1448 86.6862 77.6256 86.0888 78.1199C85.4303 78.6616 84.6699 79.5351 84.5885 80.6862C84.5885 80.6862 84.3916 82.7649 86.0616 84.6473C86.2653 84.8776 86.5708 84.9994 86.8763 84.9994H91.3026H91.323Z" fill="#A03743"/>
<path d="M89.5851 71.2132C89.5851 71.1455 89.5307 71.0913 89.4629 71.0913H88.7365C88.6686 71.0913 88.6143 71.1455 88.6143 71.2132V71.7684H89.5783V71.2132H89.5851Z" fill="#DDB16B"/>
<g opacity="0.33">
<path d="M86.9985 84.4645C85.4303 82.6972 85.6136 80.7471 85.6136 80.7471C85.6883 79.6637 86.3196 78.8444 86.8967 78.2959C87.2022 78.0048 87.3583 77.8152 87.6231 77.5511C87.6502 77.5172 87.6299 77.4698 87.5891 77.4698H87.4262C87.3447 77.4698 87.2701 77.5037 87.2157 77.5511C86.9238 77.822 86.6047 78.0793 86.2993 78.3366C85.6815 78.8512 84.9686 79.6637 84.894 80.7539C84.894 80.7539 84.7107 82.704 86.2789 84.4713C86.469 84.688 86.7541 84.7963 87.046 84.7963H87.7656C87.4737 84.7963 87.1886 84.688 86.9985 84.4713V84.4645Z" fill="white"/>
</g>
<g opacity="0.33">
<path d="M88.7093 72.1476C88.7093 72.0799 88.8179 72.0799 88.8247 72.1476C88.8383 72.3169 88.8519 72.4862 88.8586 72.6555C88.879 72.9805 88.8858 73.3123 88.8858 73.6373C88.8858 73.9623 88.879 74.2874 88.8586 74.6191C88.8519 74.7884 88.8383 74.9577 88.8247 75.127C88.8247 75.1947 88.7161 75.1947 88.7093 75.127C88.6957 74.9577 88.6821 74.7884 88.6753 74.6191C88.655 74.2874 88.6482 73.9623 88.6482 73.6373C88.6482 73.3123 88.6482 72.9805 88.6753 72.6555C88.6821 72.4862 88.6957 72.3169 88.7093 72.1476Z" fill="white"/>
</g>
<path d="M73.0204 75.9192C73 75.7431 73.3055 75.3842 73.3395 75.303H73.3598C73.3259 75.391 73.0611 75.7702 73.0747 75.9124H73.0204V75.9192Z" fill="#10A028"/>
<path d="M75.3082 79.7788C74.9552 79.4538 74.7108 78.9121 74.6022 78.4516C74.3103 77.2396 73.6789 75.4926 73.0408 75.9463C72.4433 75.54 71.7102 77.2057 71.4386 78.4245C71.33 78.9053 71.1195 79.4538 70.7597 79.7923C70.1148 80.395 69.7075 81.2617 69.7075 82.2164C69.7075 84.0515 71.0041 85.9542 73.0408 85.5344C74.9145 85.9745 76.3741 84.0447 76.3741 82.2164C76.3741 80.9976 75.9667 80.3882 75.315 79.7856L75.3082 79.7788Z" fill="#D4E533"/>
<path d="M74.9688 79.9887C74.6362 79.6772 74.4189 79.2642 74.3374 78.8105C74.1813 77.9302 74.0455 76.6979 73.3327 76.5557C73.6654 77.0838 73.6857 77.8625 73.6314 78.5803C73.5907 79.0949 73.6382 79.6095 73.9709 79.9684C75.2947 81.4106 75.1996 83.6858 74.1202 84.9723C75.7359 84.3494 76.6796 81.6138 74.9756 79.9819L74.9688 79.9887Z" fill="#B9C121"/>
<path d="M73.2376 76.0614C73.2376 76.1088 73.1494 76.1494 73.0407 76.1494C72.9321 76.1494 72.8439 76.1088 72.8439 76.0614C72.8439 76.014 72.9321 75.9733 73.0407 75.9733C73.1494 75.9733 73.2376 76.014 73.2376 76.0614Z" fill="#B9C121"/>
<path d="M73.0883 76.0681C73.0883 75.8989 73.0612 75.3707 73.0544 75.3436C73.0408 75.3165 73.0068 75.2894 72.9593 75.2962C72.905 75.303 72.8846 75.3368 72.8846 75.3639C72.8846 75.391 72.905 75.4046 72.9186 75.4249C72.9322 75.4384 73.0001 75.8989 73.0204 76.0681C73.0204 76.0681 73.034 76.0817 73.0544 76.0817C73.0747 76.0817 73.0951 76.0681 73.0951 76.0681H73.0883Z" fill="#5B4F2F"/>
<path d="M73.2852 75.4316C73.6178 75.1405 75.2064 73.2784 76.0821 73.319C75.2064 73.1971 74.8602 73.319 74.8602 73.319C74.8602 73.319 73.6382 74.3279 73.6382 74.3753C73.6382 74.4227 73.2852 75.1269 73.2852 75.1269V75.4384V75.4316Z" fill="#0A7014"/>
<path d="M73.2852 75.4316C73.2308 74.7071 73.2037 72.8315 76.0821 73.319C74.5003 73.0888 73.2852 75.4316 73.2852 75.4316Z" fill="#10A028"/>
<path d="M72.7488 75.6687C72.0496 75.9666 70.9634 75.5332 71.1059 74.2196C71.6694 74.89 72.7488 74.3212 72.7488 75.6687Z" fill="#10A028"/>
<path d="M73.0068 76.0275C72.9932 75.8515 72.7081 75.6687 72.6741 75.6484L72.7013 75.601C72.7556 75.6348 72.9864 75.777 72.9864 75.8989L73 76.0275H73.0068Z" fill="#10A028"/>
<path d="M71.3843 81.7018C71.235 82.4535 71.0992 83.0561 70.8344 83.0019C70.5697 82.9478 70.3049 82.2639 70.4542 81.5122C70.6036 80.7606 71.1128 80.2325 71.3775 80.2867C71.6423 80.3408 71.5337 80.9502 71.3775 81.7018H71.3843Z" fill="#E9F246"/>
<path d="M72.3279 77.9303C72.3279 78.6886 72.4433 79.1356 72.3143 79.1356C72.1853 79.1356 71.9274 78.6819 71.9274 77.9303C71.9274 77.1787 72.518 76.5015 72.6266 76.5625C72.7352 76.6234 72.3279 77.1719 72.3279 77.9303Z" fill="#E9F246"/>
<path d="M82.1921 82.9613C82.1921 84.7083 80.7732 86.1235 79.0217 86.1235C77.2702 86.1235 75.8513 84.7083 75.8513 82.9613C75.8513 81.2143 77.2702 79.7991 79.0217 79.7991C80.7732 79.7991 82.1921 81.2143 82.1921 82.9613Z" fill="#F18409"/>
<path d="M79.9246 80.9706C80.0468 81.519 79.4154 82.1284 78.5125 82.3248C77.6096 82.5212 76.7814 82.2436 76.6592 81.6883C76.537 81.1398 77.1683 80.5304 78.0712 80.3341C78.9742 80.1377 79.8024 80.4153 79.9246 80.9706Z" fill="#F38E0A"/>
<path d="M76.3672 83.3743C76.4351 83.3473 76.4623 83.178 76.503 83.3066C76.5438 83.4353 76.6252 83.3405 76.632 83.4353C76.6388 83.5301 76.5981 83.4962 76.6388 83.5775C76.6795 83.6655 76.7067 83.7129 76.632 83.7197C76.5505 83.7197 76.4827 83.7197 76.4894 83.8077C76.4962 83.8957 76.2111 83.8077 76.2654 83.7264C76.3197 83.6587 76.3129 83.5775 76.2518 83.5301C76.1907 83.4827 76.1772 83.415 76.2315 83.3879C76.2858 83.3608 76.2926 83.3879 76.3672 83.3608V83.3743Z" fill="#C8720E"/>
<path d="M76.5641 83.5233C76.5845 83.6181 76.5438 83.7061 76.4691 83.7129C76.3944 83.7197 76.3265 83.6655 76.3061 83.5775C76.2858 83.4962 76.3333 83.415 76.4012 83.3879C76.4691 83.3676 76.5438 83.4217 76.5641 83.5233Z" fill="#97AD38"/>
<g style="mix-blend-mode:multiply">
<path d="M81.9884 82.9546C81.9884 82.0066 81.5335 81.167 80.8207 80.6388C81.1805 81.1196 81.391 81.7154 81.391 82.3655C81.391 83.652 80.5491 84.7422 79.3815 85.1146C79.4562 83.8348 78.3564 82.6025 76.7678 82.2639L76.279 84.5661C76.8289 85.5005 77.8472 86.1235 79.0081 86.1235C79.0217 86.1235 79.0352 86.1235 79.0488 86.1235C79.1031 86.0355 79.1574 85.9407 79.1982 85.8459C80.746 85.7849 81.9748 84.5187 81.9748 82.9613L81.9884 82.9546Z" fill="#C9C9C9"/>
</g>
<path d="M77.6775 82.6904C78.723 83.6452 79.0217 85.4802 78.0645 86.523C77.1073 87.5657 75.2471 87.4168 74.2017 86.462L77.6775 82.6904Z" fill="#E2770C"/>
<path d="M78.0916 84.3629C77.8336 85.6224 76.6456 86.7193 75.4372 86.8209C74.2288 86.9225 73.4616 85.9813 73.7128 84.7218C73.9708 83.4624 75.1588 82.3654 76.3673 82.2639C77.5757 82.1623 78.3496 83.1035 78.0916 84.3629Z" fill="#F18409"/>
<path d="M77.9966 84.3697C77.7522 85.575 76.6117 86.6245 75.4576 86.7193C74.3035 86.8141 73.5635 85.9136 73.8079 84.7083C74.0523 83.503 75.1928 82.4535 76.3469 82.3587C77.501 82.2639 78.241 83.1644 77.9898 84.3697H77.9966Z" fill="#F9E8BD"/>
<path d="M77.7522 84.39C77.5349 85.4531 76.5302 86.3808 75.5119 86.462C74.4935 86.5433 73.8418 85.751 74.059 84.688C74.2763 83.6249 75.281 82.6972 76.2994 82.616C77.3177 82.5347 77.9694 83.3269 77.7522 84.39Z" fill="#F9DFA4"/>
<path d="M76.0142 84.5322C76.0007 84.5999 75.9396 84.6541 75.8785 84.6609C75.8174 84.6609 75.7766 84.6203 75.7902 84.5525C75.8038 84.4848 75.8649 84.4307 75.926 84.4239C75.9871 84.4239 76.0278 84.4645 76.0142 84.5322Z" fill="#E7D39F"/>
<path d="M75.1181 85.9204C75.0435 86.0558 74.8737 86.1032 74.7448 86.0152C74.7244 86.0016 74.704 85.9813 74.6837 85.9678C74.6633 85.9542 74.6429 85.9339 74.6226 85.9204C74.5071 85.8188 74.5275 85.6427 74.6497 85.5479L75.6273 84.7828C75.6748 84.7489 75.7427 84.8031 75.7088 84.8505L75.1181 85.9204Z" fill="#EF9B20"/>
<path d="M74.575 85.4057C74.4528 85.487 74.3103 85.4328 74.2831 85.2636C74.2831 85.2365 74.2763 85.2094 74.2695 85.1755C74.2695 85.1484 74.2695 85.1146 74.2695 85.0875C74.256 84.9115 74.3781 84.7557 74.5071 84.7354L75.5866 84.5932C75.6409 84.5932 75.6477 84.6812 75.6001 84.7151L74.5818 85.399L74.575 85.4057Z" fill="#EF9B20"/>
<path d="M74.5411 84.5593C74.4121 84.5593 74.3578 84.4171 74.4393 84.2411C74.4528 84.214 74.4664 84.1801 74.4868 84.153C74.5004 84.1192 74.5207 84.0921 74.5343 84.065C74.6293 83.889 74.7991 83.8077 74.8941 83.8687L75.668 84.4104C75.702 84.4374 75.6545 84.539 75.6069 84.539L74.5479 84.5729L74.5411 84.5593Z" fill="#EF9B20"/>
<path d="M75.0231 83.7061C74.9416 83.6316 74.9892 83.4488 75.1521 83.3269C75.1792 83.3066 75.2064 83.2863 75.2335 83.266C75.2607 83.2457 75.2879 83.2254 75.315 83.2051C75.4847 83.0899 75.6409 83.117 75.6612 83.2389L75.8242 84.2478C75.831 84.2952 75.7427 84.3629 75.7088 84.3291L75.0163 83.6994L75.0231 83.7061Z" fill="#EF9B20"/>
<path d="M75.8445 83.1712C75.8445 83.0426 75.9735 82.9004 76.1568 82.8801C76.184 82.8801 76.2179 82.8801 76.2451 82.8733C76.2722 82.8733 76.3062 82.8733 76.3333 82.8733C76.5098 82.8733 76.5913 82.9884 76.5302 83.1238L76.0278 84.2208C76.0007 84.2749 75.9056 84.2817 75.9056 84.2275L75.8445 83.178V83.1712Z" fill="#EF9B20"/>
<path d="M76.6863 83.1577C76.761 83.0291 76.9307 82.9749 77.0597 83.0629C77.0801 83.0765 77.1005 83.0968 77.1208 83.1103C77.1412 83.1239 77.1616 83.1442 77.1819 83.1645C77.2973 83.2661 77.277 83.4421 77.1548 83.5369L76.1772 84.3021C76.1297 84.3359 76.0618 84.2817 76.0957 84.2343L76.6863 83.1645V83.1577Z" fill="#EF9B20"/>
<path d="M77.2294 83.6723C77.3584 83.5911 77.4942 83.6452 77.5213 83.8145C77.5213 83.8416 77.5281 83.8687 77.5349 83.9026C77.5349 83.9296 77.5349 83.9635 77.5417 83.9906C77.5553 84.1666 77.4331 84.3224 77.3041 84.3427L76.2247 84.4849C76.1704 84.4849 76.1636 84.3968 76.2111 84.363L77.2294 83.6791V83.6723Z" fill="#EF9B20"/>
<path d="M77.2634 84.5187C77.3924 84.5187 77.4467 84.6609 77.3652 84.8369C77.3517 84.8708 77.3381 84.8979 77.3245 84.9317C77.3109 84.9588 77.2906 84.9927 77.277 85.0197C77.1819 85.1958 77.0122 85.2771 76.9172 85.2161L76.15 84.6812C76.1161 84.6541 76.1636 84.5525 76.2111 84.5525L77.2702 84.5187H77.2634Z" fill="#EF9B20"/>
<path d="M76.7814 85.3719C76.8628 85.4464 76.8153 85.6292 76.6524 85.7511C76.6252 85.7714 76.5981 85.7917 76.5709 85.812C76.5438 85.8323 76.5166 85.8527 76.4895 85.873C76.3197 85.9881 76.1636 85.961 76.1432 85.8391L75.9803 84.8302C75.9735 84.7828 76.0618 84.7151 76.0957 84.7489L76.7882 85.3787L76.7814 85.3719Z" fill="#EF9B20"/>
<path d="M75.96 85.9068C75.9667 86.0355 75.831 86.1777 75.6477 86.198C75.6205 86.198 75.5866 86.198 75.5594 86.2048C75.5323 86.2048 75.4983 86.2048 75.4712 86.2048C75.2947 86.2048 75.2132 86.0897 75.2743 85.9542L75.7767 84.8573C75.8038 84.8031 75.8989 84.7963 75.8989 84.8505L75.96 85.9001V85.9068Z" fill="#EF9B20"/>
<path d="M75.8989 84.5735L75.9057 84.5393L75.9126 84.5052L75.8989 84.5735Z" fill="#EF9B20"/>
<path d="M85.4914 50.3171H70.3591V64.0695H85.4914V50.3171Z" fill="#FF981D"/>
<path d="M71.6626 55.2872C71.6626 54.6101 71.7984 54.0819 72.0835 53.7027C72.3618 53.3235 72.6741 53.073 73.0204 52.9511C73.3666 52.8225 73.6857 52.7615 73.9844 52.7615C74.575 52.7615 75.1113 52.9579 75.5933 53.3574C76.0753 53.7501 76.3129 54.3934 76.3129 55.2872C76.3129 55.6596 76.245 56.0388 76.1025 56.4248C75.9599 56.8107 75.7155 57.1358 75.3693 57.4066C75.0231 57.6775 74.5614 57.8129 73.9844 57.8129C73.7264 57.8129 73.4548 57.7723 73.1901 57.691C72.9253 57.6097 72.6741 57.4743 72.4433 57.278C72.2125 57.0816 72.0224 56.8175 71.8798 56.4857C71.7373 56.1539 71.6626 55.7612 71.6626 55.2872ZM72.9932 55.2872C72.9932 55.8154 73.095 56.2013 73.3055 56.4451C73.5092 56.6889 73.74 56.8107 73.9844 56.8107C74.2288 56.8107 74.4596 56.6889 74.6633 56.4451C74.8669 56.2013 74.9687 55.8154 74.9687 55.2872C74.9687 54.8945 74.9144 54.583 74.799 54.3595C74.6904 54.1361 74.5614 53.9736 74.4053 53.8856C74.2559 53.7975 74.1134 53.7569 73.9776 53.7569C73.8418 53.7569 73.6925 53.7975 73.5431 53.8856C73.3937 53.9736 73.2648 54.1293 73.1493 54.3595C73.0407 54.583 72.9864 54.8945 72.9864 55.2872H72.9932ZM73.5499 61.7673L79.1982 52.924H81.228L75.573 61.7673H73.5431H73.5499ZM78.6483 59.4041C78.6483 58.5171 78.8927 57.8738 79.3747 57.4743C79.8567 57.0748 80.393 56.8785 80.9836 56.8785C81.5743 56.8785 82.1038 57.0748 82.5858 57.4743C83.0678 57.8738 83.3122 58.5171 83.3122 59.4041C83.3122 60.0271 83.19 60.5214 82.9456 60.9006C82.7012 61.2798 82.4025 61.5438 82.0427 61.6996C81.6897 61.8553 81.3299 61.9298 80.9836 61.9298C80.6374 61.9298 80.2776 61.8553 79.9246 61.6996C79.5648 61.5438 79.2661 61.2798 79.0217 60.9006C78.7773 60.5214 78.6551 60.0203 78.6551 59.4041H78.6483ZM79.9925 59.4041C79.9925 59.912 80.0943 60.2979 80.2912 60.5485C80.488 60.8058 80.7189 60.9344 80.9836 60.9344C81.1194 60.9344 81.262 60.8938 81.4113 60.8058C81.5607 60.7178 81.6965 60.562 81.8051 60.3386C81.9137 60.1083 81.968 59.8036 81.968 59.4109C81.968 58.8692 81.8662 58.4832 81.6625 58.2395C81.4521 58.0025 81.2348 57.8806 80.9836 57.8806C80.7053 57.8806 80.4745 58.016 80.2776 58.2801C80.0875 58.5442 79.9857 58.9234 79.9857 59.4109L79.9925 59.4041Z" fill="#F5F5F5"/>
<path d="M102.959 84.9588C103.285 84.9588 103.543 84.6947 103.543 84.3697V71.721C103.543 70.8204 103.366 69.9266 103.027 69.0938L102.151 66.9541C101.757 65.9993 101.56 64.9769 101.56 63.9476V59.6208C101.56 59.5666 101.52 59.526 101.465 59.526H99.7071C99.6528 59.526 99.6121 59.5666 99.6121 59.6208V63.9476C99.6121 64.9769 99.4084 65.9993 99.0215 66.9541L98.1457 69.0938C97.8063 69.9266 97.623 70.8204 97.623 71.721V84.3697C97.623 84.6947 97.8877 84.9588 98.2136 84.9588H102.973H102.959Z" fill="#AF6E0E"/>
<path d="M103.543 72.9466H97.6094V80.2798H103.543V72.9466Z" fill="#F5F5F5"/>
<path d="M103.543 73.6576H97.6094V79.5418H103.543V73.6576Z" fill="#C90505"/>
<path d="M101.635 59.438C101.615 59.4921 101.56 59.526 101.499 59.526H99.6664C99.6053 59.526 99.551 59.4921 99.5306 59.438L99.3338 58.9708C99.2591 58.8015 99.3881 58.6119 99.5714 58.6119H101.601C101.785 58.6119 101.913 58.8015 101.839 58.9708L101.642 59.438H101.635Z" fill="#DDB16B"/>
<g opacity="0.33">
<path d="M98.8857 84.0379L98.8042 71.3757C98.8042 70.8001 98.8178 69.8995 99.1436 68.7552L99.4899 67.6853C99.517 67.5973 99.4491 67.4957 99.3541 67.4957H99.3066C99.1844 67.4957 99.0825 67.5702 99.035 67.6718L98.553 68.762C98.2136 69.5948 97.9149 70.4818 97.9149 71.3892V84.0379C97.9149 84.3629 98.1796 84.627 98.4987 84.627H99.4763C99.1504 84.627 98.8857 84.3629 98.8857 84.0379Z" fill="white"/>
</g>
<g opacity="0.33">
<path d="M99.8836 60.4266C99.8904 60.3318 100.033 60.3318 100.047 60.4266C100.081 60.711 100.101 60.9954 100.114 61.2797C100.148 61.7605 100.155 62.2413 100.155 62.7153C100.155 63.196 100.142 63.6768 100.114 64.1575C100.101 64.4419 100.074 64.7263 100.047 65.0107C100.033 65.1055 99.8972 65.1055 99.8836 65.0107C99.8497 64.7263 99.8293 64.4419 99.8158 64.1575C99.7886 63.6768 99.775 63.196 99.775 62.7153C99.775 62.2345 99.7886 61.7537 99.8158 61.2797C99.8361 60.9954 99.8565 60.711 99.8836 60.4266Z" fill="white"/>
</g>
<path d="M102.864 75.2488H97.623V76.3052H102.864V75.2488Z" fill="#DDB16B"/>
<path d="M98.0371 80.9638L97.9421 80.5778C100.569 80.0768 100.821 77.8084 100.861 77.5511L101.594 77.6865C101.357 79.0475 100.128 80.5711 98.0371 80.9638Z" fill="#6F0000"/>
<path d="M96.2449 79.3455C95.4438 79.6773 94.5273 79.2981 94.1946 78.4991C93.862 77.7001 94.2422 76.7859 95.0432 76.4541C95.8443 76.1224 96.7608 76.5015 97.0935 77.2938C97.4261 78.0928 97.0459 79.0069 96.2449 79.3387V79.3455Z" fill="#A5D013"/>
<path d="M97.2021 77.7407C97.0392 78.0521 96.7676 78.3027 96.4214 78.4516C95.6203 78.7834 94.7038 78.4042 94.3712 77.612C94.3101 77.4698 94.2762 77.3141 94.2626 77.1719C94.0521 77.5714 94.0114 78.0589 94.2015 78.5058C94.5341 79.3048 95.4506 79.684 96.2517 79.3522C96.9034 79.0814 97.2768 78.4178 97.2089 77.7474L97.2021 77.7407Z" fill="#8DB002"/>
<path d="M97.0052 81.0518C97.7655 79.7517 96.4214 78.2485 95.05 78.8173C94.6359 78.9934 94.31 79.3319 94.1607 79.7788C93.7398 81.0586 95.0297 82.2165 96.2516 81.7086C96.5775 81.5732 96.8491 81.3294 97.0052 81.0586V81.0518Z" fill="#829B03"/>
<path d="M93.6176 84.2275C94.3848 82.9275 93.0406 81.4243 91.6624 81.993C91.2483 82.1623 90.9225 82.5077 90.7731 82.9546C90.3522 84.2343 91.6421 85.3922 92.8641 84.8844C93.1899 84.7489 93.4615 84.5052 93.6176 84.2343V84.2275Z" fill="#829B03"/>
<path d="M93.5294 82.7582C94.2897 81.4581 92.9523 79.9549 91.5742 80.5237C91.1601 80.693 90.8342 81.0383 90.6849 81.4852C90.264 82.765 91.5538 83.9228 92.7758 83.415C93.1017 83.2796 93.3732 83.0358 93.5294 82.765V82.7582Z" fill="#829B03"/>
<path d="M95.9869 84.7489C96.754 83.4488 95.4098 81.9456 94.0317 82.5144C93.6176 82.6837 93.2917 83.029 93.1424 83.4759C92.7215 84.7557 94.0113 85.9136 95.2333 85.4057C95.5592 85.2703 95.8307 85.0265 95.9869 84.7557V84.7489Z" fill="#829B03"/>
<path d="M99.5782 84.1531C100.311 82.9004 99.0215 81.4581 97.7045 82.0066C97.3039 82.1691 96.9917 82.5009 96.8491 82.9275C96.4486 84.1598 97.6841 85.2635 98.8586 84.776C99.1709 84.6474 99.4288 84.4104 99.5782 84.1463V84.1531Z" fill="#829B03"/>
<path d="M99.1165 81.8643C99.7682 80.7539 98.6209 79.4673 97.4465 79.9549C97.0934 80.1038 96.8151 80.395 96.6861 80.7742C96.3263 81.8711 97.4261 82.8597 98.4716 82.4264C98.7499 82.3112 98.9807 82.1013 99.1165 81.8643Z" fill="#829B03"/>
<path d="M94.4053 82.7379C93.6043 83.0697 92.6878 82.6905 92.3551 81.8915C92.0225 81.0925 92.4026 80.1784 93.2037 79.8466C94.0048 79.5148 94.9213 79.894 95.2539 80.693C95.5866 81.492 95.2064 82.4061 94.4053 82.7379Z" fill="#829B03"/>
<path d="M95.3624 81.1399C95.1994 81.4514 94.9279 81.7019 94.5816 81.8509C93.7806 82.1827 92.8641 81.8035 92.5314 81.0045C92.4703 80.8623 92.4364 80.7133 92.416 80.5643C92.2056 80.9638 92.1648 81.4514 92.3549 81.8983C92.6876 82.6973 93.6041 83.0765 94.4051 82.7447C95.0569 82.4738 95.4302 81.8102 95.3624 81.1399Z" fill="#829B03"/>
<path d="M98.5192 81.2278C97.7181 81.5596 96.8016 81.1804 96.4689 80.3814C96.1363 79.5824 96.5165 78.6683 97.3175 78.3365C98.1186 78.0047 99.0351 78.3839 99.3678 79.1762C99.7004 79.9752 99.3202 80.8893 98.5192 81.2211V81.2278Z" fill="#B8DF20"/>
<path d="M99.4764 79.623C99.3134 79.9345 99.0419 80.1851 98.6956 80.334C97.8946 80.6658 96.9781 80.2866 96.6454 79.4944C96.5843 79.3522 96.5504 79.1965 96.5368 79.0543C96.3263 79.4538 96.2856 79.9413 96.4757 80.3882C96.8084 81.1872 97.7248 81.5664 98.5259 81.2346C99.1776 80.9638 99.551 80.3002 99.4831 79.6298L99.4764 79.623Z" fill="#9FB202"/>
<path d="M97.528 86.1505C96.7269 86.4823 95.8104 86.1031 95.4777 85.3041C95.1451 84.5051 95.5253 83.591 96.3263 83.2592C97.1274 82.9274 98.0439 83.3066 98.3766 84.1056C98.7092 84.9046 98.329 85.8188 97.528 86.1505Z" fill="#99C10E"/>
<path d="M98.4852 84.5458C98.3223 84.8572 98.0507 85.1078 97.7045 85.2568C96.9034 85.5885 95.9869 85.2094 95.6543 84.4103C95.5932 84.2682 95.5592 84.1192 95.5457 83.9702C95.3352 84.3697 95.2945 84.8572 95.4845 85.3042C95.8172 86.1032 96.7337 86.4823 97.5348 86.1506C98.1865 85.8797 98.5599 85.2161 98.492 84.5458H98.4852Z" fill="#829B03"/>
<path d="M90.3047 85.6292C89.5036 85.961 88.5871 85.5818 88.2545 84.7828C87.9218 83.9838 88.302 83.0696 89.1031 82.7379C89.9041 82.4061 90.8206 82.7853 91.1533 83.5843C91.4859 84.3833 91.1058 85.2974 90.3047 85.6292Z" fill="#99C10E"/>
<path d="M91.2687 84.0244C91.1058 84.3291 90.8342 84.5864 90.488 84.7354C89.6869 85.0672 88.7704 84.688 88.4378 83.889C88.3767 83.7468 88.3427 83.591 88.3292 83.4489C88.1187 83.8484 88.078 84.3359 88.2681 84.7828C88.6007 85.5818 89.5172 85.961 90.3183 85.6292C90.97 85.3583 91.3434 84.6948 91.2755 84.0244H91.2687Z" fill="#829B03"/>
<path d="M93.6652 86.6245C92.8641 86.9563 91.9476 86.5771 91.6149 85.7781C91.2823 84.9791 91.6625 84.065 92.4635 83.7332C93.2646 83.4014 94.1811 83.7806 94.5138 84.5796C94.8464 85.3786 94.4662 86.2927 93.6652 86.6245Z" fill="#829B03"/>
<path d="M94.6224 85.0265C94.4595 85.338 94.1879 85.5886 93.8417 85.7375C93.0406 86.0693 92.1241 85.6901 91.7915 84.8911C91.7304 84.7489 91.6964 84.6 91.6829 84.451C91.4724 84.8505 91.4317 85.338 91.6218 85.7849C91.9544 86.5839 92.8709 86.9631 93.672 86.6313C94.3237 86.3605 94.6971 85.6969 94.6292 85.0265H94.6224Z" fill="#829B03"/>
<path d="M91.1942 83.6858C90.3931 84.0176 89.4766 83.6384 89.144 82.8394C88.8113 82.0404 89.1915 81.1263 89.9926 80.7945C90.7937 80.4627 91.7102 80.8419 92.0428 81.6409C92.3755 82.4399 91.9953 83.354 91.1942 83.6858Z" fill="#B8DF20"/>
<path d="M92.1512 82.081C91.9883 82.3925 91.7167 82.6498 91.3705 82.792C90.5694 83.1238 89.653 82.7446 89.3203 81.9456C89.2592 81.8034 89.2253 81.6545 89.2049 81.5055C88.9944 81.905 88.9537 82.3925 89.1438 82.8394C89.4764 83.6384 90.3929 84.0176 91.194 83.6858C91.8457 83.415 92.2191 82.7514 92.1512 82.081Z" fill="#9FB202"/>
<path d="M96.7676 83.4556C95.9665 83.7874 95.0501 83.4082 94.7174 82.6092C94.3848 81.8102 94.7649 80.8961 95.566 80.5643C96.3671 80.2325 97.2836 80.6117 97.6162 81.4107C97.9489 82.2097 97.5687 83.1238 96.7676 83.4556Z" fill="#A5D013"/>
<path d="M97.7248 81.8508C97.5619 82.1623 97.2903 82.4128 96.9441 82.5618C96.143 82.8936 95.2265 82.5144 94.8939 81.7154C94.8328 81.5732 94.7989 81.4242 94.7853 81.2753C94.5748 81.6748 94.5341 82.1623 94.7242 82.6092C95.0568 83.4082 95.9733 83.7806 96.7744 83.4556C97.4261 83.1848 97.7995 82.5212 97.7316 81.8508H97.7248Z" fill="#829B03"/>
<path d="M96.7676 83.4556C95.9665 83.7874 95.0501 83.4082 94.7174 82.6092C94.3848 81.8102 94.7649 80.8961 95.566 80.5643C96.3671 80.2325 97.2836 80.6117 97.6162 81.4107C97.9489 82.2097 97.5687 83.1238 96.7676 83.4556Z" fill="#A5D013"/>
<path d="M97.7248 81.8508C97.5619 82.1623 97.2903 82.4128 96.9441 82.5618C96.143 82.8936 95.2265 82.5144 94.8939 81.7154C94.8328 81.5732 94.7989 81.4242 94.7853 81.2753C94.5748 81.6748 94.5341 82.1623 94.7242 82.6092C95.0568 83.4082 95.9733 83.7806 96.7744 83.4556C97.4261 83.1848 97.7995 82.5212 97.7316 81.8508H97.7248Z" fill="#8DB002"/>
<path d="M94.1134 80.6591C93.4277 80.9435 92.6402 80.6184 92.3551 79.9345C92.0699 79.2507 92.3958 78.4652 93.0815 78.1808C93.7671 77.8964 94.5546 78.2214 94.8398 78.9053C95.1249 79.5892 94.799 80.3747 94.1134 80.6591Z" fill="#B8DF20"/>
<path d="M94.9346 79.2845C94.7921 79.5486 94.5613 79.7653 94.2626 79.8939C93.5769 80.1783 92.7894 79.8533 92.5043 79.1694C92.4499 79.0475 92.4228 78.9189 92.4092 78.7902C92.2259 79.1288 92.192 79.5486 92.3549 79.9346C92.64 80.6185 93.4275 80.9435 94.1132 80.6591C94.6767 80.4289 94.989 79.8601 94.9346 79.2845Z" fill="#9FB202"/>
<path d="M94.2967 84.6676C93.4956 84.9994 92.5791 84.6202 92.2465 83.828C91.9138 83.029 92.294 82.1149 93.0951 81.7831C93.8961 81.4513 94.8126 81.8305 95.1453 82.6295C95.4779 83.4285 95.0978 84.3426 94.2967 84.6744V84.6676Z" fill="#B8DF20"/>
<path d="M95.2537 83.0696C95.0908 83.3811 94.8192 83.6316 94.473 83.7806C93.6719 84.1124 92.7554 83.7332 92.4228 82.9342C92.3617 82.792 92.3277 82.6363 92.3074 82.4941C92.0969 82.8936 92.0562 83.3811 92.2463 83.828C92.5789 84.627 93.4954 84.9994 94.2965 84.6676C94.9482 84.3968 95.3216 83.7332 95.2537 83.0629V83.0696Z" fill="#9FB202"/>
<path d="M91.9 86.6449C91.2076 86.936 90.4065 86.6043 90.1146 85.9136C89.8227 85.2162 90.1553 84.4239 90.8478 84.1328C91.5402 83.8416 92.3413 84.1734 92.6332 84.864C92.9252 85.5615 92.5925 86.3537 91.8933 86.6449H91.9Z" fill="#A5D013"/>
<path d="M92.7351 85.25C92.5925 85.5209 92.3617 85.7443 92.0562 85.8662C91.3569 86.1574 90.5627 85.8256 90.2707 85.1281C90.2164 84.9995 90.1893 84.8708 90.1757 84.7422C89.9924 85.0875 89.9584 85.5141 90.1214 85.9068C90.4133 86.6043 91.2076 86.9293 91.9068 86.6381C92.4771 86.4011 92.803 85.8256 92.7419 85.2433L92.7351 85.25Z" fill="#8DB002"/>
<path d="M94.3304 82.8868C94.0928 82.9816 93.8213 82.8733 93.7194 82.6363C93.6176 82.3993 93.733 82.1284 93.9706 82.0269C94.2082 81.9321 94.4798 82.0404 94.5816 82.2774C94.6835 82.5144 94.568 82.7852 94.3304 82.8868Z" fill="#DEFF3F"/>
<path d="M90.9497 81.8847C90.712 81.9862 90.4405 81.8711 90.3387 81.6341C90.2436 81.3971 90.3522 81.1263 90.5898 81.0247C90.8275 80.9299 91.099 81.0383 91.2008 81.2753C91.3027 81.5123 91.1873 81.7831 90.9497 81.8779V81.8847Z" fill="#DEFF3F"/>
<path d="M98.5531 79.5554C98.3155 79.6502 98.0439 79.5418 97.9421 79.3048C97.8403 79.0678 97.9557 78.797 98.1933 78.6954C98.4309 78.5939 98.7024 78.709 98.8043 78.946C98.9061 79.1829 98.7907 79.4538 98.5531 79.5554Z" fill="#DEFF3F"/>
<path d="M94.025 79.0746C93.8213 79.1559 93.5905 79.0611 93.5022 78.858C93.414 78.6548 93.5158 78.4246 93.7195 78.3366C93.9231 78.2553 94.1539 78.3501 94.2422 78.5533C94.3237 78.7564 94.2286 78.9866 94.025 79.0746Z" fill="#DEFF3F"/>
<path d="M107.881 83.8483C105.593 83.7467 106.17 87.1865 103.441 85.6291C102.911 82.6972 106.082 81.9794 107.881 83.8483Z" fill="#26B326"/>
<path d="M103.937 85.8729C103.937 85.8729 104.88 86.3333 105.498 85.5682C106.116 84.8098 105.892 82.6972 107.888 83.8483C105.749 83.7535 106.109 86.7531 103.937 85.8729Z" fill="#198A19"/>
<path d="M104.419 84.2749C105.613 83.0019 105.668 80.2595 106.659 79.7314C104.296 80.9976 104.968 83.0831 104.419 84.2749Z" fill="#198A19"/>
<path d="M103.434 84.952C102.26 84.5051 101.561 80.1918 106.659 79.7314C103.753 81.5258 106.021 83.9228 103.434 84.952Z" fill="#36C636"/>
<path d="M97.9285 84.5593C97.9285 86.0422 99.4288 87.2407 101.275 87.2407C103.122 87.2407 104.622 86.0422 104.622 84.5593C104.622 83.0764 103.122 81.8779 101.275 81.8779C99.4288 81.8779 97.9285 83.0764 97.9285 84.5593Z" fill="#F7E821"/>
<path d="M103.468 84.5593C103.468 84.9926 103.821 85.3447 104.256 85.3447C104.69 85.3447 105.328 84.9926 105.328 84.5593C105.328 84.1259 104.697 83.7738 104.256 83.7738C103.814 83.7738 103.468 84.1259 103.468 84.5593Z" fill="#F7E821"/>
<path d="M99.069 84.5593C99.069 84.9926 98.716 85.3447 98.2815 85.3447C97.847 85.3447 97.2089 84.9926 97.2089 84.5593C97.2089 84.1259 97.8402 83.7738 98.2815 83.7738C98.7228 83.7738 99.069 84.1259 99.069 84.5593Z" fill="#F7E821"/>
<path d="M101.432 83.7738C101.432 84.3155 101.941 84.7624 102.565 84.7624C103.19 84.7624 103.706 84.3223 103.706 83.7738C103.706 83.2253 103.197 82.7852 102.565 82.7852C101.934 82.7852 101.432 83.2253 101.432 83.7738Z" fill="#F7EF83"/>
<path d="M105.111 84.6879C104.867 85.2229 104.439 85.0468 104.249 85.2838C104.052 85.5276 103.563 86.6177 102.572 86.7735C103.237 86.3943 103.631 85.3041 103.957 84.9723C104.283 84.6405 104.704 85.0062 105.111 84.6812V84.6879Z" fill="#E3BD00"/>
<path d="M100.305 82.2435C98.5938 82.2774 96.0955 86.4349 101.37 86.9969C99.2047 86.3334 98.553 83.5233 100.305 82.2435Z" fill="#E3BD00"/>
<path d="M97.3854 84.3968C97.9828 84.9385 98.7092 84.3968 98.7092 84.3968L98.5802 85.2771C98.5802 85.2771 97.3854 85.3177 97.3854 84.3968Z" fill="#E3BD00"/>
<path d="M119.714 76.6442C119.198 76.1093 118.404 75.9942 117.779 75.5947C116.496 74.7821 116.672 73.0758 116.672 73.0758V65.8712C116.672 65.8712 116.679 65.8238 116.706 65.8238C116.869 65.8238 116.991 65.6951 116.991 65.5326C116.991 65.3701 116.862 65.2415 116.706 65.2415H114.867C114.71 65.2415 114.581 65.3701 114.581 65.5326C114.581 65.6951 114.71 65.8238 114.867 65.8238C114.894 65.8238 114.901 65.8509 114.901 65.8712V73.0758C114.901 73.0758 115.077 74.7821 113.794 75.5947C113.163 75.9942 112.375 76.1093 111.852 76.6442C111.316 77.1995 110.915 78.3506 111.852 80.7002L113.292 84.6275C113.332 84.7426 113.441 84.8171 113.563 84.8171H117.996C118.118 84.8171 118.227 84.7426 118.268 84.6275L119.707 80.7002C120.644 78.3506 120.243 77.1995 119.707 76.6442H119.714Z" fill="#1F663F"/>
<path d="M116.672 66.2567V65.8639C116.672 65.8639 116.679 65.8165 116.706 65.8165C116.869 65.8165 116.991 65.6879 116.991 65.5254C116.991 65.3628 116.862 65.2342 116.706 65.2342H114.867C114.71 65.2342 114.581 65.3628 114.581 65.5254C114.581 65.6879 114.71 65.8165 114.867 65.8165C114.894 65.8165 114.9 65.8436 114.9 65.8639V66.2567H116.666H116.672Z" fill="#DDB16B"/>
<g opacity="0.33">
<path d="M114.5 84.3968L112.993 80.4357C112.144 78.3027 112.171 77.2938 112.653 76.786C112.979 76.4474 113.264 76.2713 113.658 76.0817C113.692 76.0614 113.685 76.0073 113.645 76.0073C113.543 76.0073 113.441 76.0276 113.346 76.0682C112.911 76.2578 112.457 76.4135 112.124 76.7521C111.635 77.2532 111.275 78.2959 112.124 80.4289L113.631 84.3901C113.665 84.4916 113.767 84.5593 113.875 84.5593H114.744C114.636 84.5593 114.541 84.4916 114.5 84.3901V84.3968Z" fill="white"/>
</g>
<g opacity="0.33">
<path d="M115.505 73.4409C115.505 73.5493 115.416 73.6373 115.301 73.6373C115.186 73.6373 115.097 73.5493 115.097 73.4409V66.8728C115.097 66.7645 115.186 66.6765 115.301 66.6765C115.416 66.6765 115.505 66.7645 115.505 66.8728V73.4409Z" fill="white"/>
</g>
<path opacity="0.15" d="M110.44 33.5109H64.9485V72.7841L110.44 33.5109Z" fill="#F5F5F5"/>
<path d="M69.6735 42.5031C69.6735 44.4262 68.1596 45.9835 66.2859 45.9835H66.1704C64.2967 45.9835 62.7828 44.4262 62.7828 42.5031V37.5466H69.6735V42.5031Z" fill="#1F590F"/>
<path d="M76.5641 42.5031C76.5641 44.4261 75.0502 45.9835 73.1765 45.9835H73.0611C71.1942 45.9835 69.6735 44.4261 69.6735 42.5031V30.1727H76.5641V42.5031Z" fill="#D3D9DD"/>
<path d="M83.4547 42.5031C83.4547 44.4262 81.9408 45.9835 80.0671 45.9835H79.9517C78.078 45.9835 76.5641 44.4262 76.5641 42.5031V37.5466H83.4547V42.5031Z" fill="#1F590F"/>
<path d="M90.3453 42.5031C90.3453 44.4262 88.8314 45.9835 86.9577 45.9835H86.8423C84.9686 45.9835 83.4547 44.4262 83.4547 42.5031V37.5466H90.3453V42.5031Z" fill="#D3D9DD"/>
<path d="M97.2428 42.5031C97.2428 44.4262 95.7289 45.9835 93.8552 45.9835H93.7398C91.8661 45.9835 90.3522 44.4262 90.3522 42.5031V37.5466H97.2428V42.5031Z" fill="#1F590F"/>
<path d="M104.133 42.5031C104.133 44.4262 102.62 45.9835 100.746 45.9835H100.63C98.7567 45.9835 97.2428 44.4262 97.2428 42.5031V37.5466H104.133V42.5031Z" fill="#D3D9DD"/>
<path d="M111.024 42.5031C111.024 44.4262 109.51 45.9835 107.636 45.9835H107.521C105.647 45.9835 104.133 44.4262 104.133 42.5031V37.5466H111.024V42.5031Z" fill="#1F590F"/>
<path d="M117.915 42.5031C117.915 44.4262 116.401 45.9835 114.527 45.9835H114.412C112.538 45.9835 111.024 44.4262 111.024 42.5031V37.5466H117.915V42.5031Z" fill="#D3D9DD"/>
<path d="M124.805 42.5031C124.805 44.4262 123.291 45.9835 121.418 45.9835H121.302C119.429 45.9835 117.915 44.4262 117.915 42.5031V37.5466H124.805V42.5031Z" fill="#1F590F"/>
<path d="M124.805 30.132H62.7828V38.0747H124.805V30.132Z" fill="#318415"/>
<path d="M76.5641 30.1727H69.6735V38.0815H76.5641V30.1727Z" fill="#F5F5F5"/>
<path d="M90.3454 30.1727H83.4548V38.0815H90.3454V30.1727Z" fill="#F5F5F5"/>
<path d="M104.133 30.1727H97.2428V38.0815H104.133V30.1727Z" fill="#F5F5F5"/>
<path d="M117.915 30.1727H111.024V38.0815H117.915V30.1727Z" fill="#F5F5F5"/>
<path d="M114.113 81.8102C113.923 81.8102 113.746 81.7221 113.624 81.5732C113.509 81.4242 113.482 81.2211 113.448 81.0315C113.4 80.8013 113.244 80.6184 113.034 80.5304C112.871 80.4627 112.701 80.4085 112.579 80.2866C112.457 80.1648 112.389 79.9955 112.389 79.8262V78.8173C112.389 78.6412 112.457 78.4787 112.579 78.3568C112.701 78.235 112.877 78.1808 113.04 78.1131C113.278 78.0115 113.441 77.788 113.461 77.524C113.475 77.3276 113.482 77.1177 113.59 76.9552C113.699 76.7927 113.889 76.6979 114.086 76.6979H117.44C117.636 76.6979 117.82 76.7927 117.935 76.9552C118.044 77.1177 118.051 77.3276 118.064 77.524C118.084 77.7948 118.261 78.0183 118.499 78.1131C118.662 78.174 118.824 78.235 118.947 78.3501C119.069 78.4719 119.137 78.6412 119.137 78.8105V79.8194C119.137 79.9887 119.069 80.158 118.947 80.2799C118.824 80.4017 118.648 80.4559 118.485 80.5236C118.275 80.6117 118.118 80.8013 118.071 81.0315C118.037 81.2211 118.01 81.4174 117.894 81.5664C117.779 81.7154 117.596 81.8034 117.406 81.8034H114.113V81.8102Z" fill="#DDB16B"/>
<path d="M117.711 77.7474C117.63 77.4157 117.419 77.0839 117.08 77.0839H114.446C114.106 77.0839 113.896 77.4157 113.814 77.7474C113.74 78.0318 113.556 78.2688 113.312 78.411C113.04 78.5668 112.776 78.797 112.776 79.1152V79.5418C112.776 79.8533 113.04 80.0903 113.312 80.246C113.516 80.3611 113.685 80.5507 113.774 80.7742C113.909 81.0992 114.14 81.431 114.493 81.431H117.039C117.392 81.431 117.63 81.106 117.759 80.781C117.847 80.5575 118.01 80.3679 118.213 80.246C118.485 80.0835 118.757 79.8533 118.757 79.5351V79.1085C118.757 78.797 118.492 78.56 118.22 78.4043C117.976 78.2621 117.786 78.0251 117.718 77.7407L117.711 77.7474Z" fill="#63440D"/>
<path d="M112.144 86.0761C112.144 86.3198 111.947 86.5162 111.703 86.5162C111.459 86.5162 111.262 86.3198 111.262 86.0761C111.262 85.8323 111.459 85.6359 111.703 85.6359C111.947 85.6359 112.144 85.8323 112.144 86.0761Z" fill="#822F0B"/>
<path d="M112.769 79.0881C112.599 79.0475 112.484 78.8985 112.484 78.7225V78.6819C112.484 78.6819 112.667 78.1469 113.156 78.0386C112.769 77.5849 112.008 77.9844 112.008 77.9844C112.008 77.9844 112.07 77.4021 111.676 76.8333C111.343 77.2464 111.357 77.9844 111.357 77.9844C111.357 77.9844 110.848 77.5104 110.155 77.8084C110.725 77.8964 110.915 78.6819 110.915 78.6819V78.7157C110.915 78.8918 110.793 79.0407 110.624 79.0814C109.008 79.4673 107.827 80.7877 107.827 83.1847C107.827 85.3177 109.558 86.2657 111.696 86.2657C113.835 86.2657 115.566 85.3177 115.566 83.1847C115.566 80.8216 114.385 79.4809 112.769 79.0881Z" fill="#D10202"/>
<path d="M113.957 80.2054C116.72 82.9884 114.364 86.7396 110.624 85.8187C112.769 85.7172 115.26 82.2774 113.957 80.2054Z" fill="#B20723"/>
<path d="M111.683 80.9232C111.75 81.1399 111.574 81.3836 111.289 81.4378C110.623 81.5597 109.945 81.5597 109.279 81.4378C108.994 81.3836 108.818 81.1399 108.886 80.9232C108.913 80.8419 108.933 80.7539 108.96 80.6726C109.028 80.456 109.259 80.3341 109.483 80.3747C110.013 80.4763 110.556 80.4763 111.085 80.3747C111.309 80.3341 111.54 80.456 111.608 80.6726C111.635 80.7539 111.655 80.8419 111.683 80.9232Z" fill="#F5425E"/>
<path d="M112.823 78.0115C112.823 78.0115 112.171 78.472 112.334 78.9595C112.456 79.3184 113.373 79.1559 113.672 79.8059C113.027 79.6028 111.744 79.6637 111.696 79.0204C111.628 78.0522 112.823 78.0048 112.823 78.0048V78.0115Z" fill="#B20723"/>
<path d="M117.175 78.5193H114.344V79.0881H117.175V78.5193Z" fill="#DDB16B"/>
<path d="M116.489 79.5079H115.043V80.0767H116.489V79.5079Z" fill="#DDB16B"/>
<g style="mix-blend-mode:multiply" opacity="0.29">
<path d="M36.5713 30.1118H30.1287V112.206H36.5713V30.1118Z" fill="#020000"/>
</g>
<path d="M117.025 18.4449H37.9087V1.46936C37.9087 0.656811 38.4246 0 39.0696 0H115.871C116.509 0 117.032 0.656811 117.032 1.46936V18.4449H117.025Z" fill="#EA2700"/>
<path d="M46.6255 10.9559C46.6255 11.9648 45.804 12.7841 44.7925 12.7841C43.781 12.7841 42.9595 11.9648 42.9595 10.9559C42.9595 9.94695 43.781 9.12762 44.7925 9.12762C45.804 9.12762 46.6255 9.94695 46.6255 10.9559Z" fill="#F5F5F5"/>
<path d="M112.47 10.9559C112.47 11.9648 111.649 12.7841 110.637 12.7841C109.626 12.7841 108.804 11.9648 108.804 10.9559C108.804 9.94695 109.626 9.12762 110.637 9.12762C111.649 9.12762 112.47 9.94695 112.47 10.9559Z" fill="#F5F5F5"/>
<path d="M51.9412 4.71954L53.7809 12.1341H53.8149L55.675 4.71954H58.1936V15.3098H56.2792V12.6825L56.4625 7.84786H56.4286L54.4462 15.3098H53.1631L51.208 7.90203H51.174L51.3573 12.6825V15.3098H49.4429V4.71954H51.9479H51.9412Z" fill="#F5F5F5"/>
<path d="M66.2587 13.2513H63.6722L63.2105 15.3098H61.2893L63.9437 4.71954H65.9939L68.6552 15.3098H66.7339L66.2655 13.2513H66.2587ZM64.0931 11.3621H65.8378L64.9824 7.57024H64.9485L64.0931 11.3621Z" fill="#F5F5F5"/>
<path d="M73.4481 11.2538V15.3098H71.5336V4.71954H74.6904C75.6409 4.71954 76.3944 5.00394 76.9511 5.57272C77.5078 6.1415 77.7861 6.91343 77.7861 7.90203C77.7861 8.4505 77.6707 8.91772 77.4467 9.31045C77.2226 9.70318 76.89 10.0214 76.4555 10.272C76.9579 10.4548 77.3245 10.7663 77.5417 11.1929C77.759 11.6194 77.8744 12.1544 77.8744 12.7976V13.468C77.8744 13.7456 77.9083 14.0571 77.9694 14.416C78.0305 14.7681 78.1459 15.0186 78.3021 15.1743V15.3165H76.3401C76.1907 15.1676 76.0889 14.8967 76.0414 14.5175C75.9939 14.1383 75.9735 13.7795 75.9735 13.4545V12.8112C75.9735 12.3101 75.8717 11.9241 75.6612 11.6533C75.4576 11.3892 75.1521 11.2538 74.7515 11.2538H73.4345H73.4481ZM73.4481 9.36462H74.704C75.091 9.36462 75.3829 9.24951 75.5865 9.02606C75.7902 8.8026 75.892 8.47758 75.892 8.05777C75.892 7.63795 75.7902 7.27907 75.5798 7.015C75.3693 6.75092 75.0774 6.61549 74.6972 6.61549H73.4481V9.36462Z" fill="#F5F5F5"/>
<path d="M84.2694 11.0642H83.3869V15.3098H81.4724V4.71954H83.3869V8.86355H84.0386L85.8444 4.71954H88.2137L85.6679 9.51359L88.4309 15.3098H86.1092L84.2694 11.0642Z" fill="#F5F5F5"/>
<path d="M96.3943 10.7798H93.1696V13.4206H96.9645V15.3098H91.2551V4.71954H96.9781V6.60872H93.1696V8.88386H96.3943V10.773V10.7798Z" fill="#F5F5F5"/>
<path d="M105.987 6.60872H103.821V15.3098H101.907V6.60872H99.7547V4.71954H105.987V6.60872Z" fill="#F5F5F5"/>
<path d="M87.7453 113.351C87.5348 112.084 87.3719 110.27 88.1458 109.058C88.2612 110.134 89.4764 110.73 90.0399 111.881C90.1078 111.55 90.2979 111.177 90.3997 110.845C90.5015 111.204 90.6033 111.373 91.0107 111.57C90.6577 109.911 90.9428 108.787 92.2462 107.764C92.0426 108.719 92.9387 109.349 93.4207 110.581C93.4682 110.365 93.6719 110.114 93.7058 109.891C93.7534 110.04 93.9299 110.243 93.991 110.412C94.2693 109.579 94.9889 109.017 96.3331 108.577C96.3195 109.857 97.881 110.622 98.3154 112.078C98.2747 111.522 98.2543 110.893 98.6617 110.405C98.9332 110.69 99.293 110.967 99.3677 111.313C100.766 110.385 100.997 109.423 100.637 107.974C102.667 108.394 103.896 110.703 104.269 111.34C104.269 110.784 104.581 110.019 105.104 109.681C104.887 110.256 104.996 110.96 105.702 111.428C105.851 110.304 107.127 109.051 107.025 107.798C108.573 108.475 108.329 109.687 109.11 110.602C109.123 110.249 109.307 109.958 109.408 109.62C109.402 109.945 109.517 110.29 109.531 110.615C109.856 110.107 110.074 109.505 110.501 109.058C110.963 110.297 112.504 110.365 112.986 111.712C113.624 111.015 113.163 110.087 114.378 109.518C114.398 110.175 115.552 110.392 115.817 111.306C115.892 110.906 116.068 110.493 116.38 110.141C116.462 110.581 116.686 111.001 117.127 111.333C117.609 109.965 119.076 108.922 119.754 107.629C120.834 108.672 119.945 109.911 120.766 111.055C121.044 110.331 121.526 109.647 122.151 109.024C122.456 109.464 122.857 109.877 123.312 110.27C123.006 109.511 123.814 109.213 123.624 108.428C124.731 109.247 124.968 110.419 126.041 111.184C125.898 110.392 126.441 109.579 127.08 109.098C127.046 109.505 127.331 109.857 127.684 110.615C127.881 109.532 128.987 108.272 130.847 107.846C130.006 108.841 130.718 109.884 130.657 111.15C130.976 110.486 131.669 110.073 131.703 109.173C132.422 109.552 132.619 110.121 132.803 110.669C132.803 108.888 134.099 108.536 133.346 107.257C135.369 107.798 135.498 110.859 136.536 111.089C136.258 110.114 136.292 109.308 137.344 108.719C137.378 109.376 137.935 109.674 137.935 110.649C138.132 109.83 139.551 109.417 140.42 108.624C141.112 109.559 139.951 109.87 140.576 111.685C140.589 110.324 141.547 110.222 141.73 109.417C143.074 110.453 142.232 112.044 143.074 113.378H87.7181L87.7453 113.351Z" fill="#1E732B"/>
<path d="M143.101 113.351C142.925 112.585 143.692 111.583 142.735 110.595C142.49 111.204 141.655 111.651 141.526 112.294C141.173 111.996 141.078 111.597 141.241 111.218C140.725 111.434 140.311 111.732 140.026 112.071C139.157 111.658 138.946 110.981 139.116 110.344C138.342 110.927 137.711 111.252 137.67 112.369C137.67 112.335 137.412 111.021 136.699 110.656C136.516 111.055 136.156 111.421 135.864 111.793C135.674 110.899 135.097 110.188 134.439 109.403C133.821 110.222 134.018 111.028 133.8 111.888C133.624 111.638 133.352 111.583 133.122 111.394C133.027 111.577 132.769 111.793 132.708 111.963C132.782 111.062 131.513 110.398 131.289 109.552C130.854 109.945 130.508 110.662 130.474 111.096C130.128 110.5 129.999 110.012 129.062 109.816C129.659 110.527 129.225 111.414 128.709 112.179C128.553 111.942 128.166 111.719 128.03 111.461C127.684 111.617 127.616 111.915 127.521 112.112C127.215 111.089 125.647 110.568 125.79 109.728C125.043 110.06 124.717 111.001 124.608 111.617C124.317 111.177 123.658 111.15 123.237 110.717C122.925 111.414 123.325 111.847 122.735 112.206C122.735 112.206 121.044 110.629 121.323 109.816C120.08 110.398 119.775 111.617 119.822 112.558C119.449 111.678 118.587 110.899 118.22 110.026C117.338 110.412 117.636 111.468 116.828 112.213C116.496 112.152 116.299 111.881 116.238 111.678C115.776 112.01 115.763 112.22 115.776 112.525C115.355 112.382 115.498 111.78 115.111 111.712C115.213 112.003 114.663 112.484 114.622 112.734C114.418 111.543 113.366 111.299 112.776 110.541C112.219 111.109 112.66 111.394 111.879 112.105C111.479 111.495 111.689 110.947 110.895 110.513C110.97 110.825 110.624 111.028 110.583 111.299C110.128 110.473 108.696 109.809 109.035 108.875C107.025 109.545 107.514 111.062 106.951 112.152C106.951 112.152 106.428 110.676 105.505 110.365C105.736 110.954 105.172 111.17 105.159 111.597C105.159 111.624 105.159 111.624 105.159 111.597C104.697 110.608 104.982 109.308 103.651 108.767C103.679 109.525 103.142 110.121 102.918 110.839C102.816 110.581 102.409 110.385 102.497 110.168C101.438 110.574 101.445 111.935 101.092 112.558C101.112 111.617 100.583 111.448 100.474 111.238C100.338 111.468 99.999 111.712 99.8972 111.969C99.5238 111.008 98.6277 110.236 98.105 109.329C97.9285 110.216 96.9237 110.493 96.8083 111.373C96.4214 110.378 94.6155 109.545 94.8803 108.699C93.9502 109.559 94.0521 110.879 93.5904 111.861C93.4207 111.658 92.8844 111.455 92.8844 111.123C92.5789 111.306 92.5789 111.726 92.5178 111.929C92.1919 111.285 91.4791 110.717 91.289 110.06C90.9903 110.412 90.8206 110.845 90.7663 111.224C90.4336 110.358 88.5939 109.62 88.5939 109.647C89.1573 111.015 88.5939 112.091 87.7045 113.337H143.115L143.101 113.351Z" fill="#28AD00"/>
<path d="M96.5911 113.351C96.5775 112.477 95.7832 111.773 95.8443 110.92C95.5252 111.441 95.5524 111.983 95.4234 112.518C95.3759 112.349 95.2265 112.2 95.1518 112.037C95.0568 112.247 94.8327 112.47 94.7309 112.66C94.7173 112.24 94.3847 111.875 93.9909 111.563C93.9366 112.078 93.1763 112.464 92.6535 112.843C92.5789 112.653 92.3141 112.525 92.253 112.328C92.1308 112.498 91.9 112.599 91.8117 112.789C91.4519 112.186 90.2571 111.651 90.0874 111.062C89.8022 111.543 90.1892 112.044 90.0399 112.545C89.9177 112.362 89.6325 112.2 89.5171 112.017C89.4696 112.2 89.3202 112.369 89.2999 112.558C89.0962 112.179 88.716 111.82 88.5735 111.428C88.1729 112.098 87.7181 112.653 87.5959 113.364H96.5978L96.5911 113.351Z" fill="#73CF28"/>
<path d="M98.7906 113.351H110.386C110.148 112.877 109.612 112.437 109.531 111.942C109.103 112.193 108.858 112.545 108.804 112.897C108.872 112.166 107.833 111.786 107.324 111.184C106.849 111.38 106.476 111.705 106.381 112.064C106.177 111.868 105.899 111.773 105.776 111.529C105.559 111.814 105.417 112.125 105.423 112.437C104.833 112.152 104.31 111.766 104.602 111.292C104.066 111.57 103.699 111.963 103.672 112.389C103.088 111.516 102.531 111.015 101.554 110.297C101.622 111.103 100.787 111.915 100.413 112.64C100.311 112.477 100.074 112.328 99.9787 112.159C99.9719 112.355 99.8769 112.497 99.904 112.701C99.646 112.409 99.3473 112.071 99.1844 111.732C98.7296 112.24 98.8382 112.802 98.8042 113.351H98.7906Z" fill="#73CF28"/>
<path d="M123.21 113.351C123.013 113.053 122.769 112.768 122.809 112.423C122.504 112.646 122.321 112.728 122.205 113.005C121.852 112.193 120.515 111.814 120.298 111.008C120.033 111.597 120.189 112.294 119.639 112.809C119.463 112.633 119.171 112.497 119.042 112.294C118.899 112.552 118.736 112.816 118.607 113.066C118.58 112.403 118.044 111.875 117.48 111.299C117.256 111.739 116.964 112.261 117.093 112.728C116.822 112.409 116.496 112.105 116.082 111.847C116.082 111.983 115.993 112.145 116.007 112.294C115.681 111.827 115.091 111.441 115.172 110.906C114.296 111.644 113.821 112.464 113.93 113.364H123.21V113.351Z" fill="#73CF28"/>
<path d="M125.09 113.351H130.033C129.951 112.897 129.68 112.464 129.768 112.003C129.456 112.145 129.116 112.382 128.906 112.572C128.906 112.579 128.906 112.585 128.906 112.592C128.77 111.902 128.281 111.353 127.908 110.71C127.792 111.319 127.419 111.963 127.399 112.545C127.175 112.301 126.971 112.023 126.794 111.78C126.55 112.125 126.577 112.504 126.699 112.87C126.482 112.389 125.892 111.949 125.735 111.448C125.192 112.03 125.192 112.714 125.09 113.344V113.351Z" fill="#73CF28"/>
<path d="M140.895 113.351C141.051 112.64 140.277 112.125 139.537 111.549C139.836 111.963 139.449 112.369 139.306 112.775C138.987 112.558 138.872 112.267 138.96 111.976C138.437 112.166 138.111 112.525 138.172 112.883C137.643 112.369 137.453 111.841 136.631 111.401C137.093 111.854 136.564 112.409 136.312 112.856C136.251 112.714 136.061 112.579 136.02 112.396C135.667 112.714 135.6 113.019 135.62 113.351H140.895Z" fill="#73CF28"/>
<path d="M58.9268 113.351C58.7163 112.084 58.5534 110.27 59.3273 109.058C59.4427 110.134 60.6579 110.73 61.2214 111.881C61.2893 111.55 61.4794 111.177 61.588 110.845C61.6898 111.204 61.7917 111.373 62.199 111.57C61.846 109.911 62.1311 108.787 63.4345 107.764C63.2309 108.719 64.127 109.349 64.609 110.581C64.6565 110.365 64.8602 110.114 64.8941 109.891C64.9417 110.04 65.1182 110.243 65.1793 110.412C65.4576 109.579 66.1772 109.017 67.5214 108.577C67.5078 109.857 69.0693 110.622 69.5037 112.078C69.463 111.522 69.4426 110.893 69.85 110.405C70.1215 110.69 70.4813 110.967 70.556 111.313C71.9545 110.385 72.1853 109.423 71.8255 107.974C73.8554 108.394 75.0773 110.703 75.4507 111.34C75.4507 110.784 75.763 110.019 76.2858 109.681C76.0685 110.256 76.1771 110.96 76.8832 111.428C77.0325 110.304 78.3088 109.051 78.207 107.798C79.7548 108.475 79.5104 109.687 80.2911 110.602C80.3047 110.249 80.488 109.958 80.5966 109.62C80.5899 109.945 80.7053 110.29 80.7188 110.615C81.0447 110.107 81.2619 109.505 81.6896 109.058C82.1513 110.297 83.6923 110.365 84.1743 111.712C84.8125 111.015 84.3441 110.087 85.566 109.518C85.5864 110.175 86.7405 110.392 87.0053 111.306C87.0799 110.906 87.2565 110.493 87.5687 110.141C87.6502 110.581 87.8742 111.001 88.3155 111.333C88.7907 109.965 90.2639 108.922 90.9428 107.629C92.0222 108.672 91.1261 109.911 91.9543 111.055C92.2326 110.331 92.7147 109.647 93.3392 109.024C93.6379 109.464 94.0453 109.877 94.5001 110.27C94.1946 109.511 95.0025 109.213 94.8124 108.428C95.919 109.247 96.1566 110.419 97.2292 111.184C97.0866 110.392 97.6297 109.579 98.2679 109.098C98.234 109.505 98.5191 109.857 98.8721 110.615C99.069 109.532 100.169 108.272 102.036 107.846C101.194 108.841 101.907 109.884 101.846 111.15C102.165 110.486 102.857 110.073 102.891 109.173C103.611 109.552 103.814 110.121 103.991 110.669C103.991 108.888 105.288 108.536 104.534 107.257C106.557 107.798 106.686 110.859 107.731 111.089C107.453 110.114 107.487 109.308 108.539 108.719C108.573 109.376 109.13 109.674 109.13 110.649C109.327 109.83 110.746 109.417 111.615 108.624C112.307 109.559 111.146 109.87 111.771 111.685C111.784 110.324 112.735 110.222 112.925 109.417C114.269 110.453 113.427 112.044 114.269 113.378H58.9132L58.9268 113.351Z" fill="#1E732B"/>
<path d="M114.276 113.351C114.099 112.585 114.866 111.583 113.916 110.595C113.672 111.204 112.837 111.651 112.708 112.294C112.355 111.996 112.26 111.597 112.423 111.218C111.907 111.434 111.492 111.732 111.207 112.071C110.345 111.658 110.128 110.981 110.298 110.344C109.524 110.927 108.892 111.252 108.852 112.369C108.852 112.335 108.594 111.021 107.881 110.656C107.698 111.055 107.338 111.421 107.046 111.793C106.856 110.899 106.279 110.188 105.62 109.403C105.002 110.222 105.199 111.028 104.982 111.888C104.805 111.638 104.534 111.583 104.296 111.394C104.201 111.577 103.943 111.793 103.882 111.963C103.957 111.062 102.687 110.398 102.463 109.552C102.029 109.945 101.683 110.662 101.649 111.096C101.302 110.5 101.173 110.012 100.23 109.816C100.827 110.527 100.393 111.414 99.8768 112.179C99.7207 111.942 99.3337 111.719 99.1979 111.461C98.8517 111.617 98.7838 111.915 98.6888 112.112C98.3833 111.089 96.8151 110.568 96.9576 109.728C96.2109 110.06 95.885 111.001 95.7764 111.617C95.4845 111.177 94.826 111.15 94.405 110.717C94.0928 111.414 94.4933 111.847 93.8959 112.206C93.8959 112.206 92.2055 110.629 92.4838 109.816C91.2415 110.398 90.936 111.617 90.9835 112.558C90.6101 111.678 89.7479 110.899 89.3813 110.026C88.4988 110.412 88.7975 111.468 87.9896 112.213C87.657 112.152 87.4601 111.881 87.399 111.678C86.9374 112.01 86.9238 112.22 86.9374 112.525C86.5165 112.382 86.659 111.78 86.2721 111.712C86.3739 112.003 85.824 112.484 85.7833 112.734C85.5796 111.543 84.5273 111.299 83.9367 110.541C83.38 111.109 83.8213 111.394 83.0406 112.105C82.64 111.495 82.8505 110.947 82.0562 110.513C82.1309 110.825 81.7847 111.028 81.7371 111.299C81.2823 110.473 79.8498 109.809 80.1961 108.875C78.1866 109.545 78.6754 111.062 78.1119 112.152C78.1119 112.152 77.596 110.676 76.6659 110.365C76.8967 110.954 76.3333 111.17 76.3197 111.597C76.3197 111.624 76.3197 111.624 76.3197 111.597C75.858 110.608 76.1432 109.308 74.8126 108.767C74.8397 109.525 74.3034 110.121 74.0794 110.839C73.9775 110.581 73.5702 110.385 73.6585 110.168C72.5994 110.574 72.6062 111.935 72.2532 112.558C72.2735 111.617 71.744 111.448 71.6354 111.238C71.4996 111.468 71.1534 111.712 71.0584 111.969C70.685 111.008 69.7888 110.236 69.2661 109.329C69.0896 110.216 68.0849 110.493 67.9694 111.373C67.5825 110.378 65.7767 109.545 66.0414 108.699C65.1114 109.559 65.2132 110.879 64.7516 111.861C64.5818 111.658 64.0455 111.455 64.0455 111.123C63.74 111.306 63.74 111.726 63.6789 111.929C63.3531 111.285 62.6402 110.717 62.4501 110.06C62.1514 110.412 61.9817 110.845 61.9274 111.224C61.5948 110.358 59.755 109.62 59.755 109.647C60.3185 111.015 59.755 112.091 58.8657 113.337H114.276V113.351Z" fill="#28AD00"/>
<path d="M67.7726 113.351C67.759 112.477 66.9647 111.773 67.0258 110.92C66.7067 111.441 66.7339 111.983 66.6049 112.518C66.5574 112.349 66.408 112.2 66.3333 112.037C66.2383 112.247 66.0143 112.47 65.9124 112.66C65.8989 112.24 65.5662 111.875 65.1792 111.563C65.1181 112.078 64.3646 112.464 63.8351 112.843C63.7604 112.653 63.4956 112.525 63.4345 112.328C63.3123 112.498 63.0815 112.599 62.9933 112.789C62.6334 112.186 61.4386 111.651 61.2689 111.062C60.9838 111.543 61.3707 112.044 61.2214 112.545C61.0992 112.362 60.814 112.2 60.6986 112.017C60.6511 112.2 60.5018 112.369 60.4814 112.558C60.2777 112.179 59.8976 111.82 59.755 111.428C59.3544 112.098 58.8996 112.653 58.7774 113.364H67.7794L67.7726 113.351Z" fill="#73CF28"/>
<path d="M69.9722 113.351H81.5674C81.3298 112.877 80.7935 112.437 80.7121 111.942C80.2844 112.193 80.04 112.545 79.9857 112.897C80.0535 112.166 79.0149 111.786 78.5057 111.184C78.0305 111.38 77.6571 111.705 77.5621 112.064C77.3584 111.868 77.08 111.773 76.9578 111.529C76.7406 111.814 76.598 112.125 76.6048 112.437C76.0142 112.152 75.4915 111.766 75.7834 111.292C75.2471 111.57 74.8805 111.963 74.8465 112.389C74.2627 111.516 73.706 111.015 72.7284 110.297C72.7963 111.103 71.9613 111.915 71.5879 112.64C71.4861 112.477 71.2485 112.328 71.1534 112.159C71.1466 112.355 71.0516 112.497 71.0787 112.701C70.8208 112.409 70.5221 112.071 70.3591 111.732C69.9043 112.24 70.0129 112.802 69.979 113.351H69.9722Z" fill="#73CF28"/>
<path d="M94.3847 113.351C94.1878 113.053 93.9434 112.768 93.9841 112.423C93.6786 112.646 93.4953 112.728 93.3799 113.005C93.0269 112.193 91.6895 111.814 91.4723 111.008C91.2075 111.597 91.3637 112.294 90.8138 112.809C90.6373 112.633 90.3453 112.497 90.2164 112.294C90.0738 112.552 89.9176 112.816 89.7819 113.066C89.7547 112.403 89.2184 111.875 88.6549 111.299C88.4309 111.739 88.139 112.261 88.268 112.728C87.9964 112.409 87.6706 112.105 87.2564 111.847C87.2564 111.983 87.1682 112.145 87.1818 112.294C86.8559 111.827 86.2653 111.441 86.3535 110.906C85.471 111.644 85.0026 112.464 85.1112 113.364H94.3915L94.3847 113.351Z" fill="#73CF28"/>
<path d="M96.272 113.351H101.214C101.133 112.897 100.861 112.464 100.949 112.003C100.637 112.145 100.298 112.382 100.087 112.572C100.087 112.579 100.087 112.585 100.087 112.592C99.9515 111.902 99.4627 111.353 99.0893 110.71C98.9807 111.319 98.6005 111.963 98.5802 112.545C98.3561 112.301 98.1525 112.023 97.976 111.78C97.7316 112.125 97.7655 112.504 97.8809 112.87C97.6637 112.389 97.073 111.949 96.9169 111.448C96.3738 112.03 96.3738 112.714 96.272 113.344V113.351Z" fill="#73CF28"/>
<path d="M112.07 113.351C112.226 112.64 111.452 112.125 110.712 111.549C111.01 111.963 110.624 112.369 110.481 112.775C110.162 112.558 110.046 112.267 110.135 111.976C109.612 112.166 109.286 112.525 109.347 112.883C108.818 112.369 108.628 111.841 107.806 111.401C108.268 111.854 107.738 112.409 107.494 112.856C107.433 112.714 107.243 112.579 107.202 112.396C106.849 112.714 106.781 113.019 106.801 113.351H112.076H112.07Z" fill="#73CF28"/>
<path d="M131.404 32.5291H24.236V31.1545C24.236 30.1456 25.0507 29.3195 26.0486 29.3195H129.585C130.589 29.3195 131.397 30.1388 131.397 31.1545V32.5291H131.404Z" fill="#EA2700"/>
<path d="M18.8321 53.3506H3.17035V56.9123H18.8321V53.3506Z" fill="#EA2700"/>
<path d="M28.1803 105.347C28.6352 104.149 28.8864 102.848 28.8864 101.481C28.8864 95.6777 24.399 90.9785 18.8661 90.9785C13.3332 90.9785 8.84583 95.6845 8.84583 101.481C8.84583 102.848 9.09701 104.149 9.55186 105.347H28.1803Z" fill="#8FD348"/>
<path d="M28.1803 105.347C28.6352 104.149 28.8864 102.848 28.8864 101.481C28.8864 96.7476 25.8993 92.7458 21.7921 91.4321C21.3983 94.3167 19.4092 101.677 9.53827 105.32C9.53827 105.327 9.54506 105.34 9.55185 105.347H28.1803Z" fill="#64A333"/>
<path d="M18.0379 90.7956H17.9903V90.7482C17.9903 90.5383 17.8206 90.3622 17.6034 90.3622C17.3861 90.3622 17.2164 90.5383 17.2164 90.7482V90.7956H17.1689C16.9584 90.7956 16.7819 90.9649 16.7819 91.1816C16.7819 91.3982 16.9516 91.5675 17.1689 91.5675H17.2164V91.6149C17.2164 91.8248 17.3861 92.0009 17.6034 92.0009C17.8206 92.0009 17.9903 91.8248 17.9903 91.6149V91.5675H18.0379C18.2483 91.5675 18.4248 91.3982 18.4248 91.1816C18.4248 90.9649 18.2551 90.7956 18.0379 90.7956Z" fill="#FFFAE6"/>
<path d="M17.7935 91.0123H17.7731V90.992C17.7731 90.9039 17.6984 90.8227 17.6034 90.8227C17.5083 90.8227 17.4405 90.8972 17.4405 90.992V91.0123H17.4201C17.3318 91.0123 17.2504 91.0868 17.2504 91.1816C17.2504 91.2764 17.325 91.3441 17.4201 91.3441H17.4405V91.3644C17.4405 91.4524 17.5151 91.5269 17.6034 91.5269C17.6916 91.5269 17.7731 91.4524 17.7731 91.3644V91.3441H17.7935C17.8817 91.3441 17.9564 91.2696 17.9564 91.1816C17.9564 91.0935 17.8817 91.0123 17.7935 91.0123Z" fill="#FFD9D9"/>
<path d="M17.7527 95.996H17.6984V95.9418C17.6984 95.7048 17.5015 95.5084 17.2639 95.5084C17.0263 95.5084 16.8294 95.7048 16.8294 95.9418V95.996H16.7751C16.5375 95.996 16.3406 96.1923 16.3406 96.4293C16.3406 96.6663 16.5375 96.8627 16.7751 96.8627H16.8294V96.9168C16.8294 97.1538 17.0263 97.3502 17.2639 97.3502C17.5015 97.3502 17.6984 97.1538 17.6984 96.9168V96.8627H17.7527C17.9971 96.8627 18.1872 96.6663 18.1872 96.4293C18.1872 96.1923 17.9971 95.996 17.7527 95.996Z" fill="#FFFAE6"/>
<path d="M17.4744 96.2397H17.454V96.2194C17.454 96.1178 17.3726 96.0298 17.2639 96.0298C17.1553 96.0298 17.0739 96.111 17.0739 96.2194V96.2397H17.0535C16.9449 96.2397 16.8634 96.3209 16.8634 96.4293C16.8634 96.5376 16.9449 96.6189 17.0535 96.6189H17.0739V96.6392C17.0739 96.7408 17.1553 96.8288 17.2639 96.8288C17.3726 96.8288 17.454 96.7475 17.454 96.6392V96.6189H17.4744C17.5762 96.6189 17.6645 96.5376 17.6645 96.4293C17.6645 96.3209 17.583 96.2397 17.4744 96.2397Z" fill="#FFD9D9"/>
<path d="M22.1858 94.6958H22.1315V94.6417C22.1315 94.4047 21.9346 94.2083 21.697 94.2083C21.4594 94.2083 21.2625 94.4047 21.2625 94.6417V94.6958H21.2082C20.9706 94.6958 20.7737 94.8922 20.7737 95.1292C20.7737 95.3662 20.9706 95.5626 21.2082 95.5626H21.2625V95.6167C21.2625 95.8537 21.4594 96.0501 21.697 96.0501C21.9346 96.0501 22.1315 95.8537 22.1315 95.6167V95.5626H22.1858C22.4234 95.5626 22.6203 95.3662 22.6203 95.1292C22.6203 94.8922 22.4234 94.6958 22.1858 94.6958Z" fill="#FFFAE6"/>
<path d="M21.9075 94.9396H21.8803V94.9193C21.8803 94.8177 21.7988 94.7297 21.6902 94.7297C21.5816 94.7297 21.5001 94.8109 21.5001 94.9193V94.9396H21.4798C21.3779 94.9396 21.2897 95.0208 21.2897 95.1292C21.2897 95.2375 21.3711 95.3188 21.4798 95.3188H21.5001V95.3459C21.5001 95.4474 21.5816 95.5355 21.6902 95.5355C21.7988 95.5355 21.8803 95.4542 21.8803 95.3459V95.3188H21.9075C22.0093 95.3188 22.0975 95.2375 22.0975 95.1292C22.0975 95.0208 22.0161 94.9396 21.9075 94.9396Z" fill="#FFD9D9"/>
<path d="M17.8342 99.4086H17.7799V99.3544C17.7799 99.1174 17.583 98.9211 17.3454 98.9211C17.1078 98.9211 16.9109 99.1174 16.9109 99.3544V99.4086H16.8566C16.619 99.4086 16.4221 99.605 16.4221 99.842C16.4221 100.079 16.619 100.275 16.8566 100.275H16.9109V100.33C16.9109 100.566 17.1078 100.763 17.3454 100.763C17.583 100.763 17.7799 100.566 17.7799 100.33V100.275H17.8342C18.0718 100.275 18.2687 100.079 18.2687 99.842C18.2687 99.605 18.0718 99.4086 17.8342 99.4086Z" fill="#FFFAE6"/>
<path d="M17.5627 99.6524H17.5423V99.6253C17.5423 99.5238 17.4608 99.4357 17.3522 99.4357C17.2436 99.4357 17.1621 99.517 17.1621 99.6253V99.6524H17.1417C17.0399 99.6524 16.9517 99.7337 16.9517 99.842C16.9517 99.9503 17.0331 100.032 17.1417 100.032H17.1621V100.052C17.1621 100.153 17.2436 100.241 17.3522 100.241C17.4608 100.241 17.5423 100.16 17.5423 100.052V100.032H17.5627C17.6645 100.032 17.7527 99.9503 17.7527 99.842C17.7527 99.7337 17.6713 99.6524 17.5627 99.6524Z" fill="#FFD9D9"/>
<path d="M22.6746 99.4628H22.6203V99.4086C22.6203 99.1716 22.4235 98.9753 22.1859 98.9753C21.9482 98.9753 21.7514 99.1716 21.7514 99.4086V99.4628H21.6971C21.4594 99.4628 21.2626 99.6592 21.2626 99.8962C21.2626 100.133 21.4594 100.33 21.6971 100.33H21.7514V100.384C21.7514 100.621 21.9482 100.817 22.1859 100.817C22.4235 100.817 22.6203 100.621 22.6203 100.384V100.33H22.6746C22.9123 100.33 23.1091 100.133 23.1091 99.8962C23.1091 99.6592 22.9123 99.4628 22.6746 99.4628Z" fill="#FFFAE6"/>
<path d="M22.4031 99.7066H22.3827V99.6862C22.3827 99.5847 22.3013 99.4966 22.1927 99.4966C22.084 99.4966 22.0026 99.5847 22.0026 99.6862V99.7066H21.9822C21.8804 99.7066 21.7921 99.7878 21.7921 99.8961C21.7921 100.004 21.8736 100.086 21.9822 100.086H22.0026V100.106C22.0026 100.208 22.084 100.296 22.1927 100.296C22.3013 100.296 22.3827 100.214 22.3827 100.106V100.086H22.4031C22.5049 100.086 22.5932 100.004 22.5932 99.8961C22.5932 99.7878 22.5117 99.7066 22.4031 99.7066Z" fill="#FFD9D9"/>
<path d="M12.4371 99.2799H12.3828V99.2258C12.3828 98.9888 12.1859 98.7924 11.9483 98.7924C11.7107 98.7924 11.5138 98.9888 11.5138 99.2258V99.2799H11.4595C11.2219 99.2799 11.025 99.4695 11.025 99.7133C11.025 99.9571 11.2219 100.147 11.4595 100.147H11.5138V100.201C11.5138 100.438 11.7107 100.634 11.9483 100.634C12.1859 100.634 12.3828 100.438 12.3828 100.201V100.147H12.4371C12.6747 100.147 12.8716 99.9503 12.8716 99.7133C12.8716 99.4763 12.6747 99.2799 12.4371 99.2799Z" fill="#FFFAE6"/>
<path d="M12.1588 99.5237H12.1384V99.5034C12.1384 99.4018 12.057 99.3138 11.9483 99.3138C11.8397 99.3138 11.7582 99.395 11.7582 99.5034V99.5237H11.7379C11.636 99.5237 11.5478 99.6049 11.5478 99.7133C11.5478 99.8216 11.636 99.9029 11.7379 99.9029H11.7582V99.9232C11.7582 100.025 11.8397 100.113 11.9483 100.113C12.057 100.113 12.1384 100.032 12.1384 99.9232V99.9029H12.1588C12.2606 99.9029 12.3489 99.8216 12.3489 99.7133C12.3489 99.6049 12.2606 99.5237 12.1588 99.5237Z" fill="#FFD9D9"/>
<path d="M27.2163 99.219H27.162V99.1649C27.162 98.9279 26.9719 98.7315 26.7275 98.7315C26.4831 98.7315 26.2931 98.9211 26.2931 99.1649V99.219H26.2387C26.0011 99.219 25.8043 99.4154 25.8043 99.6524C25.8043 99.8894 26.0011 100.086 26.2387 100.086H26.2931V100.14C26.2931 100.377 26.4831 100.573 26.7275 100.573C26.9719 100.573 27.162 100.377 27.162 100.14V100.086H27.2163C27.4539 100.086 27.6508 99.8894 27.6508 99.6524C27.6508 99.4154 27.4539 99.219 27.2163 99.219Z" fill="#FFFAE6"/>
<path d="M26.938 99.4628H26.9108V99.4357C26.9108 99.3342 26.8294 99.2462 26.7207 99.2462C26.6121 99.2462 26.5306 99.3274 26.5306 99.4357V99.4628H26.5103C26.4084 99.4628 26.3202 99.5441 26.3202 99.6524C26.3202 99.7608 26.4017 99.842 26.5103 99.842H26.5306V99.8623C26.5306 99.9639 26.6121 100.052 26.7207 100.052C26.8294 100.052 26.9108 99.9707 26.9108 99.8623V99.842H26.938C27.0398 99.842 27.1281 99.7608 27.1281 99.6524C27.1281 99.5441 27.0466 99.4628 26.938 99.4628Z" fill="#FFD9D9"/>
<path d="M24.7927 101.264H24.7723V101.237C24.7723 101.129 24.6841 101.034 24.5687 101.034C24.4533 101.034 24.3718 101.122 24.3718 101.237V101.264H24.3446C24.236 101.264 24.1478 101.352 24.1478 101.46C24.1478 101.569 24.236 101.657 24.3446 101.657H24.3718V101.684C24.3718 101.792 24.4601 101.88 24.5687 101.88C24.6773 101.88 24.7723 101.792 24.7723 101.684V101.657H24.7927C24.9013 101.657 24.9896 101.569 24.9896 101.46C24.9896 101.352 24.9013 101.264 24.7927 101.264Z" fill="#FFFAE6"/>
<path d="M24.6637 101.379H24.6502V101.366C24.6502 101.318 24.6094 101.278 24.5619 101.278C24.5144 101.278 24.4737 101.318 24.4737 101.366V101.379H24.4601C24.4126 101.379 24.3718 101.42 24.3718 101.467C24.3718 101.515 24.4126 101.555 24.4601 101.555H24.4737C24.4737 101.609 24.5144 101.65 24.5619 101.65C24.6094 101.65 24.6502 101.609 24.6502 101.562L24.6637 101.555C24.7113 101.555 24.752 101.515 24.752 101.467C24.752 101.42 24.7113 101.379 24.6637 101.379Z" fill="#FFD9D9"/>
<path d="M20.1288 101.264H20.1017V101.237C20.1017 101.129 20.0134 101.034 19.9048 101.034C19.7962 101.034 19.7079 101.122 19.7079 101.237V101.264H19.6808C19.5721 101.264 19.4839 101.352 19.4839 101.46C19.4839 101.569 19.5721 101.657 19.6808 101.657H19.7079V101.684C19.7079 101.792 19.7962 101.88 19.9048 101.88C20.0134 101.88 20.1017 101.792 20.1017 101.684V101.657H20.1288C20.2374 101.657 20.3257 101.569 20.3257 101.46C20.3257 101.352 20.2374 101.264 20.1288 101.264Z" fill="#FFFAE6"/>
<path d="M20.0066 101.379H19.9931V101.366C19.9931 101.318 19.9523 101.278 19.9048 101.278C19.8573 101.278 19.8166 101.318 19.8166 101.366V101.379H19.803C19.7555 101.379 19.7147 101.42 19.7147 101.467C19.7147 101.515 19.7555 101.555 19.803 101.555H19.8166C19.8166 101.609 19.8573 101.65 19.9048 101.65C19.9523 101.65 19.9931 101.609 19.9931 101.562L20.0066 101.555C20.0542 101.555 20.0949 101.515 20.0949 101.467C20.0949 101.42 20.0542 101.379 20.0066 101.379Z" fill="#FFD9D9"/>
<path d="M14.6027 101.264H14.5823V101.237C14.5823 101.129 14.4941 101.034 14.3787 101.034C14.2633 101.034 14.1818 101.122 14.1818 101.237V101.264H14.1614C14.0528 101.264 13.9578 101.352 13.9578 101.46C13.9578 101.569 14.046 101.657 14.1614 101.657H14.1818V101.684C14.1818 101.792 14.27 101.88 14.3787 101.88C14.4873 101.88 14.5823 101.792 14.5823 101.684V101.657H14.6027C14.7113 101.657 14.7996 101.569 14.7996 101.46C14.7996 101.352 14.7113 101.264 14.6027 101.264Z" fill="#FFFAE6"/>
<path d="M14.4805 101.379H14.4737V101.366C14.4737 101.318 14.433 101.278 14.3854 101.278C14.3379 101.278 14.2972 101.318 14.2972 101.366V101.379H14.2904C14.2429 101.379 14.2021 101.42 14.2021 101.467C14.2021 101.515 14.2429 101.555 14.2904 101.555H14.2972C14.2972 101.609 14.3379 101.65 14.3854 101.65C14.433 101.65 14.4737 101.609 14.4737 101.562L14.4805 101.555C14.528 101.555 14.5687 101.515 14.5687 101.467C14.5687 101.42 14.528 101.379 14.4805 101.379Z" fill="#FFD9D9"/>
<path d="M10.19 101.264H10.1628V101.237C10.1628 101.129 10.0746 101.034 9.96595 101.034C9.85733 101.034 9.76907 101.122 9.76907 101.237V101.264H9.74192C9.6333 101.264 9.54504 101.352 9.54504 101.46C9.54504 101.569 9.6333 101.657 9.74192 101.657H9.76907V101.684C9.76907 101.792 9.85733 101.88 9.96595 101.88C10.0746 101.88 10.1628 101.792 10.1628 101.684V101.657H10.19C10.2986 101.657 10.3869 101.569 10.3869 101.46C10.3869 101.352 10.2986 101.264 10.19 101.264Z" fill="#FFFAE6"/>
<path d="M10.061 101.379H10.0474V101.366C10.0474 101.318 10.0067 101.278 9.95918 101.278C9.91166 101.278 9.87092 101.318 9.87092 101.366V101.379H9.86413C9.81661 101.379 9.77588 101.42 9.77588 101.467C9.77588 101.515 9.81661 101.555 9.86413 101.555H9.87092C9.87092 101.609 9.91166 101.65 9.95918 101.65C10.0067 101.65 10.0474 101.609 10.0474 101.562L10.061 101.555C10.1085 101.555 10.1493 101.515 10.1493 101.467C10.1493 101.42 10.1085 101.379 10.061 101.379Z" fill="#FFD9D9"/>
<path d="M18.3298 93.301H18.2619V93.2333C18.2619 92.915 18.0039 92.6509 17.6781 92.6509C17.3522 92.6509 17.0942 92.9082 17.0942 93.2333V93.301H17.0263C16.7073 93.301 16.4425 93.5583 16.4425 93.8833C16.4425 94.2083 16.7005 94.4656 17.0263 94.4656H17.0942V94.5333C17.0942 94.8516 17.3522 95.1157 17.6781 95.1157C18.0039 95.1157 18.2619 94.8584 18.2619 94.5333V94.4656H18.3298C18.6489 94.4656 18.9136 94.2083 18.9136 93.8833C18.9136 93.5583 18.6557 93.301 18.3298 93.301Z" fill="#FFFAE6"/>
<path d="M17.9564 93.626H17.9293V93.5989C17.9293 93.4567 17.8139 93.3484 17.6781 93.3484C17.5423 93.3484 17.4269 93.4635 17.4269 93.5989V93.626H17.3997C17.2572 93.626 17.1486 93.7343 17.1486 93.8765C17.1486 94.0187 17.264 94.1271 17.3997 94.1271H17.4269V94.1609C17.4269 94.2964 17.5423 94.4115 17.6781 94.4115C17.8139 94.4115 17.9293 94.2964 17.9293 94.1609V94.1271H17.9564C18.099 94.1271 18.2076 94.012 18.2076 93.8765C18.2076 93.7411 18.0922 93.626 17.9564 93.626Z" fill="#FFD9D9"/>
<path d="M14.1207 94.3505H14.0664V94.2963C14.0664 94.0458 13.8627 93.8494 13.6183 93.8494C13.3739 93.8494 13.1703 94.0526 13.1703 94.2963V94.3505H13.116C12.8648 94.3505 12.6679 94.5536 12.6679 94.8042C12.6679 95.0547 12.8648 95.2511 13.116 95.2511H13.1703V95.3052C13.1703 95.5558 13.3672 95.7521 13.6183 95.7521C13.8695 95.7521 14.0664 95.549 14.0664 95.3052V95.2511H14.1207C14.3719 95.2511 14.5688 95.0479 14.5688 94.8042C14.5688 94.5604 14.3651 94.3505 14.1207 94.3505Z" fill="#FFFAE6"/>
<path d="M13.8356 94.6078H13.8085V94.5807C13.8085 94.4724 13.7202 94.3843 13.6116 94.3843C13.503 94.3843 13.4147 94.4724 13.4147 94.5807V94.6078H13.3875C13.2789 94.6078 13.1907 94.6958 13.1907 94.8042C13.1907 94.9125 13.2789 95.0005 13.3875 95.0005H13.4147V95.0276C13.4147 95.1359 13.503 95.224 13.6116 95.224C13.7202 95.224 13.8085 95.1359 13.8085 95.0276V95.0005H13.8356C13.9442 95.0005 14.0325 94.9125 14.0325 94.8042C14.0325 94.6958 13.9442 94.6078 13.8356 94.6078Z" fill="#FFD9D9"/>
<path d="M11.9212 93.5312H11.8465V93.4567C11.8465 93.1181 11.5749 92.8473 11.2355 92.8473C10.8961 92.8473 10.6245 93.1181 10.6245 93.4567V93.5312H10.5498C10.2104 93.5312 9.93884 93.802 9.93884 94.1406C9.93884 94.4792 10.2104 94.75 10.5498 94.75H10.6245V94.8245C10.6245 95.1631 10.8961 95.4339 11.2355 95.4339C11.5749 95.4339 11.8465 95.1631 11.8465 94.8245V94.75H11.9212C12.2606 94.75 12.5322 94.4792 12.5322 94.1406C12.5322 93.802 12.2606 93.5312 11.9212 93.5312Z" fill="#FFFAE6"/>
<path d="M11.5342 93.8765H11.5003V93.8427C11.5003 93.7005 11.3849 93.5786 11.2355 93.5786C11.0862 93.5786 10.9708 93.6937 10.9708 93.8427V93.8765H10.9368C10.7875 93.8765 10.6721 93.9984 10.6721 94.1406C10.6721 94.2828 10.7943 94.4047 10.9368 94.4047H10.9708V94.4386C10.9708 94.5808 11.0862 94.7026 11.2355 94.7026C11.3849 94.7026 11.5003 94.5808 11.5003 94.4386V94.4047H11.5342C11.6836 94.4047 11.799 94.2828 11.799 94.1406C11.799 93.9984 11.6836 93.8765 11.5342 93.8765Z" fill="#FFD9D9"/>
<path d="M15.5328 91.5269H15.4649V91.4592C15.4649 91.1477 15.2138 90.9039 14.9015 90.9039C14.5892 90.9039 14.3448 91.1545 14.3448 91.4592V91.5269H14.2769C13.9646 91.5269 13.7202 91.7774 13.7202 92.0821C13.7202 92.3868 13.9714 92.6441 14.2769 92.6441H14.3448V92.7119C14.3448 93.0233 14.596 93.2739 14.9015 93.2739C15.207 93.2739 15.4649 93.0233 15.4649 92.7119V92.6441H15.5328C15.8451 92.6441 16.0963 92.3936 16.0963 92.0821C16.0963 91.7707 15.8451 91.5269 15.5328 91.5269Z" fill="#FFFAE6"/>
<path d="M15.173 91.8451H15.1458V91.818C15.1458 91.6826 15.0372 91.5743 14.9014 91.5743C14.7657 91.5743 14.657 91.6826 14.657 91.818V91.8451H14.6299C14.4941 91.8451 14.3855 91.9535 14.3855 92.0889C14.3855 92.2243 14.4941 92.3327 14.6299 92.3327H14.657V92.3597C14.657 92.4952 14.7657 92.6035 14.9014 92.6035C15.0372 92.6035 15.1458 92.4952 15.1458 92.3597V92.3327H15.173C15.3088 92.3327 15.4174 92.2243 15.4174 92.0889C15.4174 91.9535 15.3088 91.8451 15.173 91.8451Z" fill="#FFD9D9"/>
<path d="M21.3101 91.4186H21.2422V91.3441C21.2422 91.0259 20.9842 90.7618 20.6584 90.7618C20.3325 90.7618 20.0745 91.0191 20.0745 91.3441V91.4186H20.0066C19.6876 91.4186 19.4228 91.6759 19.4228 92.0009C19.4228 92.3259 19.6808 92.5832 20.0066 92.5832H20.0745V92.651C20.0745 92.9692 20.3325 93.2333 20.6584 93.2333C20.9842 93.2333 21.2422 92.976 21.2422 92.651V92.5832H21.3101C21.6292 92.5832 21.8939 92.3259 21.8939 92.0009C21.8939 91.6759 21.6359 91.4186 21.3101 91.4186Z" fill="#FFFAE6"/>
<path d="M20.9435 91.7436H20.9163V91.7165C20.9163 91.5743 20.8009 91.466 20.6652 91.466C20.5294 91.466 20.414 91.5811 20.414 91.7165V91.7436H20.38C20.2443 91.7436 20.1288 91.852 20.1288 91.9942C20.1288 92.1364 20.2443 92.2447 20.38 92.2447H20.414V92.2786C20.414 92.414 20.5294 92.5291 20.6652 92.5291C20.8009 92.5291 20.9163 92.414 20.9163 92.2786V92.2447H20.9435C21.0793 92.2447 21.1947 92.1296 21.1947 91.9942C21.1947 91.8587 21.0793 91.7436 20.9435 91.7436Z" fill="#FFD9D9"/>
<path d="M24.7791 92.59H24.7112V92.5223C24.7112 92.204 24.4533 91.9399 24.1274 91.9399C23.8015 91.9399 23.5436 92.1972 23.5436 92.5223V92.59H23.4757C23.1498 92.59 22.8918 92.8473 22.8918 93.1723C22.8918 93.4973 23.1498 93.7546 23.4757 93.7546H23.5436V93.8223C23.5436 94.1406 23.8015 94.4047 24.1274 94.4047C24.4533 94.4047 24.7112 94.1474 24.7112 93.8223V93.7546H24.7791C25.0982 93.7546 25.363 93.4973 25.363 93.1723C25.363 92.8473 25.105 92.59 24.7791 92.59Z" fill="#FFFAE6"/>
<path d="M24.4058 92.9218H24.3786V92.8879C24.3786 92.7457 24.2632 92.6374 24.1274 92.6374C23.9917 92.6374 23.8762 92.7525 23.8762 92.8879V92.9218H23.8491C23.7065 92.9218 23.5979 93.0369 23.5979 93.1723C23.5979 93.3077 23.7065 93.4229 23.8491 93.4229H23.8762V93.4567C23.8762 93.5989 23.9917 93.7072 24.1274 93.7072C24.2632 93.7072 24.3786 93.5921 24.3786 93.4567V93.4229H24.4058C24.5483 93.4229 24.657 93.3145 24.657 93.1723C24.657 93.0301 24.5415 92.9218 24.4058 92.9218Z" fill="#FFD9D9"/>
<path d="M27.325 94.9464H27.2571V94.8787C27.2571 94.5604 26.9991 94.2963 26.6732 94.2963C26.3474 94.2963 26.0894 94.5536 26.0894 94.8787V94.9464H26.0215C25.6957 94.9464 25.4377 95.2037 25.4377 95.5287C25.4377 95.8537 25.6957 96.111 26.0215 96.111H26.0894V96.1787C26.0894 96.5038 26.3474 96.7611 26.6732 96.7611C26.9991 96.7611 27.2571 96.5038 27.2571 96.1787V96.111H27.325C27.644 96.111 27.9088 95.8537 27.9088 95.5287C27.9088 95.2037 27.6508 94.9464 27.325 94.9464Z" fill="#FFFAE6"/>
<path d="M26.9516 95.2714H26.9176V95.2443C26.9176 95.1021 26.8022 94.9938 26.6664 94.9938C26.5307 94.9938 26.4152 95.1021 26.4152 95.2443V95.2714H26.3881C26.2523 95.2714 26.1369 95.3865 26.1369 95.5219C26.1369 95.6574 26.2523 95.7725 26.3881 95.7725H26.4152V95.8063C26.4152 95.9418 26.5307 96.0569 26.6664 96.0569C26.8022 96.0569 26.9176 95.9418 26.9176 95.8063V95.7725H26.9516C27.0873 95.7725 27.2027 95.6574 27.2027 95.5219C27.2027 95.3865 27.0873 95.2714 26.9516 95.2714Z" fill="#FFD9D9"/>
<path d="M15.1119 97.3637H15.044V97.296C15.044 96.9778 14.7792 96.7137 14.4602 96.7137C14.1411 96.7137 13.8763 96.971 13.8763 97.296V97.3637H13.8084C13.4826 97.3637 13.2246 97.621 13.2246 97.946C13.2246 98.2711 13.4826 98.5284 13.8084 98.5284H13.8763V98.5961C13.8763 98.9143 14.1343 99.1784 14.4602 99.1784C14.786 99.1784 15.044 98.9211 15.044 98.5961V98.5284H15.1119C15.431 98.5284 15.6957 98.2711 15.6957 97.946C15.6957 97.621 15.4378 97.3637 15.1119 97.3637Z" fill="#FFFAE6"/>
<path d="M14.7453 97.6955H14.7182V97.6617C14.7182 97.5262 14.6027 97.4111 14.467 97.4111C14.3312 97.4111 14.2158 97.5262 14.2158 97.6617V97.6955H14.1886C14.0461 97.6955 13.9374 97.8106 13.9374 97.9461C13.9374 98.0815 14.0528 98.1966 14.1886 98.1966H14.2158V98.2237C14.2158 98.3591 14.3312 98.4742 14.467 98.4742C14.6027 98.4742 14.7182 98.3591 14.7182 98.2237V98.1966H14.7453C14.8879 98.1966 14.9965 98.0815 14.9965 97.9461C14.9965 97.8106 14.8811 97.6955 14.7453 97.6955Z" fill="#FFD9D9"/>
<path d="M20.6108 96.9236H20.5429V96.8559C20.5429 96.5376 20.2849 96.2736 19.9591 96.2736C19.6332 96.2736 19.3752 96.5309 19.3752 96.8559V96.9236H19.3073C18.9883 96.9236 18.7235 97.1809 18.7235 97.5059C18.7235 97.831 18.9815 98.0883 19.3073 98.0883H19.3752V98.1627C19.3752 98.481 19.6332 98.7451 19.9591 98.7451C20.2849 98.7451 20.5429 98.4878 20.5429 98.1627V98.0883H20.6108C20.9299 98.0883 21.1946 97.831 21.1946 97.5059C21.1946 97.1809 20.9367 96.9236 20.6108 96.9236Z" fill="#FFFAE6"/>
<path d="M20.2442 97.2554H20.2171V97.2215C20.2171 97.0793 20.1017 96.971 19.9659 96.971C19.8301 96.971 19.7147 97.0861 19.7147 97.2215V97.2554H19.6808C19.545 97.2554 19.4296 97.3637 19.4296 97.5059C19.4296 97.6481 19.545 97.7565 19.6808 97.7565H19.7147V97.7836C19.7147 97.9258 19.8301 98.0341 19.9659 98.0341C20.1017 98.0341 20.2171 97.919 20.2171 97.7836V97.7565H20.2442C20.3868 97.7565 20.4954 97.6414 20.4954 97.5059C20.4954 97.3705 20.38 97.2554 20.2442 97.2554Z" fill="#FFD9D9"/>
<path d="M25.0846 96.9236H25.0167V96.8559C25.0167 96.5376 24.7588 96.2736 24.4329 96.2736C24.107 96.2736 23.8491 96.5309 23.8491 96.8559V96.9236H23.7812C23.4621 96.9236 23.1973 97.1809 23.1973 97.5059C23.1973 97.831 23.4553 98.0883 23.7812 98.0883H23.8491V98.1627C23.8491 98.481 24.107 98.7451 24.4329 98.7451C24.7588 98.7451 25.0167 98.4878 25.0167 98.1627V98.0883H25.0846C25.4037 98.0883 25.6685 97.831 25.6685 97.5059C25.6685 97.1809 25.4105 96.9236 25.0846 96.9236Z" fill="#FFFAE6"/>
<path d="M24.7112 97.2554H24.684V97.2215C24.684 97.0793 24.5686 96.971 24.4329 96.971C24.2971 96.971 24.1817 97.0861 24.1817 97.2215V97.2554H24.1477C24.012 97.2554 23.8965 97.3637 23.8965 97.5059C23.8965 97.6481 24.012 97.7565 24.1477 97.7565H24.1817V97.7836C24.1817 97.9258 24.2971 98.0341 24.4329 98.0341C24.5686 98.0341 24.684 97.919 24.684 97.7836V97.7565H24.7112C24.8538 97.7565 24.9624 97.6414 24.9624 97.5059C24.9624 97.3705 24.847 97.2554 24.7112 97.2554Z" fill="#FFD9D9"/>
<path d="M10.8146 97.2283H10.7535V97.1673C10.7535 96.8897 10.5294 96.6663 10.2511 96.6663C9.97274 96.6663 9.74871 96.8897 9.74871 97.1673V97.2283H9.68761C9.40927 97.2283 9.18524 97.4517 9.18524 97.7294C9.18524 98.007 9.40927 98.2304 9.68761 98.2304H9.74871V98.2914C9.74871 98.569 9.97274 98.7924 10.2511 98.7924C10.5294 98.7924 10.7535 98.569 10.7535 98.2914V98.2304H10.8146C11.0929 98.2304 11.3169 98.007 11.3169 97.7294C11.3169 97.4517 11.0929 97.2283 10.8146 97.2283Z" fill="#FFFAE6"/>
<path d="M10.4955 97.5059H10.4683V97.4788C10.4683 97.3569 10.3733 97.2621 10.2511 97.2621C10.1289 97.2621 10.0338 97.3569 10.0338 97.4788V97.5059H10.0067C9.88447 97.5059 9.78943 97.6007 9.78943 97.7226C9.78943 97.8445 9.88447 97.9393 10.0067 97.9393H10.0338V97.9664C10.0338 98.0882 10.1289 98.183 10.2511 98.183C10.3733 98.183 10.4683 98.0882 10.4683 97.9664V97.9393H10.4955C10.6177 97.9393 10.7127 97.8445 10.7127 97.7226C10.7127 97.6007 10.6177 97.5059 10.4955 97.5059Z" fill="#FFD9D9"/>
<path d="M27.8409 108.706C27.6101 111.157 25.4512 112.369 22.0297 112.369H14.4805C11.0658 112.369 10.1085 110.155 9.81662 108.333L9.50433 105.205H28.2211L27.8409 108.712V108.706Z" fill="#CE200F"/>
<path d="M23.7948 108.706L24.1749 105.198H9.50433L9.81662 108.326C10.1085 110.148 11.0658 112.362 14.4805 112.362H17.9835C21.3983 112.362 23.5572 111.15 23.7948 108.699V108.706Z" fill="#FF3E24"/>
</g>
<defs>
<clipPath id="clip0_1_51253">
<rect width="146" height="120" fill="white"/>
</clipPath>
</defs>
</svg>
