<svg width="147" height="113" viewBox="0 0 147 113" fill="none" xmlns="http://www.w3.org/2000/svg">
<path d="M13.8786 5.62059C13.8336 -0.493907 25.4234 -1.39195 25.2876 1.82528L46.0938 1.89783C48.5016 1.93143 50.4456 4.11316 50.4372 6.76835L50.1633 95.4557C50.1549 98.0544 48.2208 100.16 45.8412 100.161L23.8014 100.271C23.5901 100.704 23.1918 101.097 22.5639 101.422C16.3963 101.373 13.5932 98.9418 13.5696 95.8116C13.34 95.2343 13.6314 6.76988 13.8793 5.61983L13.8786 5.62059Z" fill="#027273"/>
<path d="M16.2558 42.0128C16.767 42.0243 17.1881 41.6203 17.1927 41.1148L17.3903 17.9595C17.3949 17.4464 16.9768 17.0164 16.4618 17.005C15.9468 16.9927 15.5226 17.4036 15.518 17.9168L15.3334 41.0728C15.3296 41.5783 15.7439 42.0013 16.255 42.0136L16.2558 42.0128Z" fill="#013F40"/>
<path d="M22.9308 101.44L50.0488 101.409C52.5131 101.414 54.5173 99.2526 54.5273 96.5806L54.8568 5.36552C54.8668 2.63396 52.8541 0.394955 50.3601 0.365936L23.1635 0.0123684C20.6496 -0.0166501 18.6065 2.18646 18.6019 4.931L18.4409 96.5729C18.4363 99.2571 20.4467 101.435 22.9308 101.439V101.44Z" fill="#03C0C2"/>
<path d="M22.3825 100.792C22.5465 100.815 22.7143 100.826 22.8814 100.826L49.9925 100.753C52.1104 100.755 53.8507 98.8593 53.8591 96.5271L54.1811 5.41209C54.1895 3.02723 52.4416 1.06466 50.2992 1.03793L23.1103 0.640076C23.0477 0.640076 22.9844 0.640076 22.9226 0.642367C21.9171 0.680549 20.9802 1.1311 20.2821 1.90925C19.5687 2.70421 19.1758 3.76185 19.1743 4.88823L19.0072 96.6225C19.0034 98.734 20.4492 100.526 22.3825 100.792Z" fill="#0D0D0D"/>
<path d="M20.5757 5.3739L20.3942 96.7715L52.543 96.7692L52.8504 5.63965L20.5757 5.3739Z" fill="white"/>
<mask id="mask0_1_55379" style="mask-type:luminance" maskUnits="userSpaceOnUse" x="20" y="5" width="33" height="92">
<path d="M20.5474 5.3739L20.3658 96.7715L52.5146 96.7692L52.8221 5.63965L20.5474 5.3739Z" fill="white"/>
</mask>
<g mask="url(#mask0_1_55379)">
<path d="M53.9974 14.0802H14.7822V99.8589H53.9974V14.0802Z" fill="#E6E6E6"/>
<path d="M58.7778 89.1091L-4.82703 69.7973L-2.30703 67.7004L57.4541 83.2551L58.7778 89.1091Z" fill="#04F2F5"/>
<path d="M-5.41989 69.9105L-5.79956 71.222L66.5721 92.2125L66.9517 90.901L-5.41989 69.9105Z" fill="white"/>
<path d="M29.2444 48.0763C28.686 48.0198 28.1153 47.99 27.5339 47.99C26.9526 47.99 26.3804 48.0205 25.8211 48.0763C20.5423 48.6055 16.0097 51.644 15.3314 55.6341C14.5845 60.0227 18.6884 64.0029 24.8972 64.7642C25.5655 64.8467 26.2552 64.891 26.9587 64.891C27.6621 64.891 28.3548 64.8467 29.0323 64.7642C35.293 64.0029 39.6677 60.0227 39.2199 55.6341C38.8125 51.6448 34.4874 48.6055 29.2444 48.0763ZM29.0697 61.8142C28.4235 61.925 27.7468 61.983 27.0571 61.983C26.3674 61.983 25.699 61.925 25.0597 61.8142C21.0985 61.1369 18.4496 58.5466 18.8288 55.6341C19.1851 52.9025 22.1193 50.7445 25.7021 50.2168C26.2713 50.132 26.8595 50.0877 27.4622 50.0877C28.0649 50.0877 28.6539 50.132 29.217 50.2168C32.7639 50.7467 35.5517 52.9025 35.721 55.6341C35.9026 58.5466 33.0767 61.1338 29.069 61.8142H29.0697Z" fill="#FFD84F"/>
<path d="M29.3797 37.4692L29.218 50.2168C28.6549 50.132 28.066 50.0877 27.4632 50.0877C26.8605 50.0877 26.2723 50.132 25.7031 50.2168L26.4096 37.4692H29.3797Z" fill="#FFD84F"/>
<path d="M61.3881 56.9666H36.5811C36.6894 56.5336 36.7298 56.0853 36.6963 55.6325C36.6635 55.1835 36.5605 54.7513 36.3949 54.3397H60.4703L61.3881 56.9666Z" fill="#FFD84F"/>
<path d="M26.9856 64.1014C27.6905 64.1014 28.3825 64.0342 29.0432 63.9059L28.6717 96.7953H23.3242L24.9439 63.9059C25.5963 64.0342 26.2798 64.1014 26.9848 64.1014H26.9856Z" fill="#FFD84F"/>
<path d="M20.5587 45.8753H14.3987L15.6667 42.8398H22.1181L20.5587 45.8753Z" fill="white"/>
<path d="M24.9355 42.8398H23.3226L21.7083 45.8753H24.7196L24.9355 42.8398Z" fill="white"/>
<path d="M22.6909 48.0295C23.3142 47.9226 23.9459 47.9073 24.5753 47.902L24.6615 46.6855H21.2764L20.2083 48.6939C20.9994 48.406 21.8318 48.1761 22.6901 48.0287L22.6909 48.0295Z" fill="white"/>
<path d="M34.1838 55.634C34.3074 58.3931 31.1397 60.7604 27.1014 60.7604C23.0632 60.7604 20.0564 58.3931 20.3677 55.634C20.6607 53.0384 23.8162 51.0438 27.4318 51.0438C31.0474 51.0438 34.0679 53.0384 34.1838 55.634Z" fill="#03E484"/>
<path d="M27.5302 51.4186C27.5302 51.4186 33.5208 52.1227 32.7663 55.2056C31.9545 58.5228 28.6281 58.5228 29.1392 56.3846C29.6268 54.3449 27.8506 53.9012 26.9122 52.9688C25.9936 52.0563 25.9685 51.4561 27.531 51.4186H27.5302Z" fill="#04F2F5"/>
<path d="M30.4094 41.9525L30.4201 47.2148C30.4201 47.2148 38.6034 48.8062 39.8798 53.6928H57.313L52.8506 42.0464L30.4094 41.9517V41.9525Z" fill="#03E484"/>
<path d="M49.3464 62.9733H41.685L40.7 58.3495H47.6412L49.3464 62.9733Z" fill="white"/>
<path d="M58.8642 62.9733H51.2036L49.3237 58.3495H56.2649L58.8642 62.9733Z" fill="white"/>
<path d="M51.9811 70.1194H43.208L41.9332 64.1363H49.7754L51.9811 70.1194Z" fill="white"/>
<path d="M62.881 70.1194H54.108L51.6757 64.1363H59.518L62.881 70.1194Z" fill="white"/>
<path d="M55.1778 80.0202L52.5876 71.7629H43.5582L44.3837 77.3718L55.1778 80.0202Z" fill="white"/>
<path d="M36.4361 64.1363C35.3016 65.2405 33.9192 66.2539 32.2896 66.8457L32.4055 70.1194H41.1297L40.0761 64.1363H36.4361Z" fill="white"/>
<path d="M-3.50472 73.1581C-3.03551 73.1681 22.0919 80.7159 22.0919 80.7159L21.3809 90.5311H-9.078L-3.50472 73.1581Z" fill="#03E484"/>
<path d="M53.924 14.2369H15.0255V42.323H53.924V14.2369Z" fill="#94F3F7"/>
<path d="M32.7532 71.656L41.2196 71.9347L41.6674 77.2321L32.6998 74.6648L32.7532 71.656Z" fill="white"/>
<path d="M19.3821 65.0696L18.0592 71.795L23.2129 73.0497L23.9087 66.3586L19.3821 65.0696Z" fill="white"/>
</g>
<path d="M43.1467 19.8404L39.5174 19.8106L27.8528 5.4342L31.4981 5.46399L43.1467 19.8404Z" fill="#F13005"/>
<path d="M39.5174 19.8106L35.8903 19.7808L24.2067 5.40369L27.8528 5.43423L39.5174 19.8106Z" fill="#F1E3E0"/>
<path d="M35.8904 19.7808L32.2611 19.7518L20.5637 5.3739L24.2068 5.40368L35.8904 19.7808Z" fill="#F13005"/>
<path d="M46.7738 19.8701L43.1467 19.8404L31.4982 5.46399L35.1412 5.49377L46.7738 19.8701Z" fill="#F1E3E0"/>
<path d="M54.0293 19.9297L50.403 19.8999L38.7865 5.52356L42.4295 5.55334L54.0293 19.9297Z" fill="#F1E3E0"/>
<path d="M64.558 20.0153L61.2858 19.9886L49.7181 5.61377L53.0025 5.6405L64.558 20.0153Z" fill="#F13005"/>
<path d="M61.2858 19.9885L57.6587 19.9595L46.075 5.58386L49.7181 5.61365L61.2858 19.9885Z" fill="#F1E3E0"/>
<path d="M50.4032 19.8999L46.7739 19.8701L35.1413 5.49377L38.7866 5.52356L50.4032 19.8999Z" fill="#F13005"/>
<path d="M57.6586 19.9595L54.0293 19.9297L42.4296 5.55334L46.0749 5.58389L57.6586 19.9595Z" fill="#F13005"/>
<path d="M35.8902 19.7808L35.8917 21.9694C35.8932 24.2886 32.2685 24.2588 32.2647 21.9396L32.2609 19.751L35.8902 19.7808Z" fill="#D62B04"/>
<path d="M39.5173 19.8105V21.9992C39.515 24.3183 35.8933 24.2886 35.8918 21.9694L35.8903 19.7808L39.5173 19.8105Z" fill="#F1C5BC"/>
<path d="M43.1463 19.8404L43.1425 22.029C43.1387 24.3482 39.514 24.3184 39.5155 21.9992V19.8106L43.1463 19.8404Z" fill="#D62B04"/>
<path d="M46.7735 19.8702L46.7674 22.0588C46.7613 24.378 43.1389 24.3482 43.1427 22.029L43.1465 19.8404L46.7735 19.8702Z" fill="#F1C5BC"/>
<path d="M50.4029 19.9L50.3945 22.0886C50.3854 24.4078 46.7614 24.378 46.7675 22.0588L46.7736 19.8702L50.4029 19.9Z" fill="#D62B04"/>
<path d="M54.029 19.9297L54.0183 22.1183C54.0068 24.4375 50.3851 24.4078 50.3943 22.0886L50.4027 19.9L54.0297 19.9297H54.029Z" fill="#F1C5BC"/>
<path d="M57.6584 19.9595L57.6446 22.1481C57.6301 24.4666 54.0062 24.4375 54.0176 22.1184L54.0283 19.9297L57.6576 19.9595H57.6584Z" fill="#D62B04"/>
<path d="M61.2853 19.9885L61.2693 22.1771C61.2525 24.4956 57.6308 24.4665 57.6453 22.1473L57.659 19.9587L61.2853 19.9885Z" fill="#F1C5BC"/>
<path d="M64.5577 20.0153L64.5394 22.2039C64.5204 24.5223 61.2527 24.4956 61.2695 22.1771L61.2855 19.9885L64.5577 20.0153Z" fill="#D62B04"/>
<path d="M32.2609 19.7518L32.5447 19.7907L20.5475 19.6846L20.5635 5.3739L32.2609 19.7518Z" fill="#F13005"/>
<path d="M31.0952 77.8553C29.3999 76.1646 32.0725 72.1065 36.0146 68.2807C37.6054 66.7366 39.4036 65.2307 41.2041 63.9333C41.2659 63.902 41.3186 63.8645 41.3583 63.8225C41.385 63.8034 41.4124 63.7836 41.4391 63.7645C41.4391 63.7454 41.4361 63.7248 41.43 63.7049C41.4384 63.6767 41.4414 63.6469 41.4376 63.6171L40.3603 57.9677L48.7283 57.8875C48.8519 57.8875 48.9678 57.8256 49.0373 57.7233C49.1067 57.6202 49.1197 57.4896 49.0731 57.3751L47.5594 53.6523C47.5022 53.5118 47.3664 53.4202 47.2146 53.4202H39.5867C39.4036 52.9742 38.9413 52.012 38.0227 50.975C36.892 49.6974 34.8214 48.0579 31.382 47.4996C30.6176 47.4683 30.6527 48.1587 31.263 48.235C33.8364 48.652 35.9147 49.731 37.4413 51.4416C38.5827 52.7207 38.971 53.8944 38.9748 53.9058C39.0244 54.0601 39.1671 54.1647 39.3296 54.1647H46.9643L48.1751 57.1429H39.8141C39.2823 57.1574 39.1244 57.5186 39.1373 57.9799L39.7157 63.1543C34.4117 66.1226 28.4661 70.0363 25.7508 72.438C22.0772 75.688 22.1192 81.3818 26.59 85.5665C36.7783 95.1022 53.28 101.518 70.543 105.795C105.174 114.374 128.165 115.919 130.461 116.128C138.292 116.772 148.46 115.582 147.525 106.731C146.59 97.8796 161.402 98.4744 162.998 98.0789C145.426 97.3755 45.8253 92.5493 31.0952 77.8568V77.8553Z" fill="#808080"/>
<path d="M162.999 98.0773C158 97.9559 148.288 98.3736 147.18 105.023C147.061 105.805 147.152 106.593 147.207 107.373C147.313 109.135 146.859 110.95 145.687 112.293C142.05 116.09 136.148 116.011 131.247 115.835C116.505 114.698 101.868 112.312 87.3889 109.337C71.2802 105.916 54.9128 102.319 40.188 94.6928C34.9093 91.875 29.6724 88.6379 25.5541 84.2462C22.6213 80.9266 22.2567 75.5032 25.7517 72.4364C23.7062 74.1317 22.6831 76.8976 23.0898 79.5215C23.9832 85.4604 30.8809 89.303 35.4632 92.4332C45.9185 98.7951 57.6571 102.719 69.4461 105.773C89.7357 110.819 110.344 114.822 131.202 116.53C136.842 116.798 145.294 116.671 147.574 110.371C148.216 108.66 147.759 106.874 147.909 105.123C148.816 99.1785 158.635 98.5935 163 98.5492V98.0765L162.999 98.0773Z" fill="#636363"/>
<path d="M40.8121 89.8757C45.1463 91.8024 50.1932 93.5404 55.6772 95.1082C55.9732 94.6577 56.4897 93.8039 56.6439 93.6038C51.3262 92.272 46.4266 90.7791 42.1976 89.109C41.7368 89.3664 41.2752 89.6214 40.8121 89.8757Z" fill="white"/>
<path d="M27.3918 78.1743C27.2903 78.1889 26.8478 78.3278 26.6609 78.3973C26.8936 79.4458 27.5299 80.6241 28.3134 81.581C28.4332 81.7222 28.5576 81.862 28.685 82.0017C28.9497 81.8169 29.2145 81.6314 29.48 81.4466C28.6506 80.5401 27.8297 79.3885 27.3926 78.1736L27.3918 78.1743Z" fill="white"/>
<path d="M33.7937 68.3241C34.4361 67.8255 35.1075 67.3184 35.8239 66.7647C35.7415 66.7373 35.6583 66.7105 35.5752 66.6846C34.8717 67.1512 34.134 67.6468 33.397 68.1645C33.529 68.2187 33.6609 68.2714 33.7937 68.3241Z" fill="white"/>
<path d="M32.5257 69.1312C31.6231 69.7765 30.732 70.4523 29.9156 71.1472C30.0942 71.261 30.2826 71.3618 30.4703 71.4573C31.2676 70.6715 32.0816 69.9873 32.9468 69.3046C32.8057 69.2481 32.6653 69.19 32.5249 69.132L32.5257 69.1312Z" fill="white"/>
<path d="M29.4793 72.6241C29.2657 72.5065 29.0536 72.379 28.8567 72.2354C27.1844 73.833 26.3528 75.2694 26.5054 77.067C26.7228 77.067 27.1737 77.041 27.3965 77.0059C27.3591 75.0601 28.5951 73.5955 29.4793 72.6241Z" fill="white"/>
<path d="M30.9381 84.1147C32.5494 85.4297 34.4804 86.6767 36.6785 87.8589C37.0767 87.6466 37.4735 87.432 37.8702 87.2174C35.5036 86.0673 33.449 84.8409 31.7705 83.5351C31.4928 83.7283 31.2158 83.9207 30.9381 84.1139V84.1147Z" fill="white"/>
<path d="M64.6333 95.4282C64.0215 95.9505 63.4103 96.4728 62.7985 96.9952C69.5627 98.6614 76.7618 100.109 83.9609 101.365C84.6376 100.923 86.2589 99.5457 86.7563 99.1838C79.2528 98.1452 71.7134 96.9043 64.6341 95.4282H64.6333Z" fill="white"/>
<path d="M134.79 103.963C127.754 103.473 111.95 102.118 102.405 101.094C101.215 101.971 100.023 102.846 98.8314 103.721C107.81 105.016 123.22 106.67 130.258 107.471C131.758 106.287 133.272 105.122 134.79 103.963V103.963Z" fill="white"/>
<path d="M31.421 48.5335C32.9346 48.5335 34.1615 48.1404 34.1615 47.6554C34.1615 47.1703 32.9346 46.7772 31.421 46.7772C29.9075 46.7772 28.6805 47.1703 28.6805 47.6554C28.6805 48.1404 29.9075 48.5335 31.421 48.5335Z" fill="#222222"/>
<path d="M32.4066 47.5798C32.4066 47.7715 31.9213 47.9273 31.3224 47.9273C30.7235 47.9273 30.2383 47.7715 30.2383 47.5798C30.2383 47.3881 30.7235 47.2324 31.3224 47.2324C31.9213 47.2324 32.4066 47.3881 32.4066 47.5798Z" fill="white"/>
<path d="M31.3218 31.7623C28.2006 31.7623 25.6692 34.2961 25.6692 37.4202C25.6692 40.5442 31.3218 46.2601 31.3218 46.2601C31.3218 46.2601 36.976 40.5458 36.976 37.4202C36.976 34.2946 34.4445 31.7623 31.3218 31.7623ZM31.3218 40.6007C29.5602 40.6007 28.1327 39.172 28.1327 37.4087C28.1327 35.6455 29.5602 34.2167 31.3218 34.2167C33.0834 34.2167 34.5124 35.6455 34.5124 37.4087C34.5124 39.172 33.0834 40.6007 31.3218 40.6007Z" fill="#FF3305"/>
<path d="M74.0602 24.9262C74.064 24.8758 74.067 24.8254 74.067 24.7742C74.067 23.7028 73.1996 22.8345 72.1291 22.8345C71.0587 22.8345 70.1913 23.7028 70.1913 24.7742C70.1913 24.8254 70.1936 24.8758 70.1981 24.9262H74.0609H74.0602Z" fill="white"/>
<path d="M80.4269 24.9262C80.4307 24.8758 80.4337 24.8254 80.4337 24.7742C80.4337 23.7028 79.5663 22.8345 78.4959 22.8345C77.4254 22.8345 76.558 23.7028 76.558 24.7742C76.558 24.8254 76.5603 24.8758 76.5641 24.9262H80.4269Z" fill="white"/>
<path d="M82.0757 24.9262C82.0811 24.8766 82.0841 24.8254 82.0841 24.7743C82.0841 24.0167 81.4707 23.4028 80.7139 23.4028C79.957 23.4028 79.3436 24.0167 79.3436 24.7743C79.3436 24.8254 79.3467 24.8766 79.352 24.9262H82.0757Z" fill="white"/>
<path d="M78.1976 24.9261C78.2129 24.8077 78.2205 24.6871 78.2205 24.5649C78.2205 22.9956 76.9495 21.7234 75.3816 21.7234C73.8138 21.7234 72.5427 22.9956 72.5427 24.5649C72.5427 24.6871 72.5504 24.8077 72.5656 24.9261H78.1976Z" fill="white"/>
<path d="M95.4424 17.8304C95.4485 17.7486 95.4531 17.6662 95.4531 17.5822C95.4531 15.835 94.0378 14.4184 92.2922 14.4184C90.5466 14.4184 89.1313 15.835 89.1313 17.5822C89.1313 17.6654 89.1359 17.7479 89.142 17.8304H95.4432H95.4424Z" fill="white"/>
<path d="M105.827 17.8304C105.834 17.7486 105.838 17.6662 105.838 17.5822C105.838 15.835 104.423 14.4184 102.677 14.4184C100.932 14.4184 99.5164 15.835 99.5164 17.5822C99.5164 17.6654 99.521 17.7479 99.5271 17.8304H105.828H105.827Z" fill="white"/>
<path d="M108.516 17.8304C108.525 17.7487 108.53 17.6662 108.53 17.5822C108.53 16.3466 107.529 15.3447 106.295 15.3447C105.06 15.3447 104.059 16.3466 104.059 17.5822C104.059 17.6662 104.064 17.7487 104.073 17.8304H108.515H108.516Z" fill="white"/>
<path d="M102.191 17.8304C102.216 17.6372 102.229 17.4402 102.229 17.2409C102.229 14.6811 100.156 12.6063 97.5986 12.6063C95.0412 12.6063 92.9683 14.6811 92.9683 17.2409C92.9683 17.441 92.9812 17.6372 93.0056 17.8304H102.193H102.191Z" fill="white"/>
<path d="M6.24621 81.6581C6.2424 81.6092 6.24011 81.5596 6.24011 81.5092C6.24011 80.4592 7.09079 79.6077 8.13983 79.6077C9.18888 79.6077 10.0396 80.4592 10.0396 81.5092C10.0396 81.5596 10.0373 81.6092 10.0335 81.6581H6.24698H6.24621Z" fill="white"/>
<path d="M0.00610367 81.6581C0.00228896 81.6092 0 81.5596 0 81.5092C0 80.4592 0.850678 79.6077 1.89972 79.6077C2.94877 79.6077 3.79944 80.4592 3.79944 81.5092C3.79944 81.5596 3.79716 81.6092 3.79334 81.6581H0.00686619H0.00610367Z" fill="white"/>
<path d="M2.19034 81.6581C2.17584 81.5421 2.16821 81.4237 2.16821 81.3038C2.16821 79.7658 3.4141 78.5188 4.95066 78.5188C6.48722 78.5188 7.7331 79.7658 7.7331 81.3038C7.7331 81.4237 7.72547 81.5421 7.71098 81.6581H2.19034Z" fill="white"/>
<path style="mix-blend-mode:screen" opacity="0.5" d="M108.563 43.0903C93.3106 42.4871 77.2767 40.7047 60.8284 38.2939L60.1723 39.4394C76.6595 44.2923 89.9438 47.1903 102.311 48.3152C103.13 47.2194 106.775 43.8273 108.563 43.0903Z" fill="url(#paint0_linear_1_55379)"/>
<path style="mix-blend-mode:screen" opacity="0.5" d="M116.67 31.8946C101.418 31.2913 91.6345 31.0011 76.5367 29.2898L76.1376 29.987C92.9544 32.9301 101.446 33.6311 113.812 34.756C114.021 33.89 115.322 32.3764 116.671 31.8946H116.67Z" fill="url(#paint1_linear_1_55379)"/>
<path style="mix-blend-mode:screen" opacity="0.5" d="M74.7185 76.2653C61.0183 75.3001 47.94 72.9633 37.7998 65.9111L37.4008 66.6083C47.5936 75.6895 57.6454 81.271 71.3692 83.203C71.5782 82.3371 73.3429 78.2241 74.7192 76.2653H74.7185Z" fill="url(#paint2_linear_1_55379)"/>
<g style="mix-blend-mode:soft-light" opacity="0.6">
<path d="M76.6205 92.9097L131.142 98.4797C137.922 99.7168 132.394 105.97 119.378 105.093C119.378 105.093 87.5489 101.231 71.0038 98.6736C65.0238 97.7496 66.5604 91.6351 76.6205 92.9097Z" fill="#222222"/>
</g>
<path d="M87.4947 67.7943L69.8029 66.2296L70.1042 47.7646L87.7968 49.3294L87.4947 67.7943Z" fill="#DE7F04"/>
<path d="M69.4488 47.075L69.3855 50.9551L88.2942 52.6275L88.3606 48.558L69.4488 47.075Z" fill="#DE7F04"/>
<path d="M78.5456 67.1505L63.8887 65.85L64.1916 47.3843L78.8485 48.6856L78.5456 67.1505Z" fill="#FFA305"/>
<path d="M63.6512 46.6207L63.5864 50.5848L79.2511 51.9754L79.3159 47.8487L63.6512 46.6207Z" fill="#FFA305"/>
<path d="M64.1506 50.5427L64.1346 50.7222L82.4914 52.3523L82.5073 52.1728L64.1506 50.5427Z" fill="#DE7F04"/>
<path d="M67.0618 66.131L65.9639 66.034L66.2806 46.8207L67.3777 46.9184L67.0618 66.131Z" fill="white"/>
<path d="M76.2482 66.9558L75.1503 66.8581L75.4654 47.5615L76.5633 47.6593L76.2482 66.9558Z" fill="white"/>
<path d="M92.5312 90.7718C93.9016 86.5603 91.8185 82.1051 87.8786 80.8207C83.9386 79.5363 79.6337 81.9091 78.2633 86.1206C76.893 90.3321 78.976 94.7874 82.916 96.0718C86.8559 97.3562 91.1608 94.9833 92.5312 90.7718Z" fill="#222222"/>
<path d="M94.8167 89.0282C94.3894 93.6352 90.6968 97.1434 85.862 96.8402C81.0273 96.5371 77.4537 92.557 77.8809 87.9507C78.3081 83.3436 82.5737 79.8553 87.4085 80.1577C92.2433 80.4608 95.2439 84.4211 94.8167 89.0274V89.0282Z" fill="#222222"/>
<path d="M90.442 90.0904C91.411 87.1125 89.9383 83.9622 87.1526 83.0541C84.3669 82.146 81.3231 83.8239 80.3541 86.8019C79.3851 89.7798 80.8578 92.9301 83.6435 93.8382C86.4292 94.7463 89.473 93.0684 90.442 90.0904Z" fill="#CCCCCC"/>
<path d="M87.5404 89.1843C87.9921 87.7959 87.3054 86.3272 86.0065 85.9038C84.7076 85.4804 83.2884 86.2626 82.8366 87.6509C82.3849 89.0392 83.0716 90.5079 84.3705 90.9314C85.6694 91.3548 87.0886 90.5726 87.5404 89.1843Z" fill="#737373"/>
<path d="M106.864 86.9869C105.505 87.1091 90.6137 86.9044 106.877 70.3066C88.4377 68.6304 79.5548 65.1291 72.0536 86.6181L105.387 89.3763C106.979 89.4764 107.305 87.5665 106.864 86.9869H106.864Z" fill="#E82728"/>
<path d="M109.549 70.4654L91.3598 68.9779C89.3976 68.8152 89.7516 64.6282 91.7138 64.7908L109.903 66.2784C112.25 66.4724 111.896 70.6594 109.549 70.4654Z" fill="#222222"/>
<path d="M87.7632 69.2963L72.1648 68.0637C71.7284 68.0294 71.4049 67.6475 71.4423 67.2123C71.4797 66.7762 71.8642 66.4509 72.3006 66.4853L87.899 67.7178C88.3354 67.7522 88.6589 68.134 88.6215 68.5693C88.5841 69.0053 88.1996 69.3306 87.7632 69.2963Z" fill="#222222"/>
<path d="M74.0178 67.1279L73.3436 67.6483L79.0447 75.0475L79.7189 74.527L74.0178 67.1279Z" fill="#222222"/>
<path d="M103.602 70.176C103.602 70.176 88.0266 86.489 103.611 87.2687C106.701 87.3512 106.865 86.9869 106.865 86.9869C102.397 86.2202 98.1699 84.5241 101.788 78.7403C104.782 73.9538 109.832 70.4273 109.832 70.4273L103.603 70.176H103.602Z" fill="#B81F20"/>
<path d="M94.9219 88.4859C95.1676 87.969 95.3835 87.4382 95.5636 86.8937C97.5526 80.8999 94.5184 76.3448 89.0542 75.2046C76.7365 72.635 73.1675 86.1484 73.066 86.6769L94.9219 88.4859Z" fill="#B81F20"/>
<path d="M92.0601 88.2484C92.3057 87.7314 92.5216 87.2007 92.7017 86.6562C94.6907 80.6624 91.7762 75.4291 86.1923 74.9671C80.6076 74.5051 74.4682 78.9892 72.4792 84.9823C72.2984 85.5268 72.1595 86.0644 72.058 86.5928L92.0601 88.2477V88.2484Z" fill="#E82728"/>
<path d="M87.6343 80.5486L80.3993 80.1065C80.2582 80.0981 80.1529 79.9766 80.1659 79.8369L80.1682 79.8125C80.1811 79.6727 80.307 79.5658 80.4482 79.5742L87.6831 80.0163C87.8243 80.0247 87.9296 80.1462 87.9166 80.2859L87.9143 80.3103C87.9013 80.4501 87.7754 80.557 87.6343 80.5486Z" fill="#222222"/>
<path d="M87.5236 81.7583L80.2886 81.3161C80.1475 81.3077 80.0422 81.1863 80.0552 81.0465L80.0574 81.0221C80.0704 80.8824 80.1963 80.7754 80.3375 80.7838L87.5724 81.226C87.7136 81.2344 87.8188 81.3558 87.8059 81.4956L87.8036 81.52C87.7906 81.6597 87.6647 81.7667 87.5236 81.7583Z" fill="#222222"/>
<path d="M87.4137 82.9678L80.1787 82.5256C80.0376 82.5172 79.9323 82.3958 79.9453 82.2561L79.9476 82.2316C79.9606 82.0919 80.0864 81.985 80.2276 81.9934L87.4626 82.4355C87.6037 82.4439 87.709 82.5653 87.696 82.7051L87.6937 82.7295C87.6807 82.8693 87.5549 82.9762 87.4137 82.9678Z" fill="#222222"/>
<path d="M87.3032 84.1782L80.0682 83.7361C79.9271 83.7277 79.8218 83.6063 79.8348 83.4665L79.8371 83.4421C79.85 83.3023 79.9759 83.1954 80.1171 83.2038L87.352 83.646C87.4932 83.6544 87.5985 83.7758 87.5855 83.9155L87.5832 83.94C87.5702 84.0797 87.4443 84.1866 87.3032 84.1782Z" fill="#222222"/>
<path d="M113.859 46.3075C113.859 46.3075 111.679 54.0348 112.554 57.0146C114.345 60.0126 127.893 59.7255 127.893 59.7255L128.887 57.5285L119.944 54.8221L120.847 49.3972C121.749 44.5145 116.236 42.8383 113.86 46.3075H113.859Z" fill="#32613F"/>
<path d="M104.863 86.8356L110.383 87.3029C111.839 85.364 121.733 72.0545 121.991 68.9655C122.208 66.3768 121.202 63.8522 114.746 61.1367C110.418 59.3161 105.428 60.2165 105.428 60.2165C105.428 60.2165 101.779 64.0584 104.811 66.3363C107.844 68.6143 113.606 69.9583 113.606 69.9583L104.863 86.8348V86.8356Z" fill="#024545"/>
<path d="M104.84 86.8775L116.014 87.745C116.014 87.745 119.406 86.372 117.051 83.4335C115.209 81.7054 111.502 82.5736 110.115 84.4782L106.277 84.2361L104.84 86.8775Z" fill="#222222"/>
<path d="M98.7124 86.4507L104.232 86.9181C105.689 84.9792 115.582 71.6696 115.84 68.5807C116.057 65.9919 115.051 63.4673 108.596 60.7518C104.267 58.9313 101.198 59.391 99.6875 59.743C98.1769 60.0951 95.6279 63.6743 98.6605 65.9522C101.693 68.2302 107.455 69.5742 107.455 69.5742L98.7124 86.4507Z" fill="#027273"/>
<path d="M98.6896 86.4928L109.864 87.3603C109.864 87.3603 113.255 85.9872 110.9 83.0487C109.059 81.3206 105.351 82.1889 103.965 84.0934L100.126 83.8513C98.2471 84.7654 98.6263 85.6253 98.6896 86.4928Z" fill="#222222"/>
<path d="M113.719 61.171C116.462 60.0362 118.284 54.1493 120.058 50.5128C123.231 44.0203 113.198 39.3835 107.833 45.1093C102.887 50.102 97.6733 54.8801 98.3226 60.6357C102.994 62.9083 111.627 62.2401 113.718 61.1718L113.719 61.171Z" fill="#56A66B"/>
<path d="M111.716 61.8392L111.628 61.6819C112.567 61.1565 112.923 60.0149 113.336 58.693C113.722 57.4605 114.157 56.0638 115.177 54.9664C117.813 51.2269 118.574 48.5457 118.749 46.9543C118.937 45.2345 118.498 44.3861 118.495 44.3777L118.653 44.293C118.672 44.3289 119.119 45.1857 118.93 46.9527C118.757 48.5694 117.99 51.2902 115.321 55.0756L115.313 55.0848C114.319 56.1531 113.889 57.5307 113.509 58.7465C113.085 60.105 112.718 61.2779 111.717 61.8385L111.716 61.8392Z" fill="#386B45"/>
<path d="M107.946 45.7057C107.946 45.7057 100.44 52.9779 102.754 57.0207C104.615 60.2738 116.172 60.9626 116.949 60.0829L117.942 57.8859C117.103 55.8973 112.818 55.1001 109.424 54.3212L113.29 50.7847C116.655 47.5163 112.17 41.9662 107.946 45.705L107.946 45.7057Z" fill="#417D51"/>
<path d="M119.027 46.4252C119.027 46.4252 119.664 46.8108 119.577 47.7585C120.891 46.7039 119.579 43.2331 116.236 42.0197C113.066 40.8689 119.027 46.4252 119.027 46.4252Z" fill="#417D51"/>
<path d="M115.295 42.703C114.325 43.7423 119.027 46.425 119.027 46.425L122.332 41.9585L118.492 39.4392L115.296 42.703H115.295Z" fill="#FFA794"/>
<path d="M117.253 38.1135C117.253 38.1135 118.283 44.8878 123.851 44.3151C126.344 44.0585 127.438 40.3579 127.421 38.1945C127.385 33.4377 123.262 31.0941 120.771 32.1479C116.642 33.8959 117.234 37.4736 117.253 38.1135Z" fill="#FFA794"/>
<path d="M118.052 40.6878C118.052 40.6878 119.127 43.7546 121.846 44.3227C122.943 44.4762 123.227 44.3495 123.227 44.3495C122.773 44.335 119.764 43.4125 119.288 40.0547C119.118 39.4072 117.835 39.8951 118.052 40.6878Z" fill="#222222"/>
<path d="M119.679 40.4136C120.287 39.3835 120.601 37.999 120.955 36.5496C122.77 36.7909 125.171 37.0475 127.751 37.0177C128.483 37.0215 128.87 31.7272 122.959 30.907C120.573 30.5756 117.598 31.3835 116.339 33.7294C114.982 36.2563 115.323 39.1154 116.53 40.3938C117.299 41.2086 118.853 41.3827 119.679 40.4136Z" fill="#E82728"/>
<mask id="mask1_1_55379" style="mask-type:luminance" maskUnits="userSpaceOnUse" x="115" y="30" width="14" height="12">
<path d="M119.679 40.4136C120.287 39.3835 120.601 37.999 120.955 36.5496C122.77 36.7909 125.171 37.0475 127.751 37.0177C128.483 37.0215 128.87 31.7272 122.959 30.907C120.573 30.5756 117.598 31.3835 116.339 33.7294C114.982 36.2563 115.323 39.1154 116.53 40.3938C117.299 41.2086 118.853 41.3827 119.679 40.4136Z" fill="white"/>
</mask>
<g mask="url(#mask1_1_55379)">
<path d="M126.099 36.9589L125.768 37.0261C126.329 34.8872 124.997 33.24 124.124 32.5336C122.625 31.3202 120.493 30.7329 119.469 31.2514L119.338 30.991C120.472 30.4175 122.702 31.0078 124.307 32.3068C125.235 33.0582 126.702 34.6611 126.099 36.9597V36.9589Z" fill="white"/>
<path d="M126.689 37.159L126.409 37.0765C126.859 35.5454 126.479 34.0288 125.338 32.8055C124.036 31.4095 122.029 30.7215 120.345 31.0934L120.283 30.8085C122.064 30.4145 124.181 31.1369 125.551 32.6061C126.765 33.9074 127.169 35.524 126.689 37.1582L126.689 37.159Z" fill="white"/>
</g>
<path d="M124.723 40.212C124.466 40.2158 124.26 40.1753 124.244 40.1715C124.191 40.1608 124.157 40.1097 124.167 40.057C124.178 40.0043 124.228 39.9699 124.282 39.9806C124.289 39.9821 125.026 40.1257 125.401 39.8302C125.432 39.8057 125.447 39.7729 125.45 39.7271C125.469 39.3926 124.842 38.6984 124.598 38.4594C124.56 38.422 124.559 38.3602 124.597 38.322C124.634 38.2838 124.696 38.283 124.734 38.3204C124.83 38.4151 125.67 39.2559 125.644 39.7378C125.638 39.8393 125.595 39.9241 125.52 39.9829C125.296 40.1593 124.982 40.2074 124.722 40.2112L124.723 40.212Z" fill="#B3523D"/>
<path d="M122.431 38.0494C122.406 38.3159 122.226 38.5213 122.028 38.5091C121.83 38.4968 121.69 38.2708 121.714 38.0043C121.739 37.7378 121.92 37.5324 122.117 37.5446C122.315 37.5568 122.455 37.7828 122.431 38.0494Z" fill="#222222"/>
<path d="M126.664 38.3793C126.642 38.6068 126.488 38.7825 126.32 38.7718C126.15 38.7611 126.03 38.5679 126.052 38.3403C126.073 38.1127 126.227 37.9371 126.396 37.9478C126.565 37.9585 126.685 38.1517 126.664 38.3793Z" fill="#222222"/>
<path d="M122.009 40.5961C122.009 40.5961 123.094 41.9264 125.556 41.7599C125.556 41.7599 124.16 43.6622 122.504 42.8733C120.848 42.0845 122.009 40.5961 122.009 40.5961Z" fill="#B33A20"/>
<path d="M120.954 36.5496C123.683 36.8329 126.311 37.0826 127.887 36.9841C127.887 36.9841 129.696 37.5392 129.218 37.9096C128.74 38.28 120.954 36.5496 120.954 36.5496Z" fill="#222222"/>
<path d="M116.236 42.0196C116.236 42.0196 115.222 41.5462 114.734 42.5603C114.865 45.1009 116.797 47.5064 117.792 47.7447C117.953 47.3338 118.299 46.8275 119.026 46.4251C119.026 46.4251 116.241 44.1143 116.235 42.0196H116.236Z" fill="#417D51"/>
<path d="M134.971 94.8296C136.258 90.8756 134.302 86.6927 130.603 85.4868C126.904 84.2809 122.862 86.5087 121.576 90.4627C120.289 94.4167 122.245 98.5996 125.944 99.8055C129.643 101.011 133.685 98.7837 134.971 94.8296Z" fill="#222222"/>
<path d="M137.114 93.1901C136.713 97.5154 133.246 100.81 128.707 100.525C124.167 100.241 120.812 96.5035 121.213 92.1783C121.614 87.853 125.619 84.5777 130.158 84.8618C134.698 85.1458 137.515 88.8648 137.114 93.1901Z" fill="#222222"/>
<path d="M133.009 94.189C133.919 91.3932 132.536 88.4355 129.921 87.5829C127.305 86.7303 124.447 88.3056 123.538 91.1015C122.628 93.8974 124.011 96.8551 126.626 97.7077C129.242 98.5603 132.099 96.9849 133.009 94.189Z" fill="#CCCCCC"/>
<path d="M130.286 93.3378C130.71 92.0341 130.065 90.655 128.846 90.2574C127.626 89.8598 126.293 90.5944 125.869 91.8981C125.445 93.2018 126.09 94.581 127.309 94.9785C128.529 95.3761 129.861 94.6415 130.286 93.3378Z" fill="#737373"/>
<path d="M131.903 86.8549C130.477 88.6609 128.545 90.0049 126.309 90.5662C126.174 90.5998 126.037 90.6319 125.9 90.6594C125.679 90.7052 125.458 90.7426 125.234 90.7709C124.733 90.8373 124.226 90.864 123.719 90.8511C123.527 90.8465 123.335 90.8358 123.143 90.8205L122.998 90.8083L114.167 90.0775H114.166L105.741 89.4933C101.779 89.2451 102.246 87.7346 106.034 87.2077C117.83 87.2566 123.11 74.7092 120.127 68.1158C119.11 65.7043 121.805 63.8547 124.394 63.4607C124.732 63.4087 125.069 63.382 125.395 63.3828C125.62 63.3828 125.839 63.395 126.052 63.4217C126.118 63.4309 126.184 63.4393 126.248 63.4507C126.576 63.4943 126.897 63.563 127.205 63.6607C128.133 63.9555 128.943 64.5069 129.48 65.3675L133.473 74.4006C135.414 78.7916 134.49 83.5812 131.903 86.8549Z" fill="#E82728"/>
<path d="M131.151 81.6223C131.118 81.8438 131.078 82.0622 131.032 82.2767L132.128 82.3241C132.154 82.182 132.178 82.0423 132.199 81.9048C132.688 78.6334 131.788 75.9675 131.749 75.856L127.205 63.6614C126.897 63.5636 126.157 63.4651 125.933 63.4659L130.77 76.3073C130.817 76.4494 131.575 78.7968 131.151 81.6223Z" fill="white"/>
<path d="M131.302 55.5362C131.185 55.5224 131.065 55.5194 130.944 55.527C130.74 55.5408 130.538 55.5858 130.339 55.6599C128.865 56.2074 127.632 58.3403 127.461 60.8137C127.342 62.5006 127.745 63.9622 128.461 64.8343C128.688 65.1115 128.947 65.3284 129.231 65.475L127.313 64.8061L127.149 64.7488C125.826 64.2272 124.954 62.3876 125.099 60.144C125.269 57.5232 126.766 55.3056 128.49 55.0574C128.802 55.0673 129.125 55.0933 129.459 55.1368C130.043 55.2124 130.657 55.3422 131.303 55.5354L131.302 55.5362Z" fill="#FF6162"/>
<path d="M127.149 64.7488L121.5 62.7809C121.5 62.7809 119.524 61.8828 120.652 59.1895C120.652 59.1895 123.197 54.8879 128.491 55.0581C126.766 55.3063 125.27 57.524 125.099 60.1448C124.954 62.3884 125.827 64.2287 127.15 64.7496L127.149 64.7488Z" fill="#E82728"/>
<path d="M131.302 55.537C131.255 55.773 131.179 56.167 131.083 56.6672C130.71 58.632 130.047 62.2227 129.687 64.1807C129.535 65.0077 129.436 65.5446 129.436 65.5446L129.232 65.4743C128.948 65.3277 128.689 65.1108 128.462 64.8336C127.745 63.9615 127.343 62.4999 127.462 60.813C127.634 58.3396 128.866 56.2067 130.34 55.6592C130.538 55.5851 130.74 55.5393 130.945 55.5263C131.066 55.5179 131.186 55.5217 131.303 55.5362L131.302 55.537Z" fill="#E82728"/>
<path d="M133.719 60.3976C133.524 63.2025 131.964 65.569 130.236 65.6843C129.878 65.708 129.541 65.6331 129.232 65.4743C128.948 65.3277 128.689 65.1108 128.462 64.8336C127.745 63.9615 127.343 62.4999 127.462 60.813C127.634 58.3396 128.866 56.2067 130.34 55.6592C130.538 55.5851 130.74 55.5393 130.945 55.5263C131.066 55.5179 131.186 55.5217 131.303 55.5362C132.841 55.7218 133.901 57.789 133.72 60.3968L133.719 60.3976Z" fill="#FF6162"/>
<path d="M133.384 60.4289C133.222 62.7557 131.928 64.7198 130.494 64.8152C130.197 64.8351 129.917 64.7725 129.662 64.6411C129.426 64.5197 129.211 64.3395 129.022 64.1096C128.428 63.3857 128.095 62.1738 128.192 60.774C128.335 58.7214 129.358 56.9528 130.581 56.4976C130.745 56.4365 130.913 56.3984 131.083 56.3869C131.184 56.38 131.283 56.3831 131.38 56.3953C132.655 56.5488 133.536 58.2647 133.385 60.4281L133.384 60.4289Z" fill="white"/>
<path d="M122.792 61.4666L116.07 61.6163L116.086 58.6992L122.806 58.9305C124.11 58.9015 124.034 61.4399 122.792 61.4674V61.4666Z" fill="#222222"/>
<path d="M116.998 60.1736C117.018 59.3678 116.617 58.7044 116.102 58.6917C115.588 58.6791 115.155 59.3219 115.135 60.1277C115.115 60.9334 115.516 61.5968 116.031 61.6095C116.545 61.6222 116.978 60.9793 116.998 60.1736Z" fill="#222222"/>
<path d="M133.063 84.6311C132.799 85.3994 132.392 86.1462 131.903 86.8549C130.477 88.6601 128.545 90.0049 126.31 90.5662C125.956 90.6555 125.598 90.7242 125.236 90.7716C124.543 90.8625 123.841 90.8785 123.145 90.822L123 90.8098L114.169 90.079C114.256 90.0736 119.708 90.5372 123.73 84.2447C127.192 78.9909 134.507 80.4334 133.064 84.6327L133.063 84.6311Z" fill="#B81F20"/>
<path d="M139.797 91.9163C139.858 91.8621 139.896 91.8033 139.905 91.7391C140.653 86.4692 134.415 80.8381 129.559 81.3925C125.317 82.5112 122.679 86.2722 122.11 90.7364L139.797 91.917L139.797 91.9163Z" fill="#E82728"/>
<path d="M116.77 58.5488C116.77 58.5488 117.742 57.1208 119.977 57.9043C122.212 58.6885 121.451 61.1933 120.851 61.5102C120.25 61.8271 118.17 62.1165 118.473 61.5629C118.777 61.01 119.096 60.0868 118.586 59.3247C118.237 58.8031 116.754 58.7214 116.754 58.7214L116.77 58.548V58.5488Z" fill="#FFA794"/>
<path d="M88.5729 68.5945L87.6803 68.4922L88.2181 63.7821L84.4462 63.5461L83.9197 68.1577L83.0271 68.0554L83.6024 63.0192C83.6298 62.7817 83.8381 62.6076 84.0769 62.6213L88.7476 62.9138C88.8705 62.9214 88.9849 62.9795 89.0642 63.0742C89.1436 63.1688 89.1802 63.2918 89.1665 63.414L88.5744 68.5945H88.5729Z" fill="#222222"/>
<g style="mix-blend-mode:soft-light" opacity="0.8">
<path d="M78.0047 87.1137L94.9222 88.486L94.2538 91.4665L77.8529 89.0205L78.0047 87.1137Z" fill="#222222"/>
</g>
<g style="mix-blend-mode:soft-light" opacity="0.8">
<path d="M121.483 90.6837L137.145 91.7497C137.186 92.8517 137.091 93.8734 136.816 94.7868L121.176 92.602C121.222 91.907 121.311 91.2549 121.483 90.6829V90.6837Z" fill="#222222"/>
</g>
<path d="M80.0285 41.9159C81.8888 40.0538 81.8888 37.0348 80.0285 35.1727C78.1681 33.3106 75.1518 33.3106 73.2914 35.1727C71.431 37.0348 71.431 40.0538 73.2914 41.9159C75.1518 43.778 78.1681 43.778 80.0285 41.9159Z" fill="#56A66B"/>
<path d="M76.4024 40.7856L74.183 37.3141L74.5553 36.92L76.3947 38.6619L81.9558 33.7036L82.3175 34.1648L76.4024 40.7856Z" fill="white"/>
<path style="mix-blend-mode:screen" opacity="0.5" d="M131.082 56.3877L155.691 55.2674L153.168 70.8671L130.163 64.8221L131.082 56.3877Z" fill="url(#paint3_linear_1_55379)"/>
<path d="M58.0637 28.0916H41.5445C40.8277 28.0916 40.2467 28.6732 40.2467 29.3906V39.043C40.2467 39.7604 40.8277 40.342 41.5445 40.342H58.0637C58.7804 40.342 59.3614 39.7604 59.3614 39.043V29.3906C59.3614 28.6732 58.7804 28.0916 58.0637 28.0916Z" fill="white"/>
<path d="M43.8928 36.9805L44.0767 37.5464H44.671L44.1904 37.8961L44.3742 38.462L43.8928 38.1123L43.4122 38.462L43.596 37.8961L43.1146 37.5464H43.7097L43.8928 36.9805Z" fill="#FDF280"/>
<path d="M46.8156 36.9805L46.9987 37.5464H47.5937L47.1123 37.8961L47.2962 38.462L46.8156 38.1123L46.3341 38.462L46.518 37.8961L46.0374 37.5464H46.6317L46.8156 36.9805Z" fill="#FDF280"/>
<path d="M49.7376 36.9805L49.9215 37.5464H50.5158L50.0352 37.8961L50.2183 38.462L49.7376 38.1123L49.257 38.462L49.4401 37.8961L48.9594 37.5464H49.5537L49.7376 36.9805Z" fill="#FDF280"/>
<path d="M52.6596 36.9805L52.8435 37.5464H53.4378L52.9572 37.8961L53.1411 38.462L52.6596 38.1123L52.179 38.462L52.3629 37.8961L51.8822 37.5464H52.4765L52.6596 36.9805Z" fill="#FDF280"/>
<path d="M55.5827 36.9805L55.7666 37.5464H56.3609L55.8795 37.8961L56.0634 38.462L55.5827 38.1123L55.1013 38.462L55.2852 37.8961L54.8045 37.5464H55.3988L55.5827 36.9805Z" fill="#FDF280"/>
<path d="M56.0259 31.1303H51.906C51.7206 31.1303 51.571 30.9798 51.571 30.795C51.571 30.6095 51.7213 30.4598 51.906 30.4598H56.0259C56.2113 30.4598 56.3608 30.6102 56.3608 30.795C56.3608 30.9806 56.2105 31.1303 56.0259 31.1303Z" fill="#94F3F7"/>
<path d="M56.0259 32.5964H50.6837C50.4983 32.5964 50.3488 32.4459 50.3488 32.2611C50.3488 32.0756 50.4991 31.9259 50.6837 31.9259H56.0259C56.2113 31.9259 56.3608 32.0763 56.3608 32.2611C56.3608 32.4467 56.2105 32.5964 56.0259 32.5964Z" fill="#94F3F7"/>
<path d="M56.0259 34.0627H50.6837C50.4983 34.0627 50.3488 33.9123 50.3488 33.7274C50.3488 33.5419 50.4991 33.3922 50.6837 33.3922H56.0259C56.2113 33.3922 56.3608 33.5426 56.3608 33.7274C56.3608 33.913 56.2105 34.0627 56.0259 34.0627Z" fill="#94F3F7"/>
<path d="M56.0259 35.5288H50.6837C50.4983 35.5288 50.3488 35.3783 50.3488 35.1935C50.3488 35.008 50.4991 34.8583 50.6837 34.8583H56.0259C56.2113 34.8583 56.3608 35.0087 56.3608 35.1935C56.3608 35.3791 56.2105 35.5288 56.0259 35.5288Z" fill="#94F3F7"/>
<path d="M48.72 30.2184H42.6584V35.6769H48.72V30.2184Z" fill="#94F3F7"/>
<defs>
<linearGradient id="paint0_linear_1_55379" x1="104.806" y1="45.9337" x2="41.7059" y2="34.0339" gradientUnits="userSpaceOnUse">
<stop stop-color="white"/>
<stop offset="1"/>
</linearGradient>
<linearGradient id="paint1_linear_1_55379" x1="113.556" y1="34.18" x2="60.981" y2="24.2649" gradientUnits="userSpaceOnUse">
<stop stop-color="white"/>
<stop offset="1"/>
</linearGradient>
<linearGradient id="paint2_linear_1_55379" x1="71.85" y1="77.8562" x2="21.5297" y2="68.367" gradientUnits="userSpaceOnUse">
<stop stop-color="white"/>
<stop offset="1"/>
</linearGradient>
<linearGradient id="paint3_linear_1_55379" x1="131.253" y1="63.7871" x2="156.256" y2="63.0102" gradientUnits="userSpaceOnUse">
<stop stop-color="white"/>
<stop offset="1"/>
</linearGradient>
</defs>
</svg>
