<svg width="119" height="138" viewBox="0 0 119 138" fill="none" xmlns="http://www.w3.org/2000/svg">
<path d="M106.591 53.5781H14.9801V137.24H106.591V53.5781Z" fill="#FDE0A7"/>
<path d="M12.7761 137.531C12.5182 137.531 12.3098 137.322 12.3098 137.064V132.349C12.3098 132.09 12.5182 131.882 12.7761 131.882C13.2439 132.341 109.359 130.997 109.259 132.347V137.064C109.357 138.417 13.2423 137.069 12.7745 137.531H12.7761Z" fill="#2E0F07"/>
<path d="M108.794 132.35V137.066H12.776V132.35H108.794ZM108.794 131.418C107.86 132.317 11.6508 129.678 11.8466 132.349C11.845 132.35 11.845 137.068 11.845 137.068C11.6524 139.748 107.86 137.096 108.797 138.001C109.309 138 109.726 137.582 109.726 137.068V132.352C109.726 131.837 109.309 131.42 108.795 131.42L108.794 131.418Z" fill="#2E0F07"/>
<path d="M14.9801 53.5781V93.1506C21.1546 91.2829 65.6068 79.2522 106.591 106.185V53.5781H14.9801Z" fill="#FAC14E"/>
<path d="M106.591 137.998C105.821 137.249 14.0682 139.426 14.2257 137.243C14.9562 136.479 12.8126 52.6602 14.9784 52.8243C15.7503 53.5701 107.503 51.3948 107.347 53.5781C106.617 54.3415 108.76 138.161 106.593 138L106.591 137.998ZM15.7359 136.483H105.834V54.3367H15.7359V136.483Z" fill="#2E0F07"/>
<path d="M105.307 40.2932H16.2626C16.2626 28.2004 26.0512 18.3977 38.1267 18.3977C58.0811 20.8552 104.701 7.88424 105.307 40.2932Z" fill="#2E0F07"/>
<path d="M105.307 41.0502C104.532 40.306 15.3571 42.4814 15.5067 40.2948C16.1719 7.11614 63.0033 20.0233 83.443 17.6392C95.9163 17.6392 106.063 27.802 106.063 40.2932C106.063 40.7124 105.724 41.0502 105.307 41.0502ZM17.0329 39.5347H104.538C104.137 28.2291 94.8294 19.1548 83.4446 19.1548H38.1267C26.7419 19.1548 17.4323 28.2291 17.0329 39.5347Z" fill="#2E0F07"/>
<path d="M79.8306 19.2535L73.952 15.8542L80.3351 4.78295L86.2359 8.19501L88.5721 4.16142L84.1751 1.61951C75.8585 -2.97824 72.3145 10.8278 68.7561 15.5418C68.1132 16.6574 68.4951 18.0838 69.6091 18.726L77.496 23.2871L79.8322 19.2535H79.8306Z" fill="#E6D6FC"/>
<path d="M68.4696 16.3579C68.3295 17.279 68.7513 18.2336 69.6058 18.7276L77.585 23.3413L79.9021 19.2966L74.7174 16.2989C72.7234 17.1643 70.3426 16.9953 68.4696 16.3579Z" fill="#CEACF9"/>
<path d="M88.5735 4.16463L85.6056 2.44824C85.5213 3.49369 84.8958 5.09215 83.906 6.84997C83.9203 6.85794 86.2437 8.20141 86.2565 8.20937L88.5735 4.16463Z" fill="#FBD07A"/>
<path d="M77.7872 24.2146C77.6551 24.2146 77.5246 24.1796 77.4084 24.1126L69.2271 19.3826C67.7535 18.5316 67.2474 16.6383 68.0972 15.1626L74.7715 3.58772C75.7279 1.9287 77.2716 0.743011 79.1192 0.247378C80.9668 -0.248254 82.8955 0.0067334 84.5522 0.962938L88.9715 3.5176C89.3295 3.72477 89.4552 4.18216 89.2531 4.54392C85.5929 11.113 87.5583 9.33929 80.6103 5.81727L74.9848 15.5753L80.2093 18.5953C80.553 18.7946 80.6851 19.2248 80.5117 19.5834C80.1345 20.0042 78.6068 24.4441 77.7888 24.213L77.7872 24.2146ZM80.9811 1.51594C78.9887 1.50638 77.0663 2.60283 76.0828 4.34471L69.4085 15.9196C68.9757 16.6718 69.2335 17.636 69.9846 18.0694L77.4626 22.3931L78.8407 19.5563L73.5716 16.5092C73.2104 16.3005 73.0862 15.8367 73.2947 15.4749L79.6778 4.40368C79.8862 4.04192 80.3493 3.91761 80.7122 4.12638L86.0306 7.20058L87.5695 4.45627C85.8826 3.5925 82.9751 1.34383 80.9843 1.51594H80.9811Z" fill="#2E0F07"/>
<path d="M83.0865 35.5393C106.257 51.6417 106.615 34.9655 117.632 18.2686L89.7385 2.14221C85.7839 11.1401 69.5247 27.4035 83.0865 35.5408V35.5393Z" fill="#E3D0FC"/>
<path d="M99.7817 14.7164C99.6353 23.2712 86.9297 23.2696 86.7849 14.7164C86.9313 6.16153 99.6369 6.16313 99.7817 14.7164Z" fill="white"/>
<path d="M83.0865 35.5393C103.771 49.5238 105.161 39.4884 115.221 22.4489C106.302 29.6953 85.1696 33.2747 78.4906 21.8162C76.3676 26.8251 78.2614 32.7488 83.0865 35.5393Z" fill="#CEACF9"/>
<path d="M97.514 42.9562C93.3366 43.4263 86.2725 37.9473 82.7094 36.1958C77.2127 33.1663 75.1885 25.6059 78.4381 20.2304L89.0845 1.76292C89.2818 1.40753 89.7703 1.27366 90.1189 1.48562L118.013 17.6136C118.374 17.8224 118.498 18.2861 118.29 18.6479L107.643 37.1154C105.484 40.8605 101.553 42.9562 97.5156 42.9578L97.514 42.9562ZM90.017 3.17651L79.7478 20.9874C76.9199 25.6664 78.6816 32.2467 83.4653 34.8827L92.4534 40.0796C105.511 47.299 111.068 25.966 116.598 18.5443L90.0154 3.17491L90.017 3.17651Z" fill="#2E0F07"/>
<path d="M107.806 45.412H97.4472L101.527 70.7052H113.036L107.806 45.412Z" fill="#DD989C"/>
<path d="M113.036 71.4622H101.527C101.157 71.4622 100.84 71.1929 100.781 70.8247L96.7008 45.5315C96.6196 45.0869 96.9952 44.6407 97.4471 44.6534H107.805C108.164 44.6534 108.474 44.9052 108.547 45.2574L113.78 70.5506C113.885 71.0032 113.504 71.4749 113.038 71.4622H113.036ZM102.17 69.9466H112.105L107.186 46.169H98.332L102.169 69.9466H102.17Z" fill="#2E0F07"/>
<path d="M97.3293 45.4119H86.9694L89.8864 70.7051H101.397L97.3293 45.4119Z" fill="#DD989C"/>
<path d="M101.397 71.4621H89.888C89.5045 71.4621 89.1798 71.1737 89.1369 70.7912L86.2199 45.498C86.161 45.0629 86.5318 44.6422 86.971 44.6534H97.3293C97.7001 44.6534 98.0168 44.9227 98.0757 45.2908L102.143 70.584C102.224 71.0287 101.849 71.4733 101.397 71.4621ZM90.5612 69.9466H100.507L96.6832 46.1689H87.8192L90.5612 69.9466Z" fill="#2E0F07"/>
<path d="M86.8516 45.4119H76.4933L78.2454 70.7051H89.7559L86.8516 45.4119Z" fill="#DD989C"/>
<path d="M89.756 71.4622H78.2471C77.8492 71.4622 77.5198 71.1546 77.4927 70.7562L75.7406 45.463C75.7263 45.2526 75.7995 45.047 75.9427 44.894C76.086 44.741 76.2865 44.6534 76.4965 44.6534H86.8549C87.24 44.6534 87.563 44.9418 87.606 45.3243L90.5103 70.6175C90.5692 71.0526 90.1984 71.4717 89.7592 71.4622H89.756ZM78.952 69.9466H88.9062L86.1769 46.169H77.3034L78.9505 69.9466H78.952Z" fill="#2E0F07"/>
<path d="M76.3757 45.4119H66.0174L66.6062 70.7051H78.1151L76.3757 45.4119Z" fill="#DD989C"/>
<path d="M78.115 71.4622H66.6061C66.1955 71.4622 65.8597 71.1339 65.8502 70.7227L65.2614 45.4295C65.2439 45.0167 65.6051 44.6454 66.0173 44.6534H76.3756C76.7735 44.6534 77.1029 44.961 77.1299 45.3594L78.8693 70.6526C78.9075 71.0765 78.5415 71.4717 78.115 71.4622ZM67.3445 69.9466H77.3034L75.6674 46.169H66.7891L67.3429 69.9466H67.3445Z" fill="#2E0F07"/>
<path d="M65.8979 45.4119H55.5396L54.9651 70.7051H66.474L65.8979 45.4119Z" fill="#DD989C"/>
<path d="M66.474 71.4622H54.9651C54.7614 71.4622 54.5656 71.3793 54.424 71.2343C54.2824 71.0877 54.2044 70.8916 54.2092 70.6876L54.7852 45.3944C54.7948 44.9833 55.1306 44.6534 55.5412 44.6534H65.8995C66.3101 44.6534 66.6458 44.9817 66.6554 45.3944L67.2315 70.6876C67.249 71.1004 66.8877 71.4717 66.4756 71.4622H66.474ZM55.7385 69.9466H65.699L65.1579 46.169H56.278L55.7369 69.9466H55.7385Z" fill="#2E0F07"/>
<path d="M55.422 45.4119H45.0636L43.3242 70.7051H54.8331L55.422 45.4119Z" fill="#DD989C"/>
<path d="M54.8329 71.4622H43.324C43.114 71.4622 42.9134 71.3745 42.7702 71.2215C42.0589 70.5793 44.5383 46.0749 44.3075 45.3594C44.3346 44.9625 44.6656 44.655 45.0634 44.655H55.4217C55.8339 44.647 56.1968 45.0167 56.1777 45.4311L55.5888 70.7243C55.5793 71.1355 55.2435 71.4638 54.8329 71.4638V71.4622ZM44.134 69.9466H54.0929L54.6467 46.169H45.7684L44.1325 69.9466H44.134Z" fill="#2E0F07"/>
<path d="M44.9457 45.4119H34.5874L31.6831 70.7051H43.192L44.9457 45.4119Z" fill="#DD989C"/>
<path d="M43.192 71.4622H31.6831C31.4667 71.4622 31.2614 71.3697 31.1182 71.2088C30.9749 71.0478 30.9065 70.8327 30.932 70.6175L33.8362 45.3243C33.8808 44.9418 34.2039 44.6534 34.5874 44.6534H44.9457C45.3706 44.6454 45.7398 45.0375 45.7 45.463L43.9479 70.7562C43.9209 71.153 43.5899 71.4622 43.1936 71.4622H43.192ZM32.5313 69.9466H42.4854L44.1325 46.169H35.2589L32.5297 69.9466H32.5313Z" fill="#2E0F07"/>
<path d="M34.4682 45.4119H24.1099L20.0423 70.7051H31.5528L34.4682 45.4119Z" fill="#DD989C"/>
<path d="M31.5526 71.4622H20.0437C19.8225 71.4622 19.6109 71.3649 19.4676 71.196C19.3244 71.0271 19.2608 70.804 19.2974 70.584L23.3649 45.2908C23.4238 44.9243 23.7405 44.6534 24.1113 44.6534C24.5203 44.8398 34.9311 44.2773 35.0346 44.9068C35.1778 45.0677 35.2462 45.2829 35.2224 45.498L32.3053 70.7912C32.2608 71.1737 31.9377 71.4622 31.5542 71.4622H31.5526ZM20.9317 69.9466H30.8779L33.6198 46.169H24.7558L20.9317 69.9466Z" fill="#2E0F07"/>
<path d="M23.9919 45.412H13.6335L8.40105 70.7052H19.9115L23.9919 45.412Z" fill="#DD989C"/>
<path d="M19.9116 71.4622H8.40111C8.17354 71.4622 7.9587 71.3602 7.81388 71.1833C7.67066 71.0064 7.61337 70.7737 7.65952 70.5506L12.892 45.2574C12.9652 44.9052 13.2739 44.6534 13.6336 44.6534H23.9919C24.4439 44.6438 24.8226 45.0853 24.7383 45.5315L20.658 70.8247C20.5991 71.1913 20.2824 71.4622 19.9116 71.4622ZM9.33207 69.9466H19.2671L23.1039 46.169H14.2495L9.33048 69.9466H9.33207Z" fill="#2E0F07"/>
<path d="M14.251 46.1706L10.8391 69.9434H9.33363L14.251 46.1706Z" fill="#F8E8E9"/>
<path d="M24.708 46.1706L20.9619 69.9434H22.835L24.708 46.1706Z" fill="#F8E8E9"/>
<path d="M32.5058 69.9434L35.3306 46.1706L34.468 69.9434H32.5058Z" fill="#F8E8E9"/>
<path d="M45.8241 46.1706L44.1118 69.9434H45.8241V46.1706Z" fill="#F8E8E9"/>
<path d="M55.7767 69.9434L56.2684 46.1706L57.9569 69.9434H55.7767Z" fill="#F8E8E9"/>
<path d="M66.7907 46.1706L67.3508 69.9434H69.531L66.7907 46.1706Z" fill="#F8E8E9"/>
<path d="M77.3034 46.1706L78.9568 69.9514H81.1052L77.3034 46.1706Z" fill="#F8E8E9"/>
<path d="M87.7986 46.1706L90.531 69.9514H93.2936L87.7986 46.1706Z" fill="#F8E8E9"/>
<path d="M98.3288 46.1706L102.197 69.9514H104.898L98.3288 46.1706Z" fill="#F8E8E9"/>
<path d="M112.678 40.0494H7.91269V45.4122H112.678V40.0494Z" fill="#A7B2BD"/>
<path d="M90.0887 40.0494C57.6148 44.9675 8.40282 42.824 8.40282 42.824V45.4122H113.169V40.0494H90.0887Z" fill="#7E8E9E"/>
<path d="M113.169 46.1691C112.406 45.4344 7.48453 47.5875 7.64685 45.4137C7.64526 45.4121 7.64526 40.0494 7.64526 40.0494C7.47658 37.874 112.416 40.0255 113.17 39.2908C113.587 39.2908 113.924 39.6318 113.924 40.0494V45.4121C113.924 45.8312 113.585 46.1691 113.169 46.1691ZM9.15867 44.6535H112.413V40.8064H9.15867V44.6535Z" fill="#2E0F07"/>
<path d="M96.9475 131.992H75.0341V97.487C75.0341 91.4262 79.9404 86.5145 85.9908 86.5145C92.0429 86.5145 96.9475 91.4278 96.9475 97.487V131.992Z" fill="#CEACF9"/>
<path d="M96.9475 132.75H75.0341C74.6156 132.75 74.2782 132.411 74.2782 131.993V97.4886C74.5503 82.0826 97.4313 82.0666 97.705 97.4886V131.992C97.705 132.411 97.366 132.749 96.9491 132.749L96.9475 132.75ZM75.79 131.235H96.1916V97.4886C96.1916 91.8566 91.6164 87.2732 85.9908 87.2732C80.3652 87.2732 75.79 91.855 75.79 97.4886V131.235Z" fill="#2E0F07"/>
<path d="M93.9509 129.786H78.0546C77.7968 129.786 77.5883 129.577 77.5883 129.319C77.5883 129.061 77.7968 128.852 78.0546 128.852H93.9509C94.5509 128.843 94.5588 129.794 93.9509 129.784V129.786Z" fill="#EADCFD"/>
<path d="M93.9509 106.182H78.115C77.8572 106.182 77.6487 105.973 77.6487 105.715C77.6487 105.457 77.8572 105.248 78.115 105.248H93.9509C94.5509 105.239 94.5588 106.19 93.9509 106.18V106.182Z" fill="#EADCFD"/>
<path d="M93.8331 105.159H78.1484C77.9892 98.7157 77.2238 90.3393 85.9907 89.9329C94.7561 90.3377 93.9922 98.7252 93.8331 105.159Z" fill="#78CDEF"/>
<path d="M93.8331 105.624H78.1484C77.8906 105.624 77.6821 105.415 77.6821 105.157V97.785C77.8779 86.8523 94.1037 86.8508 94.2978 97.785V105.157C94.2978 105.415 94.0893 105.624 93.8315 105.624H93.8331ZM78.6147 104.692H93.3684C93.5244 98.6376 94.2182 90.7855 85.9908 90.3983C77.7649 90.7839 78.4587 98.6439 78.6147 104.692Z" fill="#2E0F07"/>
<path d="M85.9908 105.508C85.733 105.508 85.5245 105.299 85.5245 105.041V89.9313C85.5245 89.6731 85.733 89.4644 85.9908 89.4644C86.2486 89.4644 86.4571 89.6731 86.4571 89.9313V105.041C86.4571 105.299 86.2486 105.508 85.9908 105.508Z" fill="#2E0F07"/>
<path d="M93.8331 98.0112H78.1484C77.8906 98.0112 77.6821 97.8025 77.6821 97.5443C77.6821 97.2861 77.8906 97.0773 78.1484 97.0773H93.8331C94.4331 97.0678 94.441 98.0192 93.8331 98.0096V98.0112Z" fill="#2E0F07"/>
<path d="M93.8332 129.329H78.1485C77.8907 129.329 77.6822 129.12 77.6822 128.862V112.009C77.6822 111.75 77.8907 111.542 78.1485 111.542H93.8332C94.091 111.542 94.2995 111.75 94.2995 112.009V128.862C94.2995 129.12 94.091 129.329 93.8332 129.329ZM78.6147 128.396H93.3685V112.476H78.6147V128.396Z" fill="#2E0F07"/>
<path d="M93.8332 110.316C91.68 110.305 91.6816 107.03 93.8332 107.019C95.9847 107.03 95.9847 110.305 93.8332 110.316ZM93.8332 107.951C92.9054 107.938 92.9054 109.397 93.8332 109.384C94.761 109.397 94.761 107.938 93.8332 107.951Z" fill="#2E0F07"/>
<path d="M61.2607 90.7281H29.503V120.716H61.2607V90.7281Z" fill="#78CDEF"/>
<path d="M61.2623 121.473H29.5046C29.086 121.473 28.7487 121.134 28.7487 120.716V90.7282C28.7487 90.3091 29.0876 89.9712 29.5046 89.9712H61.2623C61.6808 89.9712 62.0182 90.3106 62.0182 90.7282V120.716C62.0182 121.135 61.6792 121.473 61.2623 121.473ZM30.2605 119.958H60.5048V91.4852H30.2605V119.958Z" fill="#2E0F07"/>
<path d="M30.2032 116.031L60.4077 96.1005H30.2032V116.031Z" fill="#D1EEFA"/>
<path d="M39.6402 117.723C39.2216 117.723 38.8843 117.384 38.8843 116.966V90.7298C38.8843 90.3106 39.2232 89.9728 39.6402 89.9728C40.0571 89.9728 40.3961 90.3122 40.3961 90.7298V116.966C40.3961 117.386 40.0571 117.723 39.6402 117.723Z" fill="#2E0F07"/>
<path d="M50.9183 117.723C50.4998 117.723 50.1624 117.384 50.1624 116.966V90.7298C50.1624 90.3106 50.5014 89.9728 50.9183 89.9728C51.3352 89.9728 51.6742 90.3122 51.6742 90.7298V116.966C51.6742 117.386 51.3352 117.723 50.9183 117.723Z" fill="#2E0F07"/>
<path d="M64.2906 116.847H26.4761V120.973H64.2906V116.847Z" fill="#BDC6CE"/>
<path d="M64.2891 121.73H26.4745C26.056 121.73 25.7186 121.39 25.7186 120.973V116.847C25.7186 116.428 26.0576 116.09 26.4745 116.09H64.2891C64.7076 116.09 65.045 116.429 65.045 116.847V120.973C65.045 121.392 64.706 121.73 64.2891 121.73ZM27.232 120.214H63.5331V117.604H27.232V120.214Z" fill="#2E0F07"/>
<path d="M65.1723 95.5013H26.4745C26.4745 90.4892 30.5326 86.4253 35.5375 86.4253H56.1078C61.1127 86.4253 65.1707 90.4892 65.1707 95.5013H65.1723Z" fill="#DEC8FB"/>
<path d="M58.786 86.8268C54.8664 93.9538 31.5001 94.9243 26.7005 93.4964C26.5556 94.1418 26.4761 94.8111 26.4761 95.5012H65.1738C65.1738 91.4214 62.486 87.9711 58.786 86.8268Z" fill="#BD90F7"/>
<path d="M29.1401 95.7884C28.8775 95.7884 28.6659 95.57 28.6738 95.3071C28.5242 89.8121 32.3993 85.7673 36.3013 86.0494C36.9013 86.0765 36.8535 87.0184 36.2504 86.9801C32.7748 86.7506 29.4584 90.4607 29.6064 95.3358C29.5984 95.5876 29.3915 95.7868 29.1417 95.7868L29.1401 95.7884Z" fill="#2E0F07"/>
<path d="M37.3309 95.8471C37.0715 95.8471 36.8615 95.6335 36.8646 95.3738C36.9331 91.0071 37.7272 88.1098 39.2278 86.7631C40.3132 85.8882 41.3062 85.7639 41.3603 86.5592C41.3364 86.8126 41.1136 86.999 40.8622 86.9799C38.6661 87.7257 38.0884 89.7816 37.7956 95.3865C37.7924 95.6415 37.5839 95.8455 37.3309 95.8455V95.8471Z" fill="#2E0F07"/>
<path d="M45.5218 95.9045C45.264 95.9045 45.0555 95.6957 45.0555 95.4375V86.513C45.0555 86.2548 45.264 86.046 45.5218 86.046C45.7796 86.046 45.9881 86.2548 45.9881 86.513V95.4375C45.9881 95.6957 45.7796 95.9045 45.5218 95.9045Z" fill="#2E0F07"/>
<path d="M53.7127 95.9634C53.4596 95.9634 53.2512 95.7594 53.248 95.5044C52.9361 89.7672 52.3807 87.8579 50.1734 86.9798C48.9942 86.7455 49.9729 85.1296 51.8173 86.8109C52.8485 87.7671 54.0946 90.0492 54.1789 95.49C54.1837 95.7498 53.9736 95.9634 53.7127 95.9634Z" fill="#2E0F07"/>
<path d="M61.9035 96.0223C61.6536 96.0223 61.4468 95.8231 61.4388 95.5697C61.6091 90.8126 58.334 86.8715 54.7773 86.9814C54.1773 87.0037 54.1534 86.0523 54.7582 86.0491C58.4438 86.2037 62.2441 88.9847 62.3682 95.5411C62.3777 95.804 62.1645 96.0223 61.9019 96.0223H61.9035Z" fill="#2E0F07"/>
<path d="M65.1723 96.2582H26.4745C26.056 96.2582 25.7186 95.9188 25.7186 95.5012C26.0258 80.8856 47.0814 86.7981 56.1093 85.6666C61.5248 85.6666 65.9298 90.0795 65.9298 95.5012C65.9298 95.9203 65.5908 96.2598 65.1739 96.2598L65.1723 96.2582ZM27.2655 94.7426H64.3814C63.9978 90.5098 60.4347 87.1822 56.1093 87.1822H35.5391C31.2137 87.1822 27.649 90.5098 27.267 94.7426H27.2655Z" fill="#2E0F07"/>
<path d="M107.282 79.9358C101.925 79.6793 101.185 75.1612 101.528 70.7451H113.036C113.38 75.1644 112.634 79.6824 107.282 79.9358Z" fill="#C3484F"/>
<path d="M107.282 80.6944C101.563 80.4697 100.321 75.5931 100.772 70.7451C100.772 70.326 101.111 69.9881 101.528 69.9881H113.037C113.455 69.9881 113.792 70.3276 113.792 70.7451C114.243 75.5899 113 80.4713 107.28 80.6944H107.282ZM102.284 71.5037C101.941 75.2345 102.866 79.0051 107.282 79.1788C111.697 79.0051 112.623 75.2329 112.281 71.5037H102.285H102.284Z" fill="#2E0F07"/>
<path d="M95.6411 79.9358C90.2845 79.6793 89.5445 75.1612 89.8866 70.7451H101.396C101.739 75.1644 100.993 79.6824 95.6411 79.9358Z" fill="#C3484F"/>
<path d="M95.6411 80.6944C89.9216 80.4697 88.6803 75.5931 89.1307 70.7451C89.1307 70.326 89.4697 69.9881 89.8866 69.9881H101.396C101.814 69.9881 102.151 70.3276 102.151 70.7451C102.602 75.5899 101.359 80.4713 95.6395 80.6944H95.6411ZM90.6425 71.5037C90.3004 75.2345 91.225 79.0051 95.6411 79.1788C100.056 79.0051 100.982 75.2329 100.64 71.5037H90.6441H90.6425Z" fill="#2E0F07"/>
<path d="M84.0016 79.9358C78.645 79.6793 77.905 75.1612 78.2472 70.7451H89.7561C90.0998 75.1644 89.3535 79.6824 84.0016 79.9358Z" fill="#C3484F"/>
<path d="M84.0016 80.6944C78.2822 80.4697 77.0409 75.5931 77.4913 70.7451C77.4913 70.326 77.8302 69.9881 78.2472 69.9881H89.7561C90.1746 69.9881 90.512 70.3276 90.512 70.7451C90.9624 75.5899 89.7195 80.4713 84.0001 80.6944H84.0016ZM79.0031 71.5037C78.6609 75.2345 79.5855 79.0051 84.0016 79.1788C88.4161 79.0051 89.3423 75.2329 89.0002 71.5037H79.0047H79.0031Z" fill="#2E0F07"/>
<path d="M72.3606 79.9358C67.004 79.6793 66.264 75.1612 66.6062 70.7451H78.1151C78.4588 75.1644 77.7125 79.6824 72.3606 79.9358Z" fill="#C3484F"/>
<path d="M72.3606 80.6944C66.6412 80.4697 65.3999 75.5931 65.8503 70.7451C65.8503 70.326 66.1892 69.9881 66.6062 69.9881H78.1151C78.5336 69.9881 78.871 70.3276 78.871 70.7451C79.3214 75.5899 78.0785 80.4713 72.359 80.6944H72.3606ZM67.3621 71.5037C67.0199 75.2345 67.9445 79.0051 72.3606 79.1788C76.7751 79.0051 77.7013 75.2329 77.3592 71.5037H67.3637H67.3621Z" fill="#2E0F07"/>
<path d="M60.7196 79.9358C55.363 79.6793 54.623 75.1612 54.9651 70.7451H66.474C66.8178 75.1644 66.0714 79.6824 60.7196 79.9358Z" fill="#C3484F"/>
<path d="M60.7196 80.6944C55.0002 80.4697 53.7589 75.5931 54.2093 70.7451C54.2093 70.326 54.5482 69.9881 54.9652 69.9881H66.4741C66.8926 69.9881 67.23 70.3276 67.23 70.7451C67.6803 75.5899 66.4375 80.4713 60.718 80.6944H60.7196ZM55.7211 71.5037C55.3789 75.2345 56.3035 79.0051 60.7196 79.1788C65.1341 79.0051 66.0603 75.2329 65.7182 71.5037H55.7227H55.7211Z" fill="#2E0F07"/>
<path d="M49.0786 79.9358C43.722 79.6793 42.982 75.1612 43.3241 70.7451H54.833C55.1768 75.1644 54.4304 79.6824 49.0786 79.9358Z" fill="#C3484F"/>
<path d="M49.0786 80.6944C43.3592 80.4697 42.1179 75.5931 42.5683 70.7451C42.5683 70.326 42.9072 69.9881 43.3242 69.9881H54.8331C55.2516 69.9881 55.589 70.3276 55.589 70.7451C56.0393 75.5899 54.7965 80.4713 49.077 80.6944H49.0786ZM44.0801 71.5037C43.7379 75.2345 44.6625 79.0051 49.0786 79.1788C53.4931 79.0051 54.4193 75.2329 54.0772 71.5037H44.0817H44.0801Z" fill="#2E0F07"/>
<path d="M37.4376 79.9358C32.081 79.6793 31.341 75.1612 31.6832 70.7451H43.1921C43.5358 75.1644 42.7895 79.6824 37.4376 79.9358Z" fill="#C3484F"/>
<path d="M37.4377 80.6944C31.7183 80.4697 30.477 75.5931 30.9274 70.7451C30.9274 70.326 31.2663 69.9881 31.6833 69.9881H43.1922C43.6107 69.9881 43.9481 70.3276 43.9481 70.7451C44.3984 75.5899 43.1556 80.4713 37.4361 80.6944H37.4377ZM32.4392 71.5037C32.097 75.2345 33.0216 79.0051 37.4377 79.1788C41.8522 79.0051 42.7784 75.2329 42.4363 71.5037H32.4408H32.4392Z" fill="#2E0F07"/>
<path d="M25.7967 79.9358C20.4401 79.6793 19.7001 75.1612 20.0423 70.7451H31.5512C31.8949 75.1644 31.1486 79.6824 25.7967 79.9358Z" fill="#C3484F"/>
<path d="M25.7967 80.6944C20.0773 80.4697 18.836 75.5931 19.2863 70.7451C19.2863 70.326 19.6253 69.9881 20.0423 69.9881H31.5512C31.9697 69.9881 32.3071 70.3276 32.3071 70.7451C32.7574 75.5899 31.5146 80.4713 25.7951 80.6944H25.7967ZM20.7982 71.5037C20.456 75.2345 21.3806 79.0051 25.7967 79.1788C30.2112 79.0051 31.1374 75.2329 30.7953 71.5037H20.7998H20.7982Z" fill="#2E0F07"/>
<path d="M14.1573 79.9358C8.80066 79.6792 8.06067 75.1611 8.40281 70.7451H19.9117C20.2555 75.1643 19.5091 79.6824 14.1573 79.9358Z" fill="#C3484F"/>
<path d="M14.1573 80.6943C8.43781 80.4696 7.19653 75.593 7.64689 70.745C7.64689 70.3259 7.98586 69.988 8.4028 69.988H19.9117C20.3302 69.988 20.6676 70.3275 20.6676 70.745C21.118 75.5898 19.8751 80.4712 14.1557 80.6943H14.1573ZM9.15871 71.5036C8.81656 75.2344 9.74116 79.005 14.1573 79.1788C18.5718 79.005 19.4979 75.2328 19.1558 71.5036H9.1603H9.15871Z" fill="#2E0F07"/>
<path d="M102.263 71.5133H110.828C110.828 71.5133 101.618 72.0854 103.004 76.8441C102.215 75.762 102.201 73.2185 102.261 71.5133H102.263Z" fill="#D2767B"/>
<path d="M90.6218 71.5133H99.1866C99.1866 71.5133 89.9773 72.0854 91.3634 76.8441C90.574 75.762 90.5597 73.2185 90.6202 71.5133H90.6218Z" fill="#D2767B"/>
<path d="M78.9808 71.5133H87.5456C87.5456 71.5133 78.3362 72.0854 79.7223 76.8441C78.933 75.762 78.9187 73.2185 78.9792 71.5133H78.9808Z" fill="#D2767B"/>
<path d="M67.3413 71.5133H75.9062C75.9062 71.5133 66.6968 72.0854 68.0829 76.8441C67.2936 75.762 67.2793 73.2185 67.3397 71.5133H67.3413Z" fill="#D2767B"/>
<path d="M55.7003 71.5133H64.2652C64.2652 71.5133 55.0558 72.0854 56.4419 76.8441C55.6526 75.762 55.6383 73.2185 55.6987 71.5133H55.7003Z" fill="#D2767B"/>
<path d="M44.0594 71.5133H52.6243C52.6243 71.5133 43.4149 72.0854 44.801 76.8441C44.0117 75.762 43.9974 73.2185 44.0578 71.5133H44.0594Z" fill="#D2767B"/>
<path d="M32.4184 71.5133H40.9833C40.9833 71.5133 31.7739 72.0854 33.16 76.8441C32.3707 75.762 32.3564 73.2185 32.4168 71.5133H32.4184Z" fill="#D2767B"/>
<path d="M20.7774 71.5133H29.3423C29.3423 71.5133 20.1329 72.0854 21.519 76.8441C20.7297 75.762 20.7153 73.2185 20.7758 71.5133H20.7774Z" fill="#D2767B"/>
<path d="M9.13803 71.5132H17.7029C17.7029 71.5132 8.49352 72.0854 9.87961 76.8441C9.09029 75.762 9.07596 73.2185 9.13644 71.5132H9.13803Z" fill="#D2767B"/>
<path d="M27.2558 24.0441C23.0689 23.1421 36.3649 17.1753 36.9442 19.7459C36.984 20.1635 36.68 20.5332 36.2647 20.5747C30.2604 21.2137 28.2059 23.8959 27.2558 24.0457V24.0441Z" fill="#C0785B"/>
<path d="M66.7907 20.5778H39.4762C39.0576 20.5778 38.7202 20.2384 38.7202 19.8208C38.7202 19.4033 39.0592 19.0638 39.4762 19.0638H66.7907C67.7646 19.0495 67.7774 20.5937 66.7907 20.5794V20.5778Z" fill="#C0785B"/>
<path d="M100.321 132.293H71.6588V137.24H100.321V132.293Z" fill="#BDC6CE"/>
<path d="M100.321 137.998H71.6588C71.2403 137.998 70.9029 137.659 70.9029 137.241V132.294C70.9029 131.875 71.2419 131.537 71.6588 131.537H100.321C100.74 131.537 101.077 131.877 101.077 132.294V137.241C101.077 137.66 100.738 137.998 100.321 137.998ZM72.4147 136.483H99.5638V133.051H72.4147V136.483Z" fill="#2E0F07"/>
<path d="M115.159 137.998C114.38 137.254 -0.147787 139.429 0.000211429 137.243C-0.179615 135.048 114.411 137.228 115.161 136.481C116.108 136.468 116.165 138.012 115.161 137.998H115.159Z" fill="#2E0F07"/>
<path d="M66.7908 128.538C66.3722 128.538 66.0349 128.199 66.0349 127.781V113.054C66.0349 112.635 66.3738 112.297 66.7908 112.297C67.2077 112.297 67.5467 112.637 67.5467 113.054V127.781C67.5467 128.2 67.2077 128.538 66.7908 128.538Z" fill="#2E0F07"/>
<path d="M67.2634 104.062L60.4077 123.985H73.1738L67.2634 104.062Z" fill="#B7D867"/>
<path d="M61.0649 123.515H62.2441L67.1265 105.722" fill="#E7F2CC"/>
<path d="M62.6531 123.985H73.1722L68.3949 107.881C69.0505 113.317 68.5604 120.449 62.6531 123.985Z" fill="#9FCC34"/>
<path d="M73.1738 124.45H60.4077C60.099 124.458 59.8571 124.124 59.9669 123.832L66.8226 103.909C66.9515 103.49 67.5976 103.5 67.709 103.929L73.6194 123.851C73.7117 124.138 73.4761 124.458 73.1738 124.45ZM61.0617 123.518H72.55L67.2315 105.589L61.0617 123.518Z" fill="#2E0F07"/>
<path d="M69.356 137.083H64.2254L63.0605 127.19H70.5209L69.356 137.083Z" fill="#ABC5E1"/>
<path d="M64.2254 135.098V137.085H69.356L70.5209 127.19C70.5209 127.19 70.548 135.655 64.2254 135.098Z" fill="#88ACD5"/>
<path d="M69.356 137.55H64.2254C63.9899 137.55 63.7909 137.373 63.7623 137.139L62.5974 127.244C62.5815 127.112 62.6229 126.979 62.712 126.879C62.8011 126.779 62.9268 126.723 63.0605 126.723H70.5209C70.7914 126.717 71.0206 126.975 70.984 127.244C70.7421 127.481 70.2201 137.976 69.356 137.55ZM64.6391 136.618H68.9422L69.9973 127.655H63.584L64.6391 136.618Z" fill="#2E0F07"/>
<path d="M105.242 128.538C104.823 128.538 104.486 128.199 104.486 127.781V113.054C104.486 112.635 104.825 112.297 105.242 112.297C105.659 112.297 105.998 112.637 105.998 113.054V127.781C105.998 128.2 105.659 128.538 105.242 128.538Z" fill="#2E0F07"/>
<path d="M105.714 104.062L98.8588 123.985H111.625L105.714 104.062Z" fill="#B7D867"/>
<path d="M105.675 105.599L100.716 123.518H99.4571L105.675 105.599Z" fill="#E7F2CC"/>
<path d="M101.104 123.985H111.623L106.846 107.881C107.502 113.317 107.011 120.449 101.104 123.985Z" fill="#9FCC34"/>
<path d="M111.625 124.45H98.8588C98.5501 124.458 98.3082 124.124 98.418 123.832L105.274 103.909C105.401 103.49 106.049 103.5 106.16 103.929L112.07 123.851C112.163 124.138 111.927 124.458 111.625 124.45ZM99.5128 123.518H111.001L105.683 105.589L99.5128 123.518Z" fill="#2E0F07"/>
<path d="M107.807 137.083H102.676L101.512 127.19H108.972L107.807 137.083Z" fill="#ABC5E1"/>
<path d="M102.676 135.098V137.085H107.807L108.972 127.19C108.972 127.19 108.999 135.655 102.676 135.098Z" fill="#88ACD5"/>
<path d="M107.807 137.55H102.677C102.441 137.55 102.242 137.373 102.213 137.139L101.049 127.244C101.033 127.112 101.074 126.979 101.163 126.879C101.252 126.779 101.378 126.723 101.512 126.723H108.972C109.243 126.717 109.472 126.975 109.435 127.244C109.193 127.481 108.671 137.976 107.807 137.55ZM103.09 136.618H107.393L108.448 127.655H102.035L103.09 136.618Z" fill="#2E0F07"/>
<path d="M6.69682 133.985H5.50805V136.707H6.69682V133.985Z" fill="#2E0F07"/>
<path d="M12.5213 133.985H11.3325V136.707H12.5213V133.985Z" fill="#2E0F07"/>
<path d="M13.4188 118.909H4.75212V135.287H13.4188V118.909Z" fill="#BDC6CE"/>
<path d="M13.4204 135.754H4.75208C4.49428 135.754 4.2858 135.546 4.2858 135.287V118.909C4.2858 118.651 4.49428 118.442 4.75208 118.442H13.4188C13.6766 118.442 13.885 118.651 13.885 118.909V135.287C13.885 135.546 13.6766 135.754 13.4188 135.754H13.4204ZM5.21836 134.822H12.9541V119.376H5.21836V134.822Z" fill="#2E0F07"/>
<path d="M11.794 126.184H6.69679C6.09365 126.194 6.09206 125.242 6.69679 125.252H11.794C12.3971 125.242 12.3987 126.194 11.794 126.184Z" fill="#2E0F07"/>
<path d="M11.794 124.785H6.69679C6.09365 124.795 6.09206 123.843 6.69679 123.853H11.794C12.3971 123.843 12.3987 124.795 11.794 124.785Z" fill="#2E0F07"/>
<path d="M11.794 123.386H6.69679C6.09365 123.395 6.09206 122.444 6.69679 122.454H11.794C12.3971 122.444 12.3987 123.395 11.794 123.386Z" fill="#2E0F07"/>
<path d="M11.794 121.987H6.69677C6.09364 121.996 6.09205 121.045 6.69677 121.054H11.794C12.3971 121.045 12.3987 121.996 11.794 121.987Z" fill="#2E0F07"/>
<path d="M27.2543 36.8477C24.5729 34.7552 24.5872 28.3534 27.1843 26.237C28.4797 25.0529 30.3305 24.4601 32.7367 24.4601C33.9159 24.4091 38.8269 24.9573 37.8402 26.5765C37.6015 26.8378 36.8806 28.6036 36.4653 28.5733C33.6629 27.1422 29.8451 27.5725 30.0058 31.5487C29.8849 35.509 33.8793 35.9489 36.6642 34.5225C37.0748 34.4843 37.8132 36.2756 38.0392 36.5194C38.7457 37.6844 36.7374 37.976 35.8271 38.3171C33.1584 39.0055 29.0367 38.6342 27.2543 36.8493V36.8477Z" fill="white"/>
<path d="M38.3177 37.9155C38.3177 37.796 38.3511 37.6494 38.4179 37.4757L43.3815 25.5167C43.6233 24.9733 43.8461 24.7645 44.4381 24.7581C44.9108 24.8442 46.8936 24.5844 47.2597 24.9271C47.4124 25.0402 47.5493 25.2362 47.6687 25.5167L52.6131 37.4757C52.777 37.8613 52.7834 38.3458 52.2741 38.3347H48.5264C47.5954 38.4526 47.5525 36.8653 47.2708 36.3187H43.7427C43.4626 36.8764 43.4483 38.4462 42.5062 38.3347H38.7585C38.4657 38.3347 38.3193 38.1944 38.3193 37.9155H38.3177ZM46.2921 33.1648L45.5139 30.6898L44.7357 33.1648H46.2905H46.2921Z" fill="white"/>
<path d="M53.9769 38.0542C53.4518 38.3506 53.8019 26.1319 53.708 25.8961C53.7191 25.0801 54.0597 24.7598 54.9047 24.7582C55.3917 24.8713 63.9279 24.4665 64.025 25.0275C64.3735 25.4355 64.3703 27.4738 64.025 27.8834C63.6749 28.43 59.0853 28.0443 58.4933 28.1527V29.85C59.0996 29.9488 61.8288 29.5982 62.2315 30.1193C62.572 30.4492 62.4352 31.619 62.4606 32.1066C62.4463 32.921 62.2171 33.2397 61.3642 33.2445H58.4933V37.1968C58.4822 38.0239 58.1368 38.3331 57.2775 38.3347C56.6616 38.2534 54.4034 38.5626 53.9785 38.0558L53.9769 38.0542Z" fill="white"/>
<path d="M65.2216 38.0542C64.6965 38.3506 65.0466 26.1319 64.9527 25.8961C64.9638 25.0801 65.3044 24.7598 66.1494 24.7582C66.6364 24.8713 75.1726 24.4665 75.2696 25.0275C75.6182 25.4355 75.615 27.4738 75.2696 27.8834C74.9195 28.43 70.33 28.0443 69.738 28.1527V29.8691C70.3443 29.9679 73.0735 29.6173 73.4762 30.1384C73.8119 30.4635 73.6814 31.603 73.7053 32.0843C73.691 32.8987 73.4618 33.2174 72.6089 33.2222H69.738V34.9386C70.3682 35.0597 74.8559 34.6501 75.2505 35.2079C75.5975 35.6191 75.5959 37.6494 75.2505 38.0638C75.1758 38.6279 66.6109 38.2136 66.1494 38.3331C65.7102 38.3331 65.4015 38.2407 65.2216 38.0542Z" fill="white"/>
</svg>
