<svg xmlns="http://www.w3.org/2000/svg" viewBox="0 0 512 512" xmlns:v="https://vecta.io/nano"><path d="M444.659 444.921h0V329.629h39.828v75.464c0 21.997-17.831 39.828-39.828 39.828z" fill="#ffb555"/><path d="M444.659 422.911h0v22.01h0c21.997 0 39.828-17.831 39.828-39.828v-22.01c0 21.996-17.831 39.828-39.828 39.828z" fill="#cc8525"/><path d="M444.659 329.629h39.828v31.443h-39.828z" fill="#f9d85c"/><path d="M392.254 504.139H119.746c-28.942 0-52.405-23.463-52.405-52.405v-259.93h377.318v259.93c0 28.942-23.463 52.405-52.405 52.405z" fill="#ddb92e"/><path d="M67.341 191.803h377.318v259.93H67.341z" fill="#f9d85c"/><path d="M407.975 230.059h-303.95c-28.942 0-52.405-23.463-52.405-52.405V72.843h408.762v104.811c-.001 28.942-23.464 52.405-52.407 52.405z" fill="#ffb555"/><path d="M439.419 72.843v104.811c0 28.942-23.463 52.405-52.405 52.405h20.962c28.942 0 52.405-23.463 52.405-52.405V72.843h-20.962z" fill="#cc8525"/><path d="M72.581 177.654V72.843H51.619v104.811c0 28.942 23.463 52.405 52.405 52.405h20.962c-28.942 0-52.405-23.463-52.405-52.405z" fill="#fff"/><path d="M139.66 167.173h44.02v108.479h-44.02z" fill="#ffb555"/><path d="M139.66,319.672v41.4c0,12.156,9.854,22.01,22.01,22.01s22.01-9.854,22.01-22.01v-41.4H139.66z" fill="#cc8525"/><path d="M328.319 167.173h44.02v108.479h-44.02z" fill="#ffb555"/><path d="M328.319 319.672v41.4c0 12.156 9.854 22.01 22.01 22.01s22.01-9.854 22.01-22.01v-41.4h-44.02z" fill="#cc8525"/><path d="M119.746 275.652h83.849v44.02h-83.849z" fill="#f9d85c"/><path d="M119.746 275.652h20.962v44.02h-20.962z" fill="#fff"/><path d="M182.633 275.652h20.962v44.02h-20.962z" fill="#ddb92e"/><path d="M308.405 275.652h83.849v44.02h-83.849z" fill="#f9d85c"/><path d="M308.405 275.652h20.962v44.02h-20.962z" fill="#fff"/><path d="M371.292 275.652h20.962v44.02h-20.962z" fill="#ddb92e"/><path d="M67.341 444.921h0V329.629H27.513v75.464c0 21.997 17.831 39.828 39.828 39.828z" fill="#ffb555"/><path d="M27.513 384.131v20.962c0 21.997 17.831 39.828 39.828 39.828h0v-20.962h0c-21.997 0-39.828-17.831-39.828-39.828z" fill="#cc8525"/><path d="M27.513 329.629h39.828v31.443H27.513z" fill="#f9d85c"/><path d="M452.52 321.769V218.204c9.762-10.714 15.722-24.948 15.722-40.55V64.983H342.469v-36.16C342.469 12.929 329.538 0 313.646 0H198.354c-15.893 0-28.823 12.929-28.823 28.823v36.16H43.758v112.671c0 15.601 5.961 29.836 15.722 40.55v103.564H19.652v83.324c0 23.621 17.265 43.275 39.837 47.032C59.701 485.176 86.646 512 119.746 512h272.508c33.1 0 60.044-26.824 60.257-59.875 22.572-3.756 39.837-23.41 39.837-47.032v-83.324H452.52zm24.106 15.721v15.722H452.52V337.49h24.106zM185.253 28.823a13.12 13.12 0 0 1 13.101-13.101h115.292a13.12 13.12 0 0 1 13.101 13.101v36.16H185.253v-36.16zM59.48 80.704h393.04v96.95c0 24.562-19.982 44.545-44.545 44.545H380.2v-62.886h-59.742v62.886H191.541v-62.886h-59.742v62.886h-27.775c-24.562 0-44.545-19.982-44.545-44.545v-96.95zm276.7 246.829h28.299v33.539c0 7.802-6.347 14.149-14.149 14.149s-14.149-6.347-14.149-14.149v-33.539zm-19.914-15.721v-28.299h68.127v28.299h-68.127zm19.914-44.021v-92.757h28.299v92.757H336.18zm-188.659 59.742h28.299v33.539c0 7.802-6.347 14.149-14.149 14.149s-14.149-6.347-14.149-14.149v-33.539zm-19.914-15.721v-28.299h68.127v28.299h-68.127zm19.914-44.021v-92.757h28.299v92.757h-28.299zM59.48 337.49v15.722H35.374V337.49H59.48zm-24.106 67.603v-36.16H59.48v67.146c-13.838-3.512-24.106-16.071-24.106-30.986zm356.88 91.185H119.746c-24.562 0-44.545-19.982-44.545-44.544V230.567c8.567 4.685 18.389 7.354 28.823 7.354h27.775v29.871h-19.914v59.742h19.914v33.539c0 16.471 13.4 29.871 29.871 29.871s29.871-13.4 29.871-29.871v-33.539h19.914v-59.742h-19.914V237.92h56.598v205.953H98.784v15.722h282.989v-15.722H263.861V237.92h56.598v29.871h-19.914v59.742h19.914v33.539c0 16.471 13.4 29.871 29.871 29.871s29.871-13.4 29.871-29.871v-33.539h19.914v-59.742h-19.914V237.92h27.775c10.434 0 20.256-2.668 28.823-7.354v221.167c-.001 24.563-19.983 44.545-44.545 44.545zm60.266-60.199v-67.146h24.106v36.16c0 14.915-10.268 27.474-24.106 30.986zm-55.026 7.794h15.722v15.722h-15.722z"/></svg>