<svg xmlns="http://www.w3.org/2000/svg" xmlns:xlink="http://www.w3.org/1999/xlink" viewBox="0 0 496.067 496.067" xmlns:v="https://vecta.io/nano"><path d="M233.634 213.6c-4-8.8-8.8-21.6-12-29.6h-72c-3.2 8-8 20.8-12 29.6-23.2 52.8-24 65.6-24 100v44.8 3.2 92c0 23.2 22.4 41.6 45.6 41.6h52.8c23.2 0 45.6-18.4 45.6-41.6v-91.2-3.2-44.8c-8-33.6-.8-48-24-100.8z" fill="#246642"/><path d="M233.634 213.6c-4-8.8-8.8-21.6-12-29.6h-40l30.4 312c23.2 0 45.6-18.4 45.6-41.6v-92-3.2-44.8c0-34.4-.8-48-24-100.8z" fill="#15492a"/><path d="M201.634 36c0 8-3.2 12-10.4 12h-11.2c-7.2 0-10.4-4.8-10.4-12V12.8c0-8 3.2-12.8 10.4-12.8h11.2c7.2 0 10.4 5.6 10.4 12.8V36z" fill="#f4cf31"/><path d="M113.634 320v39.2 3.2 92 1.6h144v-1.6-92-3.2V320z" fill="#c93131"/><path d="M257.634 456v-1.6-92-3.2V320h-144" fill="#a51919"/><path d="M137.634 344v24 2.4 60.8.8h96v-.8-60.8-2.4-24z" fill="#dcfffc"/><path d="M233.634 432v-.8-60.8-2.4-24h-96" fill="#b8e0d9"/><path d="M220.034 176c-13.6-56-15.2-128.8-15.2-128.8l-11.2-1.6V44l-8 .8-8-.8v1.6l-11.2 1.6s-2.4 72.8-15.2 128.8h68.8z" fill="#f4cf31"/><path d="M177.634 176h42.4c-13.6-56-15.2-128.8-15.2-128.8l-11.2-1.6V44l-8 .8-8-.8v4" fill="#e2b22b"/><ellipse transform="matrix(.2434 -.9699 .9699 .2434 -148.2678 336.4945)" cx="141.553" cy="263.284" rx="31.999" ry="8" fill="#338956"/><path d="M207.234 44c0 2.4-1.6 4-4 4h-35.2c-2.4 0-4-1.6-4-4h0c0-2.4 1.6-4 4-4h35.2c2.4 0 4 1.6 4 4h0z" fill="#e2b22b"/><path d="M207.234 44h0c0 2.4-1.6 4-4 4h-35.2c-2.4 0-4-1.6-4-4h0" fill="#d39c20"/><path d="M200.834 40c.8-.8.8-3.2.8-4V12.8c0-8-3.2-12.8-10.4-12.8h-12.8l-.8 28.8 23.2 11.2z" fill="#e2b22b"/><path d="M177.634 386.4a7.2 7.2 0 1 0 0 14.4 7.2 7.2 0 1 0 0-14.4zm-2.4 5.6c-.8 1.6-2.4 2.4-3.2 1.6s-.8-2.4 0-4 2.4-2.4 3.2-1.6.8 2.4 0 4zm18.4-5.6a7.2 7.2 0 1 0 0 14.4 7.2 7.2 0 1 0 0-14.4zm-1.6 5.6c-.8 1.6-2.4 2.4-3.2 1.6s-.8-2.4 0-4 2.4-2.4 3.2-1.6.8 2.4 0 4z" fill="#a51919"/><path d="M168.834 370.4a7.2 7.2 0 1 0 0 14.4 7.17 7.17 0 0 0 7.2-7.2c.8-4-3.2-7.2-7.2-7.2zm-1.6 6.4c-.8 1.6-2.4 2.4-3.2 1.6s-.8-2.4 0-4 2.4-2.4 3.2-1.6.8 2.4 0 4zm18.4-6.4a7.2 7.2 0 1 0 0 14.4 7.2 7.2 0 1 0 0-14.4zm-2.4 6.4c-.8 1.6-2.4 2.4-3.2 1.6s-.8-2.4 0-4 2.4-2.4 3.2-1.6 1.6 2.4 0 4zm2.4 24.8a7.2 7.2 0 1 0 0 14.4 7.2 7.2 0 1 0 0-14.4zm-2.4 5.6c-.8 1.6-2.4 2.4-3.2 1.6s-.8-2.4 0-4 2.4-2.4 3.2-1.6c1.6.8 1.6 2.4 0 4zm18.4-36.8a7.2 7.2 0 1 0 0 14.4 7.17 7.17 0 0 0 7.2-7.2c.8-4-2.4-7.2-7.2-7.2zm-1.6 6.4c-.8 1.6-2.4 2.4-3.2 1.6s-.8-2.4 0-4 2.4-2.4 3.2-1.6.8 2.4 0 4z" fill="#c93131"/><g fill="#a51919"><use xlink:href="#B"/><use xlink:href="#C"/><use xlink:href="#B" x="32.8"/><use xlink:href="#C" x="32.8"/></g><path d="M375.234 496l.8-3.2c0 4-20-12.8-44.8-12.8s-44.8 16.8-44.8 12.8c0 .8 0 3.2.8 3.2h88zm-95.2-280c.8 64 .8 171.2 51.2 171.2 49.6 0 50.4-107.2 51.2-171.2h-102.4 0z" fill="#d5e2df"/><path d="M329.634 220v167.2h0c49.6 0 50.4-104.8 51.2-167.2h-51.2z" fill="#beccca"/><path d="M284.834 248c.8 48 8.8 129.6 46.4 129.6s46.4-81.6 46.4-129.6h-92.8z" fill="#f7e15e"/><path d="M329.634 248.8v129.6h.8c37.6 0 45.6-81.6 46.4-129.6h-47.2z" fill="#f4cf31"/><path d="M333.634 478.4c0 3.2-.8 5.6-4 5.6h0c-3.2 0-4-2.4-4-5.6v-89.6c0-3.2.8-5.6 4-5.6h0c3.2 0 4 2.4 4 5.6v89.6z" fill="#d5e2df"/><path d="M329.634 383.2h0c3.2 0 4 2.4 4 5.6v89.6c0 3.2-.8 5.6-4 5.6h0" fill="#beccca"/><path d="M283.234 488h96v8h-96z" fill="#d5e2df"/><g fill="#beccca"><path d="M379.217 496.071l-40-.124.017-5.6 40 .124z"/><path d="M331.234 479.2c-.8 0 .8 2.4 0 2.4l3.2 14.4h41.6l.8-3.2c-.8 3.2-20.8-13.6-45.6-13.6z"/></g><g fill="#fff2b3"><ellipse transform="matrix(-.0702 -.9975 .9975 -.0702 22.4574 614.464)" cx="297.61" cy="296.765" rx="31.999" ry="4"/><path d="M377.634 252c0 1.6-1.6 4-3.2 4h-87.2c-1.6 0-3.2-2.4-3.2-4h0c0-1.6 1.6-4 3.2-4h87.2c1.6 0 3.2 2.4 3.2 4h0z"/></g><defs ><path id="B" d="M160.834 356a7.17 7.17 0 1 0 0 14.4 7.17 7.17 0 1 0 0-14.4zm-1.6 6.4c-.8 1.6-2.4 2.4-3.2 1.6s-.8-2.4 0-4 2.4-2.4 3.2-1.6.8 2.4 0 4z"/><path id="C" d="M177.634 356a7.17 7.17 0 1 0 0 14.4 7.17 7.17 0 1 0 0-14.4zm-2.4 6.4c-.8 1.6-2.4 2.4-3.2 1.6s-.8-2.4 0-4 2.4-2.4 3.2-1.6.8 2.4 0 4z"/></defs></svg>