<svg width="34" height="34" viewBox="0 0 34 34" fill="none" xmlns="http://www.w3.org/2000/svg">
<g id="Group">
<path id="Vector" d="M15.8244 0.374767C11.8711 0.92836 8.67977 3.781 7.78099 7.56498C7.61166 8.27488 7.48791 9.25181 7.48791 9.86402C7.48791 10.2483 7.48791 10.2483 7.16227 10.4893C6.5696 10.9321 6.02903 11.7593 5.82713 12.5343C5.69687 13.0228 5.70339 13.9606 5.83364 14.4686C6.1658 15.7517 7.21437 16.8198 8.52997 17.204C8.72536 17.2626 9.23988 17.3278 9.66973 17.3538L10.4513 17.3929L10.6467 17.8227C11.1221 18.8778 12.1576 20.0762 13.1411 20.721L13.61 21.0336V21.6588V22.2906L13.102 22.499L12.6005 22.7074L11.07 22.74C10.1908 22.7595 9.29198 22.8181 8.95331 22.8702C4.22497 23.6583 0.655913 27.5986 0.349808 32.366C0.297705 33.1606 0.362833 33.408 0.655913 33.5578C0.929453 33.7011 14.1115 33.7011 14.385 33.5644C14.8149 33.3364 14.8149 32.6721 14.385 32.4441C14.2287 32.366 13.2323 32.353 7.91776 32.353H1.63284L1.66541 32.112C1.98454 29.7934 2.84424 28.0545 4.40081 26.5565C4.71994 26.2504 5.18236 25.8596 5.42333 25.6838C5.98995 25.28 7.07109 24.7264 7.72889 24.5115C8.34761 24.3031 9.46131 24.0816 9.86511 24.0816C10.1452 24.0816 10.1582 24.0881 10.1582 24.277C10.1582 24.4138 10.3796 24.798 10.9658 25.6577C13.5579 29.4873 13.4993 29.4157 13.8575 29.4222C13.9422 29.4222 14.0724 29.3896 14.1506 29.3505C14.2287 29.3114 14.8996 28.6732 15.6485 27.9372L16.9967 26.5891L18.3839 27.9763C19.654 29.2463 19.7972 29.3701 20.0382 29.4026C20.2727 29.4352 20.3313 29.4157 20.5332 29.2203C20.6569 29.0965 21.4515 27.9763 22.2982 26.7258C23.4119 25.0781 23.8352 24.4007 23.8352 24.2705C23.8352 24.0881 23.8482 24.0816 24.1218 24.0816C24.506 24.0816 25.3788 24.2444 26.0496 24.4528C29.3451 25.4428 31.8786 28.4713 32.2889 31.9101L32.341 32.353H26.0691C20.7611 32.353 19.7647 32.366 19.6084 32.4441C19.1785 32.6721 19.1785 33.3364 19.6084 33.5644C19.8819 33.7011 33.064 33.7011 33.3375 33.5644C33.6892 33.382 33.7413 32.9587 33.5785 31.7017C32.9728 27.1752 29.5405 23.6257 25.0401 22.8702C24.7014 22.8181 23.8157 22.7595 22.9234 22.74L21.3929 22.7074L20.8914 22.499L20.3834 22.2906V21.6588V21.0336L20.8588 20.721C21.8358 20.0762 22.8713 18.8778 23.3468 17.8227L23.5421 17.3929L24.3237 17.3538C24.7535 17.3278 25.268 17.2626 25.4634 17.204C26.779 16.8198 27.8276 15.7517 28.1598 14.4686C28.29 13.9606 28.2965 13.0228 28.1663 12.5343C27.9644 11.7593 27.4238 10.9321 26.8311 10.4893C26.5055 10.2483 26.5055 10.2483 26.5055 9.86402C26.5055 9.25181 26.3818 8.27488 26.2124 7.56498C25.3723 4.035 22.5066 1.26703 18.8985 0.505024C18.1755 0.348717 16.5017 0.283588 15.8244 0.374767ZM18.5924 1.77503C20.188 2.10719 21.5687 2.84315 22.715 3.96987C24.1543 5.37665 24.9685 7.12861 25.1769 9.2453L25.2159 9.68817H24.9945C24.8708 9.68817 24.5907 9.66863 24.3758 9.64909L23.985 9.6035L23.9394 9.1476C23.8092 7.74734 23.1383 6.28194 22.1093 5.1487C21.2952 4.24993 19.9796 3.46838 18.7096 3.12971C18.143 2.97992 17.9476 2.96038 16.9967 2.96038C16.0458 2.96038 15.8504 2.97992 15.2838 3.12971C14.0138 3.46838 12.7047 4.24341 11.8776 5.1487C10.8681 6.24938 10.1842 7.75385 10.054 9.1476L10.0084 9.6035L9.61762 9.64909C9.4027 9.66863 9.12264 9.68817 8.9989 9.68817H8.77746L8.81654 9.2453C9.02495 7.1221 9.83906 5.37665 11.2719 3.97639C12.5484 2.72591 13.9747 2.0095 15.7918 1.70339C16.4626 1.59267 17.8955 1.62524 18.5924 1.77503ZM17.8434 4.28249C19.667 4.56906 21.2626 5.73486 22.0898 7.3761C22.4415 8.05995 22.6108 8.75683 22.6499 9.61653L22.6824 10.4241L22.3307 10.3785C21.5166 10.2743 20.3248 9.76633 19.3739 9.12807C18.6901 8.67216 18.5598 8.66565 17.9085 9.10853C16.0328 10.3655 13.7598 10.8149 11.6562 10.3264L11.311 10.2483L11.35 9.52535C11.4282 7.7799 12.3595 6.16471 13.851 5.17475C14.5479 4.71234 15.4597 4.36716 16.2477 4.26295C16.6515 4.21085 17.4331 4.21736 17.8434 4.28249ZM18.9636 10.4306C19.8103 10.9712 21.0998 11.4792 22.0116 11.642C22.2461 11.6811 22.5066 11.7332 22.5913 11.7462L22.7411 11.7788L22.7085 13.7457C22.6824 15.3804 22.6564 15.7907 22.5587 16.1685L22.435 16.6244L20.8653 16.6439L19.2957 16.6569L19.2046 16.4485C19.0743 16.1294 18.7096 15.7582 18.3384 15.5628C18.0192 15.3934 17.9606 15.3869 17.0293 15.3869C16.0914 15.3869 16.0393 15.3934 15.7202 15.5628C15.0494 15.9145 14.6521 16.5658 14.6521 17.3082C14.6521 18.0507 15.0494 18.702 15.7202 19.0537C16.0393 19.223 16.0914 19.2295 17.0293 19.2295C17.9606 19.2295 18.0192 19.223 18.3384 19.0537C18.7096 18.8583 19.0743 18.4871 19.2046 18.1679L19.2892 17.9595H20.5202C21.1975 17.9595 21.7511 17.9856 21.7511 18.0116C21.7511 18.1289 20.9826 18.9755 20.6113 19.2816C17.6089 21.7109 13.1215 20.5516 11.7017 16.9761C11.3435 16.0773 11.3175 15.8624 11.2849 13.635L11.2524 11.5574L11.4347 11.6095C13.4863 12.124 16.2933 11.6616 18.1365 10.5023C18.3905 10.346 18.5989 10.2157 18.6054 10.2157C18.6184 10.2092 18.7747 10.3069 18.9636 10.4306ZM9.9628 13.5047V16.0903L9.5069 16.0447C8.8491 15.9796 8.45833 15.8428 8.07407 15.5563C7.31858 14.9896 6.99945 14.2993 7.04504 13.3484C7.0776 12.658 7.28602 12.1891 7.76797 11.7072C8.26295 11.2122 8.89469 10.9647 9.75439 10.9321L9.9628 10.9256V13.5047ZM24.7666 10.9907C25.6328 11.1145 26.3101 11.603 26.7204 12.3845C26.9158 12.7622 26.9288 12.8209 26.9288 13.4982C26.9288 14.1625 26.9158 14.2407 26.74 14.5924C26.499 15.0613 26.004 15.5628 25.5676 15.7777C25.255 15.9275 24.6037 16.0708 24.213 16.0708H24.0306V13.4982V10.9256H24.1804C24.2586 10.9256 24.5256 10.9582 24.7666 10.9907ZM17.7782 16.7546C18.0062 16.8719 18.1039 17.0347 18.1039 17.3082C18.1039 17.8032 17.8304 17.9595 16.9641 17.9595C16.3584 17.9595 16.3259 17.953 16.1435 17.7706C15.8309 17.4515 15.9156 16.8784 16.3063 16.7221C16.5473 16.6244 17.5698 16.6439 17.7782 16.7546ZM15.629 21.737C16.0393 21.8216 16.5017 21.8672 16.9967 21.8672C17.4917 21.8672 17.9541 21.8216 18.3644 21.737C18.7031 21.6653 19.0027 21.6067 19.0352 21.6067C19.0613 21.6067 19.0808 21.8347 19.0808 22.1082V22.6162L18.0257 23.6713L16.9641 24.7329L15.9416 23.7104L14.9126 22.6813V22.1473C14.9126 21.8477 14.9321 21.6067 14.9647 21.6067C14.9907 21.6067 15.2903 21.6653 15.629 21.737ZM15.0103 24.6026L16.0523 25.6447L15.0038 26.6933L13.9552 27.7418L12.861 26.1397C12.2618 25.2539 11.7864 24.5245 11.7929 24.5115C11.8385 24.4854 13.9031 23.5671 13.9357 23.5671C13.9552 23.5606 14.4371 24.0295 15.0103 24.6026ZM21.0738 24.023C21.6469 24.2705 22.1288 24.4984 22.1484 24.5245C22.1809 24.5636 20.201 27.5465 20.0317 27.7158C20.0056 27.7353 19.5172 27.2859 18.9506 26.7193L17.9085 25.6773L18.9636 24.6222C19.5497 24.036 20.0252 23.5606 20.0317 23.5606C20.0382 23.5606 20.5071 23.769 21.0738 24.023Z" fill="#9A9A9A"/>
<path id="Vector_2" d="M16.6778 32.4441C16.1112 32.7567 16.3521 33.6555 16.9969 33.6555C17.3291 33.6555 17.6482 33.3363 17.6482 33.0107C17.6482 32.5222 17.1076 32.2031 16.6778 32.4441Z" fill="#9A9A9A"/>
</g>
</svg>
