<svg xmlns="http://www.w3.org/2000/svg" height="800" width="800" viewBox="0 0 512.02 512.02" xmlns:v="https://vecta.io/nano"><path d="M335.593 335.464h-8.828c-34.198 0-61.926-27.727-61.926-61.926h0c0-97.43 78.98-176.419 176.419-176.419h8.828c34.198 0 61.926 27.727 61.926 61.926h0c0 97.43-78.989 176.419-176.419 176.419" fill="#9b512d"/><path d="M18.667 42.33l4.025-7.865C38.309 4.001 76.885-8.641 108.85 6.243h0c91.074 42.39 128.847 147.112 84.365 233.913l-4.025 7.865c-15.616 30.464-54.193 43.096-86.157 28.222h0C11.958 233.853-25.815 129.123 18.667 42.33" fill="#4c312c"/><path d="M26.338 466.345l-6.568-5.994c-25.441-23.234-26.447-61.864-2.251-86.29h0c67.169-72.042 181.61-75.079 256.018-6.171l6.568 6.003c25.759 23.146 26.721 61.767 2.26 86.281h0c-67.84 66.71-182.422 69.341-256.027 6.171" fill="#6a3311"/><path d="M159.526 276.203c-.786-1.995-2.233-3.734-4.317-4.74-23.42-11.308-39.786-30.279-46.08-53.425-6.506-23.879-1.907-50.026 12.606-71.724a7.58 7.58 0 0 0 .724-1.306C146.726 90.682 125.39 30.399 72.946.491c-7.53.865-14.822 3.001-21.566 6.268.812 1.969 2.286 3.681 4.37 4.652 50.3 23.411 72.077 77.365 50.882 125.74-17.011 25.83-22.316 56.956-14.539 85.522 6.744 24.788 22.837 45.55 45.762 59.418 7.547-.742 14.874-2.737 21.671-5.888" fill="#684b47"/><path d="M298.668 430.486a58.29 58.29 0 0 0 .6-21.804c-1.933.185-3.822.865-5.323 2.313-43.14 41.807-90.951 40.651-134.647-3.275-47.607-47.537-103.451-48.508-158.049-3.346a59.08 59.08 0 0 0-.397 21.248c1.818-.177 3.619-.768 5.085-2.083 50.247-45.4 97.642-46.513 140.871-3.346 26.033 26.165 53.963 39.274 81.796 39.274 23.843 0 47.615-9.71 70.064-28.981" fill="#753d1f"/><path d="M502.701 126.505c-3.972-6.409-9.057-12.023-15.025-16.587-1.236 1.518-2.074 3.381-2.074 5.491 0 50.785-40.872 87.64-97.174 87.64-59.648 0-108.774 45.374-114.211 103.133a62.02 62.02 0 0 0 14.857 16.41c1.359-1.554 2.251-3.522 2.251-5.747 0-53.01 43.564-96.141 97.103-96.141 62.428.001 108.791-38.982 114.273-94.199" fill="#b76748"/></svg>