<svg xmlns="http://www.w3.org/2000/svg" viewBox="0 0 512 512" xmlns:v="https://vecta.io/nano"><path d="M57.681 502.747h125.217c29.238-19.999 48.428-39.354 48.428-91.707H9.253c0 52.353 19.19 71.708 48.428 91.707z" fill="#f8f8f9"/><path d="M194.313 411.04c0 52.354-19.19 71.708-48.428 91.707h37.012c29.238-19.999 48.428-39.354 48.428-91.707h-37.012z" fill="#ededed"/><path d="M13.37 446.406c7.124 25.416 23.057 41.804 44.31 56.341h125.217c21.252-14.537 37.187-30.924 44.31-56.341H13.37z" fill="#f8e99b"/><path d="M190.196 446.406c-7.124 25.416-23.057 41.804-44.31 56.341h37.012c21.252-14.537 37.187-30.924 44.31-56.341h-37.012z" fill="#f6e27d"/><path d="M502.747 194.313c0-40.882-33.142-74.024-74.024-74.024V46.265h-74.024v74.024c-40.882 0-74.024 33.142-74.024 74.024v289.93a18.51 18.51 0 0 0 18.506 18.504h185.06a18.51 18.51 0 0 0 18.506-18.506V194.313z" fill="#f8e99b"/><path d="M502.747 194.313c0-40.882-33.142-74.024-74.024-74.024V46.265h-37.012v74.024c40.882 0 74.024 33.142 74.024 74.024v289.928a18.51 18.51 0 0 1-18.506 18.506h37.012a18.51 18.51 0 0 0 18.506-18.506V194.313z" fill="#f6e27d"/><path d="M330.024 194.313h123.373v148.048H330.024zm0 185.061c0 34.068 27.618 61.687 61.687 61.687s61.687-27.618 61.687-61.687v-12.337H330.024v12.337z" fill="#f8f8f9"/><path d="M330.024 9.253h123.373v49.349H330.024z" fill="#b29a7e"/><path d="M416.386 9.253h37.012v49.349h-37.012z" fill="#a58868"/><path d="M280.675 330.024h222.072v49.349H280.675z" fill="#dc4161"/><path d="M465.735 330.024h37.012v49.349h-37.012z" fill="#c5142c"/><ellipse transform="matrix(.7071 -.7071 .7071 .7071 -70.6473 353.7624)" cx="391.705" cy="262.16" rx="37.012" ry="24.674" fill="#95d5a7"/><ellipse transform="matrix(.7071 -.7071 .7071 .7071 -49.854 362.3849)" cx="412.51" cy="241.372" rx="7.601" ry="9.407" fill="#80cb93"/><path d="M437.976 111.547V67.855h15.422c5.111 0 9.253-4.142 9.253-9.253V9.253c0-5.111-4.142-9.253-9.253-9.253H330.024c-5.111 0-9.253 4.142-9.253 9.253v49.349c0 5.111 4.142 9.253 9.253 9.253h15.422v43.701c-26.044 2.936-49.583 18.127-62.877 41.112-2.559 4.423-1.047 10.083 3.377 12.642a9.21 9.21 0 0 0 4.624 1.245 9.25 9.25 0 0 0 8.018-4.622c11.558-19.979 33.059-32.392 56.111-32.392 5.111 0 9.253-4.142 9.253-9.253V67.855h55.518v52.434c0 5.111 4.142 9.253 9.253 9.253 35.714 0 64.771 29.057 64.771 64.771v86.361c0 5.111 4.142 9.253 9.253 9.253s9.253-4.142 9.253-9.253v-86.361c0-42.792-32.445-78.148-74.024-82.766zm-98.699-93.041h104.867v30.843H339.277V18.506zm163.47 302.265h-40.096V194.313c0-5.111-4.142-9.253-9.253-9.253H330.024c-5.111 0-9.253 4.142-9.253 9.253v126.458h-30.843V194.313c0-5.111-4.142-9.253-9.253-9.253s-9.253 4.142-9.253 9.253v135.711 49.349 104.87c0 15.304 12.453 27.757 27.759 27.757h185.06C499.547 512 512 499.547 512 484.241V379.374v-49.349c0-5.112-4.142-9.254-9.253-9.254zm-163.47-117.205h104.867v117.205H339.277V203.566zm154.217 135.711v30.843H289.928v-30.843h203.566zm-50.183 49.35c-4.385 24.512-25.846 43.181-51.6 43.181s-47.215-18.669-51.6-43.181h103.2zm40.93 104.867h-185.06c-5.103 0-9.253-4.149-9.253-9.251v-95.617h31.466c4.551 34.758 34.337 61.687 70.317 61.687s65.765-26.929 70.317-61.687h31.466v95.614c0 5.104-4.15 9.254-9.253 9.254zM367.72 238.179c-18.343 18.344-22.175 43.252-8.723 56.705 5.411 5.41 12.672 8.024 20.615 8.024 11.808 0 25.123-5.78 36.09-16.747 18.344-18.345 22.176-43.253 8.724-56.706s-38.362-9.622-56.706 8.724zm4.363 43.617c-5.158-5.157-2.845-18.965 8.721-30.532 5.209-5.209 10.869-8.534 15.992-10.152.869 3.657 2.913 7.246 5.82 10.151s6.491 4.95 10.145 5.818c-1.617 5.124-4.934 10.783-10.144 15.992-11.567 11.569-25.375 13.886-30.534 8.723zM231.325 401.787H9.253c-5.111 0-9.253 4.142-9.253 9.253 0 39.739 19.609 76.878 52.457 99.344 1.538 1.054 3.361 1.616 5.224 1.616h125.217a9.25 9.25 0 0 0 5.224-1.616c32.847-22.468 52.457-59.605 52.457-99.344-.001-5.112-4.142-9.253-9.254-9.253zm-51.358 91.707H60.611a101.93 101.93 0 0 1-28.034-30.843h149.399c5.111 0 9.253-4.142 9.253-9.253s-4.142-9.253-9.253-9.253H24.039c-2.635-7.655-4.366-15.657-5.114-23.852H221.65c-2.655 29.15-17.774 55.868-41.683 73.201z" fill="#2e2d31"/></svg>