<svg width="41" height="40" viewBox="0 0 41 40" fill="none" xmlns="http://www.w3.org/2000/svg">
<g id="credit-card_2 1">
<g id="Group">
<path id="Vector" d="M25.247 6.36914C23.0868 7.29199 21.2138 8.13281 21.0839 8.23535C20.954 8.33789 20.8105 8.5293 20.7626 8.65918C20.6532 8.95312 20.6327 13.9844 20.7353 15.1123C20.9472 17.4775 21.5487 19.3574 22.622 21.0117C23.8114 22.8301 25.6571 24.4912 28.2343 26.0361C29.4101 26.7402 29.4237 26.7402 30.5995 26.0361C34.619 23.6162 36.8202 21.0117 37.6884 17.6279C38.078 16.083 38.1669 14.9961 38.1601 11.626C38.1532 8.61816 38.1464 8.54297 37.7499 8.23535C37.4081 7.97559 29.6903 4.6875 29.4032 4.6875C29.2597 4.6875 27.7421 5.30273 25.247 6.36914ZM32.746 8.39258L35.9794 9.78027V12.0361C35.9794 13.2734 35.9452 14.627 35.911 15.0439C35.5624 18.7969 34.0175 21.1826 30.3808 23.5889C29.8954 23.9102 29.4648 24.1699 29.4237 24.1699C29.3827 24.1699 29.0341 23.9717 28.6581 23.7256C26.3202 22.208 24.7343 20.5879 23.914 18.8721C23.3944 17.792 23.0595 16.4932 22.9228 15.0439C22.8886 14.627 22.8544 13.2734 22.8544 12.0361V9.78027L26.0536 8.39941C27.8105 7.64746 29.3075 7.02539 29.3827 7.01855C29.4579 7.01172 30.9755 7.63379 32.746 8.39258Z" fill="#9A9A9A"/>
<path id="Vector_2" d="M32.2263 11.3662C32.0691 11.4414 31.4333 12.1865 30.2234 13.6904C29.2527 14.9072 28.4324 15.8984 28.405 15.8984C28.3777 15.8984 28.0496 15.4336 27.6736 14.8662C26.8601 13.6357 26.6824 13.4717 26.1287 13.4717C25.4724 13.4717 25.0759 13.8682 25.0759 14.5312V14.9277L26.3064 16.7598C27.6189 18.7217 27.7898 18.8994 28.3093 18.9062C28.822 18.9062 28.9177 18.8105 31.3445 15.7754C32.6228 14.1826 33.6892 12.8018 33.7302 12.7129C34.0583 11.8379 33.0603 10.9424 32.2263 11.3662Z" fill="#9A9A9A"/>
<path id="Vector_3" d="M4.6913 11.3799C4.19911 11.5439 3.82313 11.8242 3.57704 12.2002C3.13954 12.8564 3.16005 12.207 3.18055 23.4248L3.20106 33.6377L3.3788 34.0205C3.60438 34.5059 3.97352 34.875 4.45887 35.1006L4.84169 35.2783H20.6669H36.4921L36.8749 35.1006C37.3602 34.875 37.7294 34.5059 37.955 34.0205L38.1327 33.6377V29.3516C38.1327 25.1338 38.1327 25.0654 37.9891 24.8809C37.7225 24.5186 37.5038 24.4092 37.0731 24.4092C36.6425 24.4092 36.4237 24.5186 36.1571 24.8809C36.0136 25.0654 36.0136 25.1475 35.993 29.0986L35.9794 33.125H20.6669H5.35438V26.5625V20L11.5614 19.9863L17.7753 19.9658L18.0282 19.7676C18.6434 19.3027 18.6161 18.4688 17.9735 17.9902C17.7889 17.8467 17.7274 17.8467 11.5682 17.8262L5.35438 17.8125V15.625V13.4375L11.5614 13.4238L17.7753 13.4033L18.0282 13.2051C18.6434 12.7402 18.6161 11.9063 17.9735 11.4277C17.7889 11.2842 17.7274 11.2842 11.4179 11.2705C5.42958 11.2568 5.02626 11.2637 4.6913 11.3799Z" fill="#9A9A9A"/>
<path id="Vector_4" d="M8.19134 24.4708C7.72649 24.6758 7.47356 25.1954 7.5761 25.7217C7.63762 26.043 8.06145 26.4737 8.37591 26.5284C8.49895 26.5489 9.68157 26.5626 11.0009 26.5489L13.4003 26.5284L13.6532 26.3301C14.2685 25.8653 14.2411 25.0313 13.5986 24.5528C13.4208 24.4161 13.3183 24.4092 10.9052 24.3956C8.92278 24.3819 8.3554 24.3956 8.19134 24.4708Z" fill="#9A9A9A"/>
</g>
</g>
</svg>
