<svg xmlns="http://www.w3.org/2000/svg" xmlns:xlink="http://www.w3.org/1999/xlink" height="800" width="800" viewBox="0 0 499.197 499.197" xmlns:v="https://vecta.io/nano"><path d="M257.998 67.197c-.8-4-1.6-8-1.6-16h-12.8c0 8-.8 12-1.6 16-1.6 8-4.8 16-8.8 24h33.6c-4-8-7.2-16-8.8-24z" fill="#004763"/><path d="M329.998 466.397c0 32-28.8 32.8-60.8 32.8h-39.2c-32 0-60.8-.8-60.8-32.8v-270.4c0-32 28.8-56.8 60.8-56.8h39.2c32 0 60.8 24.8 60.8 56.8v270.4z" fill="#74b208"/><path d="M230.798,139.197h39.2c32,0,57.6,24.8,57.6,56.8l2.4,270.4c0,32-28.8,32.8-60.8,32.8h-39.2" fill="#52a305"/><path d="M233.998,139.197h35.2c32,0,60.8,24.8,60.8,56.8v135.2" fill="#2e9100"/><path d="M289.998 123.197c0 5.6-4 8-10.4 8h-59.2c-6.4 0-10.4-3.2-10.4-8v-28c0-5.6 4-11.2 10.4-11.2h59.2c6.4 0 10.4 5.6 10.4 11.2v28z" fill="#0579ad"/><path d="M209.998,94.397c0-5.6,4-11.2,10.4-11.2h59.2c6.4,0,10.4,5.6,10.4,11.2v28.8c0,5.6-4,8-10.4,8" fill="#005b89"/><path d="M286.798 335.197h0l-36.8-88-36.8 88h0c-2.4 4.8-4 11.2-4 16.8 0 22.4 18.4 40.8 40.8 40.8s40.8-18.4 40.8-40.8c0-6.4-1.6-12-4-16.8z" fill="#fffcee"/><path d="M249.998 392.797c22.4 0 40.8-18.4 40.8-40.8 0-6.4-1.6-12-4-16.8h0l-36.8-88" fill="#ede3c3"/><path d="M290.798 87.997l22.4-8.8c6.4-2.4 9.6-9.6 7.2-16l-20.8-55.2c-2.4-6.4-9.6-9.6-16-7.2l-22.4 8.8 29.6 78.4z" fill="#0579ad"/><path d="M261.198,10.397l29.6,78.4l22.4-8.8c6.4-2.4,9.6-9.6,7.2-16" fill="#005b89"/><circle cx="289.998" cy="83.997" r="10.4" fill="#74b208"/><path d="M297.198 76.797c4 4 4 10.4 0 15.2-4 4-10.4 4-15.2 0" fill="#2e9100"/><g fill="#91ce1b"><ellipse transform="matrix(.6114 -.7914 .7914 .6114 -57.8144 225.2296)" cx="200.401" cy="171.476" rx="24.001" ry="8.801"/><path d="M193.998 471.197c0 3.2-.8 5.6-4 5.6h0c-3.2 0-4-2.4-4-5.6v-257.6c0-3.2.8-5.6 4-5.6h0c3.2 0 4 2.4 4 5.6v257.6z"/></g><g fill="#229bc6"><use xlink:href="#B"/><use xlink:href="#B" x="11.2"/><use xlink:href="#B" x="22.4"/><use xlink:href="#B" x="33.6"/><use xlink:href="#B" x="44.8"/><use xlink:href="#B" x="56"/></g><defs ><path id="B" d="M223.598 118.397c0 .8-.8 1.6-1.6 1.6h0c-.8 0-1.6-.8-1.6-1.6v-19.2c0-.8.8-1.6 1.6-1.6h0c.8 0 1.6.8 1.6 1.6v19.2z"/></defs></svg>