<svg xmlns="http://www.w3.org/2000/svg" viewBox="0 0 512 512" xmlns:v="https://vecta.io/nano"><path d="M296.474 209.19V49.768h-80.946V209.19c-24.424 14.101-40.967 40.49-40.967 70.572v203.96c0 15.553 12.725 28.278 28.278 28.278h106.325c15.553 0 28.278-12.725 28.278-28.278v-203.96c-.001-30.082-16.544-56.47-40.968-70.572z" fill="#d1e7f8"/><path d="M337.429 484.148l.01-.426v-203.96c0-30.082-16.542-56.47-40.967-70.572V49.768h-80.946V209.19c-24.424 14.101-40.967 40.49-40.967 70.572v203.96c0 .143.008.284.01.426h162.86z" fill="#ff0c38"/><path d="M215.033 483.722v-203.96c0-25.514 11.903-48.368 30.42-63.325 3.059-2.824 10.267-11.2 10.543-27.646L256 49.768h-40.473V209.19c-24.424 14.101-40.967 40.49-40.967 70.572v203.96c0 15.553 40.473 15.553 40.473 0z" fill="#d80027"/><path d="M242.701 426.954l-48.044-48.044c-7.314-7.314-7.314-19.285 0-26.599l48.044-48.044c7.314-7.314 19.284-7.314 26.599 0l48.044 48.044c7.314 7.314 7.314 19.284 0 26.599L269.3 426.954c-7.314 7.314-19.285 7.314-26.599 0z" fill="#fff"/><path d="M255.997 298.78c-4.82.001-9.639 1.83-13.296 5.486l-48.044 48.044c-7.314 7.314-7.314 19.285 0 26.599l48.044 48.044c3.656 3.656 8.476 5.485 13.296 5.486V298.78z" fill="#d1e7f8"/><path d="M215.281 484.148h-40.709c.231 15.358 12.856 27.852 28.266 27.852h40.709c-15.41 0-28.035-12.494-28.266-27.852z" fill="#b9d8f4"/><path d="M256.001 401.828c-19.97 0-36.218-16.248-36.218-36.218s16.247-36.217 36.218-36.217 36.218 16.247 36.218 36.217-16.248 36.218-36.218 36.218zm0-56.762c-11.328 0-20.545 9.216-20.545 20.544s9.216 20.545 20.545 20.545 20.545-9.216 20.545-20.545-9.218-20.544-20.545-20.544z" fill="#4e901e"/><path d="M306.055 285.793a7.84 7.84 0 0 1-7.826-7.548c-.53-14.367-8.71-27.825-21.347-35.12a7.84 7.84 0 0 1-2.868-10.705c2.164-3.749 6.956-5.032 10.705-2.868 17.267 9.969 28.445 28.407 29.174 48.117a7.84 7.84 0 0 1-7.542 8.12l-.296.004zm.039 27.862a7.84 7.84 0 0 1-7.837-7.837v-4.528a7.84 7.84 0 0 1 7.837-7.837 7.84 7.84 0 0 1 7.837 7.837v4.528a7.84 7.84 0 0 1-7.837 7.837z" fill="#d80027"/><path d="M276.114 0h-40.225c-11.198 0-20.36 9.162-20.36 20.36v61.08c0 11.198 9.162 20.36 20.36 20.36h40.225c11.198 0 20.36-9.162 20.36-20.36V20.36c0-11.198-9.162-20.36-20.36-20.36z" fill="#a5001e"/><path d="M235.887 0c-11.198 0-20.36 9.162-20.36 20.36v61.08c0 11.198 9.162 20.36 20.36 20.36h4.248V0h-4.248z" fill="#d80027"/><path d="M276.114 0c11.198 0 20.36 9.162 20.36 20.36v61.08c0 11.198-9.162 20.36-20.36 20.36h-4.248V0h4.248z" fill="#720015"/><path d="M215.532 49.77h80.948v122.284h-80.948z" fill="#4e901e"/><path d="M215.532 49.77h40.473v122.284h-40.473z" fill="#47821c"/><path d="M292.762 41.851H219.24c-8.088 0-14.705 6.617-14.705 14.705s6.617 14.705 14.705 14.705h73.522c8.088 0 14.705-6.617 14.705-14.705s-6.617-14.705-14.705-14.705z" fill="#d1e7f8"/><path d="M245.008 56.556c0-8.088 6.617-14.705 14.705-14.705H219.24c-8.088 0-14.705 6.617-14.705 14.705s6.617 14.705 14.705 14.705h40.473c-8.089-.001-14.705-6.618-14.705-14.705z" fill="#b9d8f4"/></svg>