<svg xmlns="http://www.w3.org/2000/svg" viewBox="0 0 512.001 512.001" xmlns:v="https://vecta.io/nano"><g fill="#fd7"><path d="M208.382 42.246l-38.901 54.522-66.163 43.575-66.162-43.575 38.901-54.522z"/><path d="M247.285 99.368V330.12h-97.851V74.981z"/></g><path d="M40.826 99.372h130.015v230.749H40.826z" fill="#f9f0b5"/><path d="M471.835 302.93v54.468H302.08V302.93l84.878-21.787 84.877-.332z" fill="#feab75"/><path d="M471.835 291.372v11.558H302.08v-11.558c0-17.974 14.706-32.681 32.681-32.681h104.394c17.974 0 32.68 14.707 32.68 32.681z" fill="#febb8e"/><path d="M149.439 302.93h97.846v52.322h-97.846z" fill="#ffcc3d"/><path d="M79.73 9.565h131.628v32.681H79.73z" fill="#f9f0b5"/><path d="M210.561 43.335l38.901 54.523h-77.803z" fill="#ffbb02"/><path d="M40.826 302.93h130.015v52.322H40.826z" fill="#fd7"/><path d="M312.211 302.93l-100.189 81.778-60.318-11.863 57.072-69.915 51.717-21.787 51.718 21.787z" fill="#ff7a2f"/><path d="M368.607 212.11c12.31 12.299 12.31 32.256 0 44.566a33.84 33.84 0 0 1-2.375 2.157l-54.021 44.097H208.776l90.591-110.962a29.53 29.53 0 0 1 2.146-2.386c12.31-12.31 32.267-12.31 44.577 0l22.517 22.528z" fill="#ff9b5f"/><path d="M355.786 302.93l-100.189 81.778-60.318-11.863 57.072-69.915 53.76-21.787 49.675 21.787z" fill="#f06b22"/><path d="M412.182 212.11c12.31 12.299 12.31 32.256 0 44.566a33.84 33.84 0 0 1-2.375 2.157l-54.021 44.097H252.351l90.591-110.962c.664-.828 1.383-1.623 2.146-2.386 12.31-12.31 32.267-12.31 44.577 0l22.517 22.528z" fill="#ff7a2f"/><path d="M503.426 379.185v123.251H7.765V379.185l247.83-32.68z" fill="#bf7447"/><path d="M7.765 335.611h495.66v43.574H7.765z" fill="#a0613c"/><path d="M503.83 294.76a8.17 8.17 0 0 0-8.17 8.17v24.511H16.34V302.93a8.17 8.17 0 1 0-16.34 0v199.502a8.17 8.17 0 0 0 8.17 8.17h495.66a8.17 8.17 0 0 0 8.17-8.17V302.93a8.17 8.17 0 0 0-8.17-8.17zM16.34 494.262V386.266h24.511a8.17 8.17 0 1 0 0-16.34H16.34v-26.145h479.32v26.145H73.532a8.17 8.17 0 1 0 0 16.34H495.66v107.996H16.34h0zM206.194 309.26a8.13 8.13 0 0 0 5.161 1.841c2.369 0 4.719-1.025 6.334-3.003l90.585-110.968c2.853-3.495 2.333-8.642-1.162-11.496s-8.642-2.333-11.496 1.162l-90.585 110.968c-2.852 3.495-2.332 8.642 1.163 11.496zm40.234-11.496c-3.909 8.755 5.079 15.564 12.658 10.333l90.568-110.948c.004-.007.01-.012.015-.019a23.91 23.91 0 0 1 1.604-1.775c9.102-9.101 23.912-9.101 33.013 0l22.527 22.527c9.102 9.102 9.102 23.911 0 33.014a24 24 0 0 1-1.772 1.602l-53.834 43.946c-3.113 2.542-4.148 6.994-2.155 10.484 1.566 2.742 4.337 4.172 7.135 4.172 1.817 0 3.645-.602 5.161-1.841l54.027-44.103a40.19 40.19 0 0 0 2.992-2.706c13.437-13.437 15.198-34.189 5.298-49.551 22.055-19.601 50.138-30.349 79.882-30.417 4.153-.01 7.866-2.986 8.386-7.106.63-4.987-3.241-9.235-8.103-9.235-33.064 0-64.341 11.621-89.173 32.924l68.892-68.892a8.17 8.17 0 0 0-11.554-11.554l-68.887 68.887c21.238-24.76 32.852-55.926 32.918-88.881.008-3.898-2.586-7.47-6.401-8.269-5.284-1.108-9.939 2.894-9.939 7.984 0 29.847-10.754 58.039-30.417 80.165-15.362-9.901-36.113-8.14-49.551 5.296a40.39 40.39 0 0 0-2.706 2.992l.02.016c-.365.407-.706.825-1.038 1.231l-89.566 109.724zM40.826 311.1a8.17 8.17 0 0 0 8.17-8.17V104.943H164.98V302.93a8.17 8.17 0 0 0 16.34 0V99.388l30.733-43.073 23.038 32.287h-21.795a8.17 8.17 0 1 0 0 16.34h29.49v97.802a8.17 8.17 0 0 0 16.34 0V96.773c0-.388-.036-.767-.089-1.142l-.035-.232a8.07 8.07 0 0 0-.264-1.112c-.002-.008-.007-.016-.009-.024a8.09 8.09 0 0 0-.428-1.049l-.077-.161c-.173-.337-.367-.66-.583-.968-.013-.019-.022-.039-.035-.058l-37.384-52.394V9.568a8.17 8.17 0 0 0-8.17-8.17H79.729a8.17 8.17 0 0 0-8.17 8.17v30.064L34.174 92.028c-.014.02-.023.041-.037.061-.215.306-.407.627-.58.963l-.08.166a8.24 8.24 0 0 0-.426 1.046l-.01.026a8.32 8.32 0 0 0-.264 1.111l-.035.232a8.26 8.26 0 0 0-.089 1.142V302.93c.003 4.512 3.66 8.17 8.173 8.17zM168.943 88.603H56.691L83.935 50.42h112.251l-27.243 38.183zm34.941-70.864v16.34H87.9v-16.34h115.984zm267.265 293.362a8.17 8.17 0 0 0 8.17-8.17v-13.576c0-16.99-10.738-32.389-26.72-38.319-4.232-1.569-8.933.587-10.503 4.817s.587 8.933 4.817 10.503c9.608 3.565 16.065 12.808 16.065 23v13.576c.001 4.511 3.659 8.169 8.171 8.169z" fill="#1d2328"/></svg>