<svg width="41" height="40" viewBox="0 0 41 40" fill="none" xmlns="http://www.w3.org/2000/svg">
<g id="free-delivery" clip-path="url(#clip0_51_1372)">
<g id="Group">
<path id="Vector" d="M3.80982 7.60975C3.302 7.77381 3.04419 7.93787 2.70044 8.30506C1.96606 9.10193 1.97388 9.016 1.97388 15.0238C1.97388 19.8363 1.98169 20.1332 2.12231 20.391C2.21606 20.5785 2.35669 20.6957 2.56763 20.7738C2.84106 20.8676 2.91138 20.8676 3.16138 20.7504C3.70825 20.4847 3.69263 20.6957 3.69263 14.9066C3.69263 10.2426 3.70825 9.7035 3.81763 9.53943C4.1145 9.12537 3.65357 9.141 14.9504 9.141C24.3254 9.141 25.4504 9.15662 25.6848 9.266C26.2161 9.516 26.1926 9.17225 26.1926 16.6332C26.1926 23.7426 26.1926 23.6879 25.8411 23.9847C25.7161 24.0863 24.9504 24.1097 20.3645 24.141L15.0208 24.1801L14.7786 24.4301C14.427 24.7738 14.427 25.2269 14.7786 25.5707L15.0208 25.8207H20.3958C25.4036 25.8207 25.7942 25.8129 26.177 25.6801C26.7239 25.4847 27.3645 24.891 27.6067 24.3597L27.7942 23.9457L27.8176 19.0394L27.8411 14.141H30.8254C34.2239 14.141 34.3958 14.1644 34.8801 14.6644C35.1301 14.9222 35.4895 15.5863 35.4895 15.7894C35.4895 15.8285 34.6692 15.8597 33.5364 15.8597C31.3801 15.8597 31.2551 15.8832 30.7864 16.3832C30.3645 16.8285 30.3333 17.016 30.3333 19.1097C30.3333 20.4066 30.3645 21.141 30.427 21.3597C30.552 21.7738 31.0598 22.2816 31.4739 22.4066C31.7083 22.4769 32.7239 22.5004 35.1614 22.5004C37.7708 22.5004 38.5442 22.5238 38.5911 22.5941C38.6223 22.6488 38.6692 23.5707 38.677 24.6488C38.7239 27.5785 38.7786 27.5004 36.6458 27.5004H35.2708L35.0989 26.9926C34.2864 24.5472 31.4739 23.4691 29.1458 24.7035C28.2629 25.1722 27.3254 26.3676 27.1614 27.2347L27.1145 27.5004H20.3333H13.552L13.5051 27.2347C13.4114 26.7191 12.927 25.8988 12.4426 25.4144C11.6067 24.5863 10.6301 24.1879 9.43482 24.1957C7.66138 24.2113 6.12232 25.3207 5.56763 26.9926L5.39575 27.5004H4.84888C3.94263 27.5004 3.69263 27.2582 3.69263 26.3676C3.69263 25.8676 3.69263 25.8597 3.95825 25.7504C4.09888 25.6879 4.27857 25.5629 4.34888 25.4613C4.51294 25.2269 4.51294 24.7738 4.34888 24.5394C4.1145 24.2035 3.79419 24.141 2.40356 24.141C0.95044 24.141 0.653565 24.2113 0.458252 24.6019C0.302002 24.8988 0.302002 25.1019 0.458252 25.3988C0.60669 25.6957 0.989502 25.8597 1.52856 25.8597H1.95044L1.9895 26.5551C2.05981 27.6879 2.53638 28.4769 3.427 28.9144C3.7395 29.0707 3.95825 29.1097 4.60669 29.1254L5.40357 29.1566L5.52075 29.5551C5.802 30.516 6.63013 31.5082 7.56763 32.0082C8.82544 32.6801 10.3958 32.6332 11.6536 31.8988C12.4192 31.4535 13.2317 30.391 13.4973 29.5004L13.5911 29.1801H20.3254H27.0598L27.2161 29.6332C28.1848 32.5082 31.7629 33.4301 33.9817 31.3832C34.4895 30.9066 34.9661 30.1644 35.1458 29.5551L35.2629 29.1488L36.9192 29.1254C38.4739 29.1019 38.5989 29.0941 38.9114 28.9222C39.427 28.6488 39.8411 28.2347 40.0754 27.7504L40.2942 27.3051L40.3176 25.0707C40.3333 23.2972 40.3176 22.7347 40.2239 22.3285C40.1223 21.8988 37.4114 15.7816 36.677 14.3363C36.2473 13.4847 35.4661 12.8597 34.5129 12.6097C34.2161 12.5316 33.3567 12.5004 30.9817 12.5004H27.8489L27.8176 10.9144C27.7942 9.38318 27.7864 9.3285 27.5833 8.93787C27.2708 8.34412 27.0364 8.10193 26.4895 7.80506L25.9973 7.53943L15.0598 7.52381C6.38013 7.516 4.05982 7.53162 3.80982 7.60975ZM37.0676 19.1566L37.8176 20.8207L34.9895 20.8441C33.4426 20.8519 32.1223 20.8441 32.0754 20.8207C31.9973 20.7972 31.9739 20.391 31.9739 19.141V17.5004H34.1458H36.3176L37.0676 19.1566ZM10.5286 26.0863C11.1067 26.3597 11.5129 26.7738 11.7864 27.3676C11.9661 27.766 11.9895 27.9066 11.9583 28.4222C11.9426 28.8519 11.8801 29.1332 11.7473 29.4066C11.052 30.8207 9.26294 31.2582 8.02075 30.3207C6.77075 29.3832 6.66919 27.6254 7.79419 26.5316C8.50513 25.8363 9.63013 25.6566 10.5286 26.0863ZM32.0833 26.0238C32.6379 26.2269 33.1692 26.7426 33.4348 27.3207C34.177 28.9457 32.9504 30.8207 31.1458 30.8129C29.4348 30.7972 28.2629 29.1097 28.8254 27.4535C28.9973 26.9457 29.7551 26.1722 30.2551 25.9926C30.7708 25.8129 31.5676 25.8285 32.0833 26.0238Z" fill="#9A9A9A"/>
<path id="Vector_2" d="M5.75513 13.4457C5.66919 13.4926 5.53638 13.6254 5.46606 13.7504C5.34888 13.9457 5.33325 14.2895 5.33325 16.7192V19.4692L5.59888 19.7348C5.88794 20.0238 6.177 20.0785 6.54419 19.9067C6.89575 19.7504 6.97388 19.477 6.97388 18.4457V17.516L7.802 17.4848C8.62231 17.4613 8.63013 17.4613 8.85669 17.2035C9.10669 16.9223 9.14575 16.602 8.97388 16.266C8.80981 15.9457 8.57544 15.8598 7.75513 15.8442L7.01294 15.8207L6.9895 15.4067L6.96606 15.0004H7.95044H8.94263L9.20825 14.7348C9.59106 14.352 9.55981 13.8442 9.13013 13.5004C8.9895 13.3832 8.77075 13.3676 7.44263 13.3676C6.58325 13.3676 5.84888 13.4067 5.75513 13.4457Z" fill="#9A9A9A"/>
<path id="Vector_3" d="M10.4036 13.5861L10.177 13.8126V16.6407C10.177 18.4298 10.2083 19.5157 10.2551 19.6173C10.302 19.6954 10.4426 19.8204 10.5676 19.8829C10.9192 20.0626 11.2317 20.0314 11.5208 19.7736C11.7629 19.5626 11.7786 19.5079 11.8176 18.8829L11.8567 18.2189L12.5598 19.0236C13.2786 19.8595 13.4661 20.0001 13.8489 20.0001C14.3411 20.0001 14.7708 19.3204 14.5676 18.8673C14.5208 18.7736 14.2317 18.3986 13.9114 18.047C13.552 17.6407 13.3801 17.3829 13.4426 17.3595C13.4973 17.3439 13.6926 17.2189 13.8723 17.0782C15.1301 16.1173 14.927 14.2111 13.4973 13.547C13.1379 13.3751 12.9973 13.3595 11.8723 13.3595H10.6301L10.4036 13.5861ZM12.927 15.1329C13.1145 15.297 13.1067 15.5079 12.9114 15.7032C12.7864 15.8282 12.6536 15.8595 12.2864 15.8595H11.8176V15.4298V15.0001H12.302C12.6379 15.0001 12.8254 15.0392 12.927 15.1329Z" fill="#9A9A9A"/>
<path id="Vector_4" d="M15.7942 13.5865L15.5676 13.813V16.5943C15.5676 18.4693 15.5989 19.4302 15.6536 19.563C15.8411 19.9615 16.0911 20.0162 17.7395 19.9849L19.2551 19.9615L19.4817 19.7037C19.8176 19.3287 19.7708 18.8287 19.3645 18.5005C19.2317 18.3834 19.0286 18.3599 18.2083 18.3599H17.2083V17.9302V17.5005H17.9348C18.5129 17.5005 18.7004 17.4693 18.9036 17.3443C19.3489 17.0787 19.3801 16.399 18.9661 16.0318C18.7864 15.8755 18.677 15.8599 17.9817 15.8599H17.2083V15.438V15.0162L18.2317 14.9849L19.2551 14.9615L19.4817 14.7037C19.8176 14.3287 19.7708 13.8287 19.3645 13.5005C19.2239 13.3834 18.9973 13.3599 17.6145 13.3599H16.0208L15.7942 13.5865Z" fill="#9A9A9A"/>
<path id="Vector_5" d="M20.7474 13.454C20.6615 13.4931 20.5287 13.6415 20.4506 13.7822C20.3412 13.9931 20.3256 14.329 20.349 16.7744L20.3724 19.5322L20.5912 19.7431L20.8021 19.9619L22.3724 19.9853L23.9349 20.0087L24.2006 19.7431C24.5053 19.4384 24.5521 19.1337 24.3646 18.7665C24.1928 18.4306 23.9662 18.3603 22.9506 18.3447L22.0131 18.3212L21.9896 17.9072L21.9662 17.5009H22.6693C23.5053 17.5009 23.7162 17.4306 23.9271 17.0947C24.1303 16.7665 24.0834 16.3759 23.8099 16.1025C23.6303 15.915 23.5365 15.8994 22.8099 15.8603L22.0131 15.8212L21.9896 15.4072L21.9662 15.0009H22.9506H23.9428L24.2084 14.7353C24.5912 14.3525 24.5599 13.8447 24.1303 13.5009C23.9896 13.3837 23.7709 13.3681 22.4428 13.3681C21.5521 13.3681 20.849 13.4072 20.7474 13.454Z" fill="#9A9A9A"/>
<path id="Vector_6" d="M0.825439 21.7503C0.559814 21.8675 0.333252 22.2191 0.333252 22.516C0.333252 22.8285 0.614502 23.1878 0.934814 23.2816C1.13013 23.3441 1.97388 23.3597 3.43481 23.3441L5.64575 23.3207L5.88794 23.0707C6.2395 22.7269 6.2395 22.2738 5.88794 21.93L5.64575 21.68L3.35669 21.6644C1.53638 21.6488 1.02856 21.6644 0.825439 21.7503Z" fill="#9A9A9A"/>
</g>
</g>
<defs>
<clipPath id="clip0_51_1372">
<rect width="40" height="40" fill="white" transform="translate(0.333496)"/>
</clipPath>
</defs>
</svg>
