<svg xmlns="http://www.w3.org/2000/svg" width="800" height="800" viewBox="0 0 128 128" xmlns:v="https://vecta.io/nano"><style><![CDATA[.G{fill:#90236b}.H{fill:#5d1a47}.I{fill:#99499a}]]></style><path d="M65.694 10.65c-3.275 4.901-3.678 10.629-1.661 15.614 5.841-.739 11.276-3.749 14.551-8.65S82.261 6.985 80.245 2c-5.842.739-11.277 3.749-14.551 8.65z" fill="#69a401"/><path d="M64.473 45.501a2 2 0 0 1-2-2V29.899c0-4.505-2.337-8.669-6.251-11.138a2 2 0 0 1-.625-2.759 2 2 0 0 1 2.758-.624c5.083 3.206 8.117 8.634 8.117 14.521v13.602a2 2 0 0 1-1.999 2z" fill="#776220"/><ellipse cx="92.237" cy="51.952" rx="10.763" ry="10.549" class="G"/><ellipse cx="35.763" cy="51.952" rx="10.763" ry="10.549" class="H"/><ellipse cx="53.71" cy="43.501" rx="10.763" ry="10.549" class="G"/><ellipse cx="73.566" cy="43.501" rx="10.763" ry="10.549" class="I"/><ellipse cx="64.473" cy="57.969" rx="10.763" ry="10.549" class="G"/><ellipse cx="84.329" cy="57.969" rx="10.763" ry="10.549" class="H"/><ellipse cx="46.526" cy="59.014" rx="10.763" ry="10.549" class="I"/><ellipse cx="35.763" cy="71.773" rx="10.763" ry="10.549" class="H"/><ellipse cx="53.71" cy="73.036" rx="10.763" ry="10.549" class="G"/><ellipse cx="73.566" cy="73.036" rx="11.788" ry="11.367" class="I"/><ellipse cx="90.099" cy="71.773" rx="10.763" ry="10.549" class="G"/><ellipse cx="45.501" cy="87.969" rx="11.788" ry="11.367" class="I"/><ellipse cx="64.518" cy="87.974" rx="11.598" ry="11.367" class="H"/><g class="G"><ellipse cx="84.329" cy="87.969" rx="11.598" ry="11.367"/><ellipse cx="56.264" cy="101.942" rx="10.763" ry="10.549"/></g><ellipse cx="75.235" cy="102.703" rx="10.763" ry="10.549" class="I"/><ellipse cx="67.027" cy="115.451" rx="10.763" ry="10.549" class="H"/><g fill="#fccafa"><ellipse cx="31.446" cy="49.727" rx="2.266" ry="3.422"/><ellipse cx="51.443" cy="41.404" rx="2.266" ry="3.422"/><ellipse cx="42.947" cy="56.57" rx="2.266" ry="3.422"/><ellipse cx="31.446" cy="69.562" rx="2.266" ry="3.422"/><ellipse cx="40.68" cy="85.743" rx="2.266" ry="3.422"/><ellipse cx="53.71" cy="99.212" rx="2.266" ry="3.422"/><ellipse cx="50.654" cy="69.562" rx="2.266" ry="3.422"/><ellipse cx="62.803" cy="54.049" rx="2.266" ry="3.422"/><ellipse cx="73.566" cy="40.079" rx="2.266" ry="3.422"/><ellipse cx="71.3" cy="69.562" rx="2.266" ry="3.422"/><ellipse cx="62.803" cy="84.268" rx="2.266" ry="3.422"/><ellipse cx="72.731" cy="99.199" rx="2.266" ry="3.422"/><ellipse cx="64.473" cy="113.252" rx="2.266" ry="3.422"/><ellipse cx="81.474" cy="85.743" rx="2.266" ry="3.422"/><ellipse cx="89.971" cy="68.517" rx="2.266" ry="3.422"/><ellipse cx="81.474" cy="56.57" rx="2.266" ry="3.422"/><ellipse cx="95.092" cy="47.42" rx="2.266" ry="3.422"/></g></svg>