<svg xmlns="http://www.w3.org/2000/svg" width="800" height="800" viewBox="0 0 1024 1024" xmlns:v="https://vecta.io/nano"><path d="M308.265 192.198l72.039-123.969c-39.936-19.121-87.773-20.744-130.884-.282l58.845 124.252zm11.43 7.902l147.042-.423a152.56 152.56 0 0 0-14.535-59.409c-13.476-28.364-34.573-50.66-59.621-65.618l-72.886 125.451zm-23.002.071l-59.55-125.733c-45.933 27.023-73.027 75.285-74.72 126.086l134.271-.353zm21.873 13.829l61.173 129.12c52.354-24.766 83.963-75.496 86.927-129.543l-148.1.423zm-23.002 0l-133.001.353c1.129 18.98 5.715 38.03 14.323 56.305 11.854 25.048 29.705 45.227 50.942 59.903l67.735-116.561zm11.43 7.902L239.613 337.97c37.819 21.379 84.246 26.318 127.286 10.442l-59.903-126.509z" fill="#f5b11a"/><path d="M345.026 128.697c-20.885-10.231-45.58-12.206-68.723-3.881l31.892 67.312 36.831-63.431zm48.826 71.122c-.917-10.09-3.457-20.179-8.044-29.846-6.703-14.253-16.793-25.753-28.858-34.22l-37.325 64.278 74.226-.212zm-130.108-69.217c-26.53 14.605-42.828 41.135-45.227 69.711l78.178-.212-32.95-69.499zm87.632 152.616c25.401-15.099 40.712-41.488 42.687-69.57l-75.496.212 32.809 69.358zm-132.93-69.076c.776 10.513 3.387 21.097 8.185 31.186 6.985 14.817 17.639 26.671 30.269 35.208l38.665-66.606-77.119.212zm50.449 73.309c21.449 10.019 46.709 11.289 70.064 1.905l-31.963-67.453-38.101 65.548z" fill="#f3d351"/><path d="M487.27 1015.251c-26.459 0-50.731-.423-68.3-1.199-9.807-.423-17.498-.988-22.861-1.623-3.246-.353-5.786-.847-7.691-1.341-9.949-2.611-10.725-10.09-10.725-12.277 0-5.221 1.623-8.679 19.403-27.376 8.679-9.172 20.814-21.308 35.984-36.196l48.473-46.85V757.787h22.931v130.178l48.614 47.838 35.49 36.196c17.287 18.274 19.121 21.591 19.121 26.953 0 2.328-.847 10.019-11.501 12.348-2.046.423-4.727.847-8.326 1.199-6.068.635-14.676 1.129-25.612 1.623-20.109.635-47.485 1.129-75.003 1.129zm-76.908-24.625c16.863 1.058 45.368 1.764 82.552 1.693 35.49-.071 64.207-.917 81.494-1.905-16.863-17.992-49.531-50.59-81.282-81.494-32.598 30.975-65.901 63.784-82.764 81.706z" fill="#704f23"/><path d="M318.496 206.804h344.532v441.407s6.915 158.543-172.231 158.401c-169.267-.071-172.231-160.73-172.231-160.73V206.804z" fill="#f4c324"/><path d="M503.145 410.009l-21.167-8.89 104.354-248.927c1.341-3.598 12.63-31.327 39.653-42.899 17.78-7.62 37.96-6.562 59.903 3.175 61.173 27.165 150.57 59.339 151.487 59.692l-7.761 21.591c-.917-.353-91.09-32.739-153.039-60.327-15.805-6.985-29.705-8.044-41.417-3.105-19.121 8.044-27.306 29.775-27.376 30.057l-.212.494-104.425 249.138z" fill="#704f23"/><path d="M358.361 371.273s22.367-9.455 52.283 10.795c16.793 5.786 40.006-29.211 66.112 0 13.829 13.053 58.422 10.795 70.769 6.138 16.934-4.586 31.116-8.467 52.283 2.187 15.734 5.151 24.625-20.603 24.625-29.846v270.658s0 129.191-118.395 138.434c-129.191 5.362-146.83-99.98-148.312-135.329-1.623-35.42.635-263.038.635-263.038z" fill="#f3af19"/><path d="M358.15 660.418h-2.117a12.77 12.77 0 0 1-12.771-12.771V427.507a12.77 12.77 0 0 1 12.771-12.771h2.117a12.77 12.77 0 0 1 12.771 12.771v220.139c0 6.985-5.715 12.771-12.771 12.771zm1.905-269.953h-1.834c-5.997 0-10.936-4.939-10.936-10.936v-34.714c0-5.997 4.939-10.936 10.936-10.936h1.834c5.997 0 10.936 4.939 10.936 10.936v34.785c-.071 5.997-4.939 10.866-10.936 10.866z" fill="#fff"/><path d="M899.325 130.602c-2.963 0-6.138-.141-9.525-.494l-.564-.071-.564-.141c-31.68-6.421-43.604-27.165-47.838-38.948-6.35-17.639-3.881-37.819 6.138-50.166l.282-.353c15.805-17.992 32.95-26.247 50.942-24.483 32.315 3.175 53.13 38.454 54.047 39.936l-19.827 11.571c-4.375-7.409-19.474-27.023-36.478-28.646-10.16-.988-20.673 4.586-31.257 16.581-4.233 5.362-6.28 16.581-2.258 27.87 3.175 8.749 11.007 20.038 30.199 24.131 14.676 1.341 26.247-1.764 31.892-8.537l17.639 14.676c-5.574 6.703-18.204 17.075-42.828 17.075zM87.844 475.487a45.298 45.298 0 1 0 90.596 0 45.298 45.298 0 1 0-90.596 0z" fill="#f4c323"/></svg>