<svg xmlns="http://www.w3.org/2000/svg" width="20" height="20" fill="none" xmlns:v="https://vecta.io/nano"><path fill-rule="evenodd" d="M6.25 5A3.75 3.75 0 0 1 10 1.25 3.75 3.75 0 0 1 13.75 5 3.75 3.75 0 0 1 10 8.75 3.75 3.75 0 0 1 6.25 5zM3.126 16.754c.028-1.805.765-3.526 2.051-4.792S8.195 9.986 10 9.986s3.537.71 4.823 1.976 2.023 2.987 2.051 4.792c.002.121-.031.241-.096.344s-.158.185-.268.235A15.57 15.57 0 0 1 10 18.75c-2.322 0-4.527-.507-6.51-1.417-.11-.051-.204-.132-.268-.235s-.098-.222-.096-.344z" fill="#1e6b0a"/></svg>