<svg xmlns="http://www.w3.org/2000/svg" height="800" width="800" viewBox="0 0 512 512" xmlns:v="https://vecta.io/nano"><path d="M95.256 93.669v300.452C95.256 459.12 148.136 512 213.135 512h85.73c64.999 0 117.879-52.88 117.879-117.879V93.669H95.256z" fill="#ffe9cc"/><path d="M256,93.669V512h42.865c64.999,0,117.879-52.88,117.879-117.879V93.669H256z" fill="#ffdaa9"/><path d="M329.451 247.11c-29.147 0-58.742-10.254-84.275-29.706 0 0 23.129-116.195 82.266-116.195s79.152 119.818 79.152 119.818c-1.968 1.605-20.07 15.874-48.99 22.79-9.233 2.207-18.671 3.293-28.153 3.293zM226.233 410.791c0 16.44 13.327 29.767 29.767 29.767s29.767-13.327 29.767-29.767h-59.534z" fill="#a2001d"/><g fill="#91dc5a"><circle cx="178.605" cy="333.395" r="41.674"/><circle cx="333.395" cy="333.395" r="41.674"/></g><path d="M178.605 291.721c23.016 0 41.674 18.658 41.674 41.674s-18.658 41.674-41.674 41.674m154.79.001c23.016 0 41.674-18.658 41.674-41.674s-18.658-41.674-41.674-41.674" fill="#64c37d"/><path d="M181.104 246.384c-8.511 0-17.139-.773-25.801-2.377-.939-.169-25.231-4.685-47.928-21.192 0 0-13.183-57.393 65.278-109.7 71.442-47.628 150.623-13.693 150.623-13.693 0 15.142-2.734 29.427-3.109 31.314-12.649 67.989-72.244 115.648-139.063 115.648z" fill="#ff5023"/><path d="M125.475 47.628h-6.249c-24.27 19.274-44.488 43.691-58.759 71.122-16.189 31.12-24.746 66.229-24.746 101.53 0 58.117 22.633 111.037 59.535 150.442v-57.729c0-54.771 21.467-106.402 60.447-145.382s90.611-60.448 145.383-60.448h.391C278.299 89.44 282.954 51.631 256 41.674c-31.773-11.735-95.746 5.954-130.525 5.954z" fill="#00d7df"/><path d="M256 0c-46.946 0-91.756 14.569-129.587 42.133-2.437 1.775-4.824 3.62-7.186 5.495h6.249c77.498 0 150.559 30.381 205.724 85.544s85.544 128.226 85.544 205.725v31.824c36.902-39.404 59.535-92.326 59.535-150.442C476.279 98.817 377.462 0 256 0z" fill="#ccf7f9"/></svg>