<svg xmlns="http://www.w3.org/2000/svg" height="800" width="800" viewBox="0 0 512 512" xmlns:v="https://vecta.io/nano"><path d="M144.257 86.04V19.361a10.76 10.76 0 0 1 10.756-10.756H356.99a10.76 10.76 0 0 1 10.756 10.756V86.04H144.257h0z" fill="#ff4328"/><path d="M367.746 94.655H144.257V51.63h223.489v43.025h0z" fill="#c13421"/><path d="M140.614 75.283h230.774c35.633 0 64.78 28.859 64.78 64.137v327.972c0 19.801-16.364 36.003-36.366 36.003H112.195c-19.999 0-36.363-16.202-36.363-36.003V139.42c0-35.277 29.15-64.137 64.782-64.137h0z" fill="#97baa8"/><path d="M436.168 231.261v236.131c0 19.801-16.364 36.003-36.366 36.003H112.196c-20 0-36.364-16.202-36.364-36.003V198.148l360.336 33.113z" fill="#ddc98b"/><path d="M376.351 66.863V19.361C376.351 8.686 367.665 0 356.99 0H155.013c-10.676 0-19.361 8.686-19.361 19.361v47.502c-38.159 2.541-68.425 34.102-68.425 72.557v58.728 269.243c0 2.306.177 4.571.52 6.784C71.05 495.564 89.724 512 112.196 512h287.605.001c22.473 0 41.147-16.436 44.451-37.825a44.39 44.39 0 0 0 .52-6.784v-236.13-91.841c0-38.455-30.266-70.016-68.422-72.557zM155.013 17.21h201.975c1.186 0 2.151.965 2.151 2.151v47.317H152.862V19.361c0-1.186.966-2.151 2.151-2.151zm-42.817 477.58c-15.306 0-27.759-12.291-27.759-27.398V207.581l269.671 24.779c4.731.439 8.922-3.048 9.357-7.781s-3.049-8.921-7.781-9.356L84.437 190.298V139.42c0-30.62 25.202-55.532 56.177-55.532h230.774c30.975 0 56.175 24.912 56.175 55.532v91.841 236.131c0 3.777-.779 7.378-2.185 10.654-4.221 9.831-14.096 16.744-25.577 16.744H112.196zm69.664-58.342a8.61 8.61 0 0 1-8.605 8.605h-2.062c-4.753 0-8.605-3.853-8.605-8.605s3.852-8.605 8.605-8.605h2.062c4.752 0 8.605 3.852 8.605 8.605zm0-119.778a8.61 8.61 0 0 1-8.605 8.605h-2.062c-4.753 0-8.605-3.853-8.605-8.605s3.852-8.605 8.605-8.605h2.062a8.61 8.61 0 0 1 8.605 8.605zm-24.175 59.889a8.61 8.61 0 0 1-8.605 8.605h-2.062a8.61 8.61 0 0 1-8.605-8.605 8.61 8.61 0 0 1 8.605-8.605h2.062a8.61 8.61 0 0 1 8.605 8.605zm217.847 55.482a8.61 8.61 0 0 1-8.605 8.605h-2.062a8.61 8.61 0 0 1-8.605-8.605 8.61 8.61 0 0 1 8.605-8.605h2.062c4.753 0 8.605 3.853 8.605 8.605zM240.76 376.566c0 4.752-3.852 8.605-8.605 8.605h-2.062a8.61 8.61 0 0 1-8.605-8.605 8.61 8.61 0 0 1 8.605-8.605h2.062c4.754 0 8.605 3.853 8.605 8.605zm83.076 0a8.61 8.61 0 0 1-8.605 8.605h-2.062a8.61 8.61 0 0 1-8.605-8.605 8.61 8.61 0 0 1 8.605-8.605h2.062c4.753 0 8.605 3.853 8.605 8.605zm-45.137-64.304a8.61 8.61 0 0 1-8.605 8.605h-2.061a8.61 8.61 0 0 1-8.605-8.605 8.61 8.61 0 0 1 8.605-8.605h2.061a8.61 8.61 0 0 1 8.605 8.605zm0 119.779a8.61 8.61 0 0 1-8.605 8.605h-2.061a8.61 8.61 0 0 1-8.605-8.605 8.61 8.61 0 0 1 8.605-8.605h2.061a8.61 8.61 0 0 1 8.605 8.605z"/></svg>