<svg width="33" height="33" viewBox="0 0 33 33" fill="none" xmlns="http://www.w3.org/2000/svg">
<g id="product-return">
<g id="Group">
<path id="Vector" d="M4.12503 0.774395C3.91556 0.882303 3.8013 0.996561 3.69339 1.20603L3.5474 1.49168L3.56644 4.64646C3.58548 7.73142 3.58548 7.80124 3.71878 7.97898C3.78861 8.07419 3.9473 8.22018 4.06156 8.29636L4.27103 8.44235H7.4385C10.9361 8.44235 10.898 8.4487 11.1836 8.04245C11.3931 7.75046 11.4121 7.26169 11.2217 6.98874C10.8853 6.49997 10.9488 6.51267 8.73977 6.47458L6.76565 6.44284L7.26712 5.99851C10.9297 2.7739 15.9507 1.77098 20.6035 3.3325C24.0503 4.48142 26.9512 7.04587 28.5444 10.3466C30.7534 14.917 30.2075 20.3759 27.1289 24.4765C26.6655 25.0986 25.5801 26.2221 24.9326 26.7617C22.895 28.4628 20.229 29.5673 17.5249 29.8339C15.6778 30.0117 13.8179 29.8022 11.9961 29.1992C9.97756 28.5327 8.31448 27.5234 6.79739 26.0571C5.12796 24.4384 4.00443 22.6547 3.29984 20.5156C2.86185 19.1762 2.6016 17.6591 2.6016 16.4658C2.6016 15.7421 2.23343 15.2978 1.6431 15.2978C1.2559 15.2978 0.951208 15.4755 0.773474 15.812C0.627478 16.0786 0.627478 16.1294 0.665564 16.9165C0.875036 20.8774 2.44925 24.4638 5.20413 27.2377C7.56546 29.6181 10.6314 31.1669 13.9956 31.6874C15.2525 31.8779 17.2456 31.8779 18.5025 31.6874C21.8159 31.1733 24.8311 29.6752 27.167 27.3647C29.6108 24.9526 31.1597 21.9057 31.6865 18.5034C31.8769 17.2465 31.8769 15.2534 31.6865 13.9965C30.8994 8.88669 27.7827 4.60203 23.1616 2.27879C20.9526 1.1743 18.7881 0.672832 16.2173 0.67918C14.6748 0.67918 13.6465 0.812479 12.2754 1.1743C9.95217 1.79002 7.56546 3.07224 5.90872 4.60837L5.52786 4.95749L5.50882 3.11668C5.48978 1.37742 5.48343 1.26951 5.35648 1.10447C5.0264 0.660137 4.58206 0.539532 4.12503 0.774395Z" fill="#9A9A9A"/>
<path id="Vector_2" d="M12.0278 9.96615C8.46039 11.3055 7.93988 11.5213 7.7431 11.7117L7.52094 11.9339L7.50189 16.5867C7.4892 19.786 7.50189 21.3094 7.55267 21.4681C7.59076 21.6077 7.70502 21.7664 7.82562 21.8616C8.10492 22.0711 15.976 25.0101 16.2553 25.0101C16.5156 25.0101 24.3676 22.0838 24.6532 21.8807C25.0151 21.6204 25.0087 21.741 25.0087 16.72C25.0087 12.1561 25.0087 12.1053 24.8754 11.8704C24.8056 11.7435 24.6659 11.5911 24.5771 11.5404C24.2914 11.369 16.5536 8.49349 16.3124 8.46175C16.141 8.44271 15.2143 8.76644 12.0278 9.96615ZM18.6547 11.369C19.9687 11.8577 21.0859 12.2894 21.1366 12.3148C21.2128 12.3592 21.2001 12.3783 21.0732 12.429C20.9843 12.4608 19.8671 12.8797 18.5849 13.3621L16.2616 14.2318L13.9194 13.3621C12.6371 12.8797 11.5136 12.4608 11.4311 12.429C11.3486 12.3973 11.2978 12.3592 11.3168 12.3402C11.3549 12.3021 16.122 10.493 16.2109 10.4803C16.2426 10.474 17.3471 10.8739 18.6547 11.369ZM12.3896 14.8665L15.2968 15.9583V19.2781C15.2968 21.8934 15.2778 22.598 15.2206 22.598C15.1762 22.598 13.8559 22.1092 12.2817 21.5189L9.42523 20.4461L9.40619 17.1136C9.39984 15.2791 9.41254 13.7747 9.43793 13.7747C9.45697 13.7747 10.79 14.2635 12.3896 14.8665ZM23.0917 17.1136L23.0727 20.4525L20.2162 21.5252C18.6484 22.1155 17.3217 22.598 17.2836 22.598C17.2201 22.598 17.2011 21.8934 17.2011 19.2781V15.9583L20.1083 14.8665C21.7016 14.2699 23.0282 13.7811 23.06 13.7747C23.0854 13.7747 23.0981 15.2791 23.0917 17.1136Z" fill="#9A9A9A"/>
</g>
</g>
</svg>
