<svg xmlns="http://www.w3.org/2000/svg" viewBox="0 0 501.551 501.551" xmlns:v="https://vecta.io/nano"><path d="M448.759 234.057c-3.135-36.571-9.404-73.143-18.808-109.714-2.09-10.449-11.494-16.718-21.943-16.718H92.449c-10.449 0-19.853 7.314-21.943 16.718-9.404 36.571-15.673 73.143-18.808 109.714-4.18 47.02-4.18 94.041 0 141.061 2.09 22.988 5.224 45.976 10.449 70.008 6.269 32.392 35.527 56.424 68.963 56.424h240.326c33.437 0 62.694-24.033 68.963-56.424 4.18-22.988 8.359-45.976 10.449-70.008 3.135-47.02 3.135-94.04-2.089-141.061z" fill="#f2f2f2"/><path d="M116.481 68.963h267.494v38.661H116.481z" fill="#e2e2e2"/><path d="M389.2 0H111.257C99.763 0 90.359 9.404 90.359 20.898v48.065h319.739V20.898C410.098 9.404 400.694 0 389.2 0z" fill="#ff7058"/><path d="M154.098 8.359h12.539v53.29h-12.539zm59.559 0h11.494v53.29h-11.494zm60.604 0H286.8v53.29h-12.539zm60.604 0h12.539v53.29h-12.539z" fill="#f1543f"/><path d="M448.759 234.057H320.237c-15.673-28.212-41.796-45.975-70.008-45.975s-54.335 17.763-70.008 45.975H51.698c-4.18 47.02-4.18 94.041 0 141.061H180.22c15.673 28.212 41.796 45.976 70.008 45.976s54.335-17.763 70.008-45.976h128.522a636.73 636.73 0 0 0 .001-141.061z" fill="#40596b"/><path d="M116.481 68.963h267.494v15.673H116.481z" fill="#cdd6e0"/><path d="M139.469 315.559l12.539-1.045c1.045 4.18 2.09 12.539 13.584 12.539 10.449 0 12.539-6.269 12.539-8.359 0-4.18-2.09-5.224-16.718-9.404-7.314-2.09-20.898-4.18-20.898-18.808 0-3.135 2.09-17.763 22.988-17.763 19.853 0 24.033 13.584 24.033 19.853l-12.539 1.045c-1.045-3.135-3.135-9.404-11.494-9.404-10.449 0-10.449 4.18-10.449 6.269 0 5.224 7.314 6.269 13.584 8.359 6.269 1.045 24.033 5.225 24.033 20.898 0 4.18-1.045 19.853-25.078 19.853-19.854-2.09-25.079-16.719-26.124-24.033zm120.163 20.898h-13.584l-5.224-14.629h-25.078l-5.224 14.629h-13.584l25.078-63.739h12.539l25.077 63.739zm-22.987-25.077l-9.404-24.033-8.359 24.033h17.763zm30.302 25.077v-63.739h12.539v52.245h32.392v10.449h-44.931v1.045zm61.649 0v-53.29h-18.808v-10.449h51.2v10.449H342.18v53.29h-13.584z" fill="#fff"/></svg>