<svg xmlns="http://www.w3.org/2000/svg" width="24" height="20" fill="none" xmlns:v="https://vecta.io/nano"><path d="M21.125 11.797c-.117.43-.508.703-.937.703H8.742l.273 1.25h10.469a.95.95 0 0 1 .898 1.172l-.195.938c.742.351 1.25 1.094 1.25 1.953A2.21 2.21 0 0 1 19.25 20c-1.211 0-2.187-.977-2.187-2.187 0-.586.234-1.133.625-1.562H9.523c.391.43.664.977.664 1.563A2.21 2.21 0 0 1 8 20c-1.211 0-2.187-.977-2.187-2.187 0-.781.43-1.484 1.094-1.875L4.133 2.5H1.438A.9.9 0 0 1 .5 1.563V.938C.5.43.891 0 1.438 0h3.984c.43 0 .82.352.938.781L6.711 2.5h15.312c.625 0 1.055.586.938 1.172l-1.836 8.125z" fill="#1e6b0a"/></svg>