<svg width="24" height="20" viewBox="0 0 24 20" fill="none" xmlns="http://www.w3.org/2000/svg">
<path d="M21.125 11.7969C21.0078 12.2266 20.6172 12.5 20.1875 12.5H8.74218L9.01562 13.75H19.4844C20.0703 13.75 20.5391 14.3359 20.3828 14.9219L20.1875 15.8594C20.9297 16.2109 21.4375 16.9531 21.4375 17.8125C21.4375 19.0234 20.4219 20 19.25 20C18.0391 20 17.0625 19.0234 17.0625 17.8125C17.0625 17.2266 17.2969 16.6797 17.6875 16.25H9.52343C9.91406 16.6797 10.1875 17.2266 10.1875 17.8125C10.1875 19.0234 9.17187 20 8 20C6.78906 20 5.8125 19.0234 5.8125 17.8125C5.8125 17.0312 6.24218 16.3281 6.90625 15.9375L4.13281 2.5H1.4375C0.890621 2.5 0.499996 2.10938 0.499996 1.5625V0.9375C0.499996 0.429688 0.890621 0 1.4375 0H5.42187C5.85156 0 6.24218 0.351562 6.35937 0.78125L6.71093 2.5H22.0234C22.6484 2.5 23.0781 3.08594 22.9609 3.67188L21.125 11.7969Z" fill="#1E6B0A"/>
</svg>
