<svg xmlns="http://www.w3.org/2000/svg" viewBox="0 0 496 496" xmlns:v="https://vecta.io/nano"><path d="M280 71.2c0 4.8-4 8.8-8.8 8.8h-46.4c-4.8 0-8.8-4-8.8-8.8V8.8c0-4.8 4-8.8 8.8-8.8h46.4c4.8 0 8.8 4 8.8 8.8v62.4z" fill="#3d2525"/><path d="M216,6.4c0-4,4-6.4,8.8-6.4h46.4c4.8,0,8.8,0,8.8,4.8v64.8c0,4.8-4,9.6-8.8,9.6" fill="#190d0d"/><path d="M287.2 176c0-4.8.8-9.6.8-15.2 0-20.8 0-44-8-64V76 56h0 0-64v6.4c0 3.2 0 0 0 0V76v20.8c-8 20-8.8 43.2-8.8 64 0 5.6 1.6 10.4 1.6 15.2-29.6 13.6-48.8 43.2-48.8 78.4V448c0 47.2 35.2 48 82.4 48h11.2c47.2 0 82.4-.8 82.4-48V254.4c0-35.2-19.2-64.8-48.8-78.4z" fill="#d1d1d1"/><path d="M336 448V254.4c0-34.4-19.2-64.8-48.8-78.4 0-4.8.8-9.6.8-15.2 0-20.8 0-44-8-64V76 56h0 0-64v7.2c0 3.2 0 0 0 0V96" fill="#bcbcbc"/><path d="M179.2 200c-14.4 8-19.2 32-19.2 54.4V448c0 47.2 35.2 48 82.4 48h11.2c47.2 0 82.4-.8 82.4-48V254.4c0-22.4-5.6-46.4-19.2-54.4H179.2z" fill="#89063c"/><path d="M240 496h13.6c47.2 0 82.4-.8 82.4-48V254.4c0-22.4-5.6-46.4-19.2-54.4H184" fill="#6d0032"/><path d="M304 319.2l-56-54.4-56 54.4V404l56 22.4 56-22.4z" fill="#3cc676"/><path d="M248 426.4l56-22.4v-84.8l-56-54.4" fill="#00a057"/><path d="M283.2 392l-10.4-19.2c6.4-5.6 10.4-13.6 10.4-22.4 0-16.8-12-30.4-28.8-30.4h1.6v72h27.2z" fill="#190d0d"/><path d="M212.8,392l10.4-19.2c-6.4-5.6-10.4-13.6-10.4-22.4c0-16.8,12-30.4,28.8-30.4H240v72H212.8z" fill="#3d2525"/><path d="M264 300c0 2.4-1.6 4-4 4h-24c-2.4 0-4-1.6-4-4h0c0-2.4 1.6-4 4-4h24c2.4 0 4 1.6 4 4h0z" fill="#89063c"/><path d="M216 76v20.8c-8 18.4-8 39.2-8.8 55.2H288c-.8-16 0-36.8-8-54.4V76.8v-20h0 0-64v6.4c0 3.2 0 0 0 0V76z" fill="#3cc676"/><path d="M232 152h56c-.8-16 0-36.8-8-55.2V76 56c-.8.8 0 0 0 0h0-48" fill="#00a057"/><path d="M312 196.8c0 1.6-1.6 3.2-3.2 3.2H187.2c-1.6 0-3.2-1.6-3.2-3.2v-1.6c0-1.6 1.6-3.2 3.2-3.2h121.6c1.6 0 3.2 1.6 3.2 3.2v1.6z" fill="#a01353"/><path d="M176 460c0 2.4-1.6 4-4 4h0c-2.4 0-4-1.6-4-4V276c0-2.4 1.6-4 4-4h0c2.4 0 4 1.6 4 4v184zm0-210.4c0 2.4-1.6 3.2-4 3.2h0c-2.4 0-4-1.6-4-4v-16c0-1.6 1.6-2.4 4-2.4h0c2.4 0 4 .8 4 3.2v16z" fill="#cc7592"/><path d="M216 24h64v16h-64z" fill="#00a057"/><g fill="#190d0d"><circle cx="248" cy="82.4" r="6.4"/><circle cx="248" cy="108" r="6.4"/><circle cx="248" cy="134.4" r="6.4"/></g><path d="M264 4c0 2.4-1.6 4-4 4h-32c-2.4 0-4-1.6-4-4h0c0-2.4 1.6-4 4-4h32c2.4 0 4 1.6 4 4h0z" fill="#6d0032"/></svg>