<svg width="24" height="24" fill="none" xmlns="http://www.w3.org/2000/svg"><mask id="a" fill="#fff"><path d="M24 12c0 6.627-5.373 12-12 12S0 18.627 0 12 5.373 0 12 0s12 5.373 12 12zM1.2 12c0 5.965 4.835 10.8 10.8 10.8 5.965 0 10.8-4.835 10.8-10.8 0-5.965-4.835-10.8-10.8-10.8C6.035 1.2 1.2 6.035 1.2 12z"/></mask><path d="M24 12c0 6.627-5.373 12-12 12S0 18.627 0 12 5.373 0 12 0s12 5.373 12 12zM1.2 12c0 5.965 4.835 10.8 10.8 10.8 5.965 0 10.8-4.835 10.8-10.8 0-5.965-4.835-10.8-10.8-10.8C6.035 1.2 1.2 6.035 1.2 12z" stroke="#fff" stroke-width="11.52" mask="url(#a)"/><path d="M24 12c0 6.627-5.373 12-12 12S0 18.627 0 12 5.373 0 12 0s12 5.373 12 12zM1.2 12c0 5.965 4.835 10.8 10.8 10.8 5.965 0 10.8-4.835 10.8-10.8 0-5.965-4.835-10.8-10.8-10.8C6.035 1.2 1.2 6.035 1.2 12z" fill="#fff"/><path d="M17.543 8.47h-.907a.421.421 0 0 0-.326.151l-5.35 6.442-2.565-3.09a.431.431 0 0 0-.326-.15h-.906c-.087 0-.135.095-.082.16l3.554 4.279c.166.2.485.2.652 0l6.338-7.633c.053-.063.005-.158-.082-.158z" fill="#fff"/></svg>