<svg xmlns="http://www.w3.org/2000/svg" height="800" width="800" viewBox="0 0 339.149 339.149" xmlns:v="https://vecta.io/nano"><path d="M240.168 246.943c-7.872-13.465-22.728-45.195-31.825-74.195h-52.081c-9.095 29-23.953 60.732-31.825 74.195-12.389 21.191-17.025 36.453-13.406 45.992 2.142 5.644 7.192 9.813 16.765 11.813h109.012c9.572-2 14.623-6.169 16.765-11.813 3.62-9.539-1.015-24.801-13.405-45.992zm-75.453-43.714l-37.141 80.785c-1.266 2.755-3.989 4.379-6.836 4.379a7.49 7.49 0 0 1-3.136-.689 7.52 7.52 0 0 1-3.69-9.97l24.762-53.857 12.381-26.928c1.301-2.828 4.137-4.465 7.065-4.375.976.03 1.963.253 2.906.685a7.52 7.52 0 0 1 3.689 9.97z" fill="#ce593f"/><path d="M208.724 68.744l.105-.264-.105.264zm-8.12 20.63c-.001-.147 2.696-6.524 5.119-12.63-.073.185-.145 1.004-.219 1.004h-41.509l-.004 61.924c-.051 6.744-.723 13.076-1.847 20.076h42.246c-2.281-10-3.698-20.551-3.775-30.554l-.011-39.82zm5.458-13.937l.411-1.034-.411 1.034zm.827-2.082l.241-.605-.241.605zm-69.275 248.393c1.943 2 4.641 2 7.621 2h74.597c2.979 0 5.675 0 7.617-2h-89.835z" fill="#84bd93"/><path d="M195.137 27.748h-28.211l3.264 29h21.683z" fill="#ef8829"/><g fill="#3f2d20"><path d="M158.12 192.573c-2.928-.089-5.764 1.547-7.065 4.375l-12.381 26.928 12.382-26.928c1.3-2.827 4.136-4.463 7.064-4.375z"/><path d="M161.025 193.258c-.943-.433-1.93-.655-2.906-.685-2.928-.088-5.763 1.547-7.064 4.375l-12.382 26.928-24.762 53.857a7.52 7.52 0 0 0 3.69 9.97 7.49 7.49 0 0 0 3.136.689c2.846 0 5.569-1.625 6.836-4.379l37.141-80.785c1.736-3.772.084-8.235-3.689-9.97zm92.122 45.273c-11.168-19.103-37.18-68.007-37.498-109.43l-.012-38.236 12.12-28.634c.983-2.322.736-4.981-.656-7.082s-3.745-3.365-6.266-3.365H207.05l5.973-43.239c.297-2.153-.352-4.329-1.78-5.967A7.52 7.52 0 0 0 205.576 0h-56.568c-2.173 0-4.24.941-5.667 2.579a7.52 7.52 0 0 0-1.78 5.967l5.973 43.239s-4.375.027-6.398 2.203c-1.359 1.461-2.202 3.323-2.2 5.318l.008 22.517H98.989c-11.665 0-20.089 3.459-25.034 10.28-5.738 7.915-6.117 19.123-1.155 34.283l33.939 102.74-5.303 9.405c-15.185 25.97-19.921 45.561-14.484 59.893 4.32 11.386 14.142 17.143 22.651 20.482 2.527 11.56 12.848 20.242 25.155 20.242h85.073c12.309 0 22.628-8.683 25.155-20.245 8.51-3.34 18.325-9.097 22.643-20.479 5.438-14.332.701-33.923-14.482-59.893zm-33.316 85.584h-85.073c-2.98 0-5.677-1.226-7.621-3.197h100.31a10.66 10.66 0 0 1-7.616 3.197zm-102.056-18.231c-9.573-3.29-14.623-7.149-16.765-12.793-3.619-9.539 1.016-25.781 13.405-46.972 7.872-13.463 22.73-41.037 31.825-71.291h62.104c9.097 30.254 23.953 57.826 31.825 71.291 12.39 21.191 17.025 37.433 13.405 46.972-2.142 5.644-7.192 9.503-16.765 12.793H117.775zm36.193-176.665l.004-62.4h55.519l-8.887 22.555.012 39.843c.076 10.003 1.494 20.335 3.774 30.576h-54.194c2.278-10.241 3.696-20.572 3.772-30.574zm37.905-77.434h-29.162l-5.076-36.751h39.314l-5.076 36.751zM87.082 121.69c-3.21-9.809-3.549-17.183-.953-20.763 1.958-2.701 6.286-4.07 12.861-4.07h39.958l-.012 32.244c-.211 27.376-11.642 58.011-22.594 81.158l-29.26-88.569z"/></g></svg>