<svg width="20" height="12.4" fill="none" xmlns="http://www.w3.org/2000/svg"><g clip-path="url(#a)"><path d="M20 2.01v2.833c-.156.35-.424.482-.787.447-.135-.013-.273-.005-.41-.001a1.195 1.195 0 0 0-1.142 1.091c-.059.607.33 1.175.912 1.297.208.044.429.048.64.034.364-.025.632.098.787.45v2.832c-.008.018-.02.035-.025.054-.257 1.033-.867 1.524-1.894 1.524H4.867c-1.034 0-2.069.004-3.103-.002A1.766 1.766 0 0 1 .09 11.321c-.035-.108-.06-.219-.09-.328V8.16c.156-.35.423-.483.787-.448.142.014.286.006.43 0 .58-.022 1.063-.493 1.122-1.09.06-.606-.33-1.176-.912-1.297a2.377 2.377 0 0 0-.64-.034c-.364.026-.63-.1-.787-.45V2.01c.008-.017.02-.035.024-.053C.302.903.893.433 1.939.433h12.726c1.19 0 2.38-.009 3.572.003.736.007 1.274.375 1.598 1.06.076.16.11.342.165.514zM7.644 10.144a.634.634 0 0 0 .505-.272c.53-.69 1.064-1.38 1.596-2.069 1-1.295 2-2.59 3.001-3.883.133-.17.219-.354.168-.577-.055-.243-.2-.407-.439-.463-.265-.063-.467.048-.63.26L8.43 7.561c-.407.527-.815 1.052-1.219 1.58a.604.604 0 0 0-.079.662c.104.22.284.323.51.341zm2.942-1.832c-.004.998.779 1.822 1.739 1.83.972.01 1.772-.805 1.776-1.81.004-.999-.777-1.821-1.738-1.83-.972-.008-1.772.806-1.777 1.81zm-2.92-5.451c-.964-.005-1.76.807-1.767 1.8-.008 1.008.78 1.836 1.748 1.84.964.004 1.759-.806 1.767-1.8.008-1.01-.779-1.837-1.748-1.84z" fill="#FA0"/><path d="M7.645 10.143a.572.572 0 0 1-.51-.341.604.604 0 0 1 .079-.663c.404-.527.812-1.053 1.219-1.579l3.413-4.42c.164-.213.367-.324.63-.261.239.056.385.22.44.464.05.222-.036.405-.168.576-1.001 1.293-2 2.588-3 3.883-.533.69-1.067 1.378-1.597 2.069a.635.635 0 0 1-.505.272h-.001zM10.588 8.312c.004-1.004.804-1.819 1.777-1.81.96.008 1.741.83 1.737 1.83-.004 1.004-.803 1.82-1.776 1.81-.96-.009-1.742-.832-1.738-1.83zm2.342.005a.602.602 0 0 0-.585-.6.602.602 0 0 0-.585.6c-.003.336.272.618.595.612a.603.603 0 0 0 .575-.612zM7.666 2.861c.97.005 1.756.831 1.748 1.84-.008.994-.803 1.805-1.766 1.8-.97-.004-1.756-.831-1.749-1.84.008-.993.804-1.804 1.767-1.8zm.576 1.828a.603.603 0 0 0-.573-.613.602.602 0 0 0-.597.588c-.009.335.26.623.583.624a.603.603 0 0 0 .588-.6z" fill="#fff"/><path d="M12.93 8.318a.603.603 0 0 1-.575.611c-.324.006-.598-.275-.595-.61a.603.603 0 0 1 .585-.602c.316 0 .582.273.585.6zM8.242 4.688a.602.602 0 0 1-.588.598c-.324 0-.592-.288-.582-.623a.602.602 0 0 1 .596-.589.603.603 0 0 1 .573.614z" fill="#FA0"/></g><defs><clipPath id="a"><path fill="#fff" transform="translate(0 .429)" d="M0 0h20v12.143H0z"/></clipPath></defs></svg>