<svg width="25" height="25" fill="none" xmlns="http://www.w3.org/2000/svg"><mask id="a" fill="#fff"><path d="M25 12.5C25 19.404 19.404 25 12.5 25S0 19.404 0 12.5 5.596 0 12.5 0 25 5.596 25 12.5zm-23.75 0c0 6.213 5.037 11.25 11.25 11.25s11.25-5.037 11.25-11.25S18.713 1.25 12.5 1.25 1.25 6.287 1.25 12.5z"/></mask><path d="M25 12.5C25 19.404 19.404 25 12.5 25S0 19.404 0 12.5 5.596 0 12.5 0 25 5.596 25 12.5zm-23.75 0c0 6.213 5.037 11.25 11.25 11.25s11.25-5.037 11.25-11.25S18.713 1.25 12.5 1.25 1.25 6.287 1.25 12.5z" stroke="#fff" stroke-width="12" mask="url(#a)"/><g clip-path="url(#b)"><path d="M7 12.68c.026-.2.046-.402.083-.599.23-1.29.844-2.327 1.828-3.106.956-.76 2.04-1.07 3.226-.95 2.086.214 3.768 1.879 4.144 4.08l.012.05c.025-.025.045-.04.06-.061.14-.178.278-.36.422-.537.26-.325.68-.368.975-.101a.76.76 0 0 1 .08 1.036 230.27 230.27 0 0 1-1.638 2.095c-.25.316-.66.358-.961.095-.663-.583-1.32-1.175-1.978-1.767a.763.763 0 0 1-.083-1.02c.241-.31.654-.363.953-.111.247.208.485.43.726.644l.095.083c-.02-.114-.032-.206-.05-.295-.315-1.5-1.526-2.616-2.966-2.732-1.754-.144-3.304 1.205-3.53 3.07-.221 1.824.932 3.548 2.62 3.906.215.046.439.062.66.074a.72.72 0 0 1 .686.742c-.006.41-.319.727-.712.727-2.207-.006-4.133-1.696-4.563-4.011-.037-.224-.06-.448-.089-.672v-.64z" fill="#fff"/></g><defs><clipPath id="b"><path fill="#fff" transform="translate(7 8)" d="M0 0h11v10H0z"/></clipPath></defs></svg>